<svg width="112" height="29" viewBox="0 0 112 29" fill="none" xmlns="http://www.w3.org/2000/svg">
<rect width="112" height="29" rx="14.5" fill="#4EE91F" fill-opacity="0.5"/>
<path d="M21.772 17.39C21.2773 17.9873 20.694 18.4447 20.022 18.762C19.35 19.07 18.5987 19.224 17.768 19.224C17.0213 19.224 16.326 19.0887 15.682 18.818C15.0473 18.5473 14.4967 18.1787 14.03 17.712C13.5633 17.2453 13.1947 16.6947 12.924 16.06C12.6533 15.416 12.518 14.7253 12.518 13.988C12.518 13.2507 12.6533 12.5647 12.924 11.93C13.1947 11.286 13.5633 10.7307 14.03 10.264C14.4967 9.79733 15.0473 9.42867 15.682 9.158C16.326 8.88733 17.0213 8.752 17.768 8.752C18.5707 8.752 19.2753 8.892 19.882 9.172C20.498 9.452 21.044 9.858 21.52 10.39L20.19 11.678C19.8913 11.3327 19.546 11.0573 19.154 10.852C18.7713 10.6467 18.314 10.544 17.782 10.544C17.3153 10.544 16.8767 10.628 16.466 10.796C16.0553 10.9547 15.696 11.1833 15.388 11.482C15.0893 11.7807 14.8513 12.1447 14.674 12.574C14.4967 12.994 14.408 13.4653 14.408 13.988C14.408 14.5107 14.4967 14.9867 14.674 15.416C14.8513 15.836 15.0893 16.1953 15.388 16.494C15.696 16.7927 16.0553 17.026 16.466 17.194C16.8767 17.3527 17.3153 17.432 17.782 17.432C18.342 17.432 18.8367 17.32 19.266 17.096C19.7047 16.8627 20.092 16.536 20.428 16.116L21.772 17.39ZM26.0398 11.916C26.5718 11.916 27.0571 12.0093 27.4958 12.196C27.9438 12.3733 28.3265 12.6253 28.6438 12.952C28.9705 13.2693 29.2225 13.652 29.3998 14.1C29.5865 14.548 29.6798 15.038 29.6798 15.57C29.6798 16.102 29.5865 16.592 29.3998 17.04C29.2225 17.488 28.9705 17.8753 28.6438 18.202C28.3265 18.5193 27.9438 18.7713 27.4958 18.958C27.0571 19.1353 26.5718 19.224 26.0398 19.224C25.5078 19.224 25.0178 19.1353 24.5698 18.958C24.1311 18.7713 23.7485 18.5193 23.4218 18.202C23.1045 17.8753 22.8525 17.488 22.6658 17.04C22.4885 16.592 22.3998 16.102 22.3998 15.57C22.3998 15.038 22.4885 14.548 22.6658 14.1C22.8525 13.652 23.1045 13.2693 23.4218 12.952C23.7485 12.6253 24.1311 12.3733 24.5698 12.196C25.0178 12.0093 25.5078 11.916 26.0398 11.916ZM26.0398 17.53C26.2731 17.53 26.4971 17.488 26.7118 17.404C26.9358 17.3107 27.1318 17.18 27.2998 17.012C27.4678 16.844 27.5985 16.6387 27.6918 16.396C27.7945 16.1533 27.8458 15.878 27.8458 15.57C27.8458 15.262 27.7945 14.9867 27.6918 14.744C27.5985 14.5013 27.4678 14.296 27.2998 14.128C27.1318 13.96 26.9358 13.834 26.7118 13.75C26.4971 13.6567 26.2731 13.61 26.0398 13.61C25.7971 13.61 25.5685 13.6567 25.3538 13.75C25.1391 13.834 24.9478 13.96 24.7798 14.128C24.6118 14.296 24.4765 14.5013 24.3738 14.744C24.2805 14.9867 24.2338 15.262 24.2338 15.57C24.2338 15.878 24.2805 16.1533 24.3738 16.396C24.4765 16.6387 24.6118 16.844 24.7798 17.012C24.9478 17.18 25.1391 17.3107 25.3538 17.404C25.5685 17.488 25.7971 17.53 26.0398 17.53ZM30.7215 12.14H32.4435V13.036H32.5555C32.7702 12.7 33.0595 12.4293 33.4235 12.224C33.7968 12.0187 34.2075 11.916 34.6555 11.916C35.1782 11.916 35.6168 12.0373 35.9715 12.28C36.3262 12.5227 36.5782 12.8213 36.7275 13.176C36.9422 12.8307 37.2455 12.5367 37.6375 12.294C38.0295 12.042 38.5055 11.916 39.0655 11.916C39.4855 11.916 39.8495 11.986 40.1575 12.126C40.4655 12.2567 40.7175 12.4433 40.9135 12.686C41.1188 12.9287 41.2728 13.2227 41.3755 13.568C41.4782 13.904 41.5295 14.2727 41.5295 14.674V19H39.6955V15.01C39.6955 14.0767 39.3128 13.61 38.5475 13.61C38.3048 13.61 38.0902 13.666 37.9035 13.778C37.7168 13.8807 37.5582 14.0253 37.4275 14.212C37.3062 14.3893 37.2082 14.604 37.1335 14.856C37.0682 15.108 37.0355 15.3787 37.0355 15.668V19H35.2015V15.01C35.2015 14.0767 34.8002 13.61 33.9975 13.61C33.7642 13.61 33.5588 13.666 33.3815 13.778C33.2042 13.8807 33.0548 14.0253 32.9335 14.212C32.8122 14.3893 32.7188 14.604 32.6535 14.856C32.5882 15.108 32.5555 15.3787 32.5555 15.668V19H30.7215V12.14ZM44.0619 11.146C43.9032 11.146 43.7492 11.118 43.5999 11.062C43.4599 10.9967 43.3339 10.9127 43.2219 10.81C43.1192 10.698 43.0352 10.572 42.9699 10.432C42.9139 10.292 42.8859 10.138 42.8859 9.97C42.8859 9.802 42.9139 9.648 42.9699 9.508C43.0352 9.368 43.1192 9.24667 43.2219 9.144C43.3339 9.032 43.4599 8.948 43.5999 8.892C43.7492 8.82667 43.9032 8.794 44.0619 8.794C44.3885 8.794 44.6685 8.91067 44.9019 9.144C45.1352 9.368 45.2519 9.64333 45.2519 9.97C45.2519 10.2967 45.1352 10.5767 44.9019 10.81C44.6685 11.034 44.3885 11.146 44.0619 11.146ZM43.1519 19V12.14H44.9859V19H43.1519ZM48.3849 13.036H48.4969C48.7116 12.6907 49.0009 12.42 49.3649 12.224C49.7289 12.0187 50.1442 11.916 50.6109 11.916C51.0402 11.916 51.4182 11.986 51.7449 12.126C52.0716 12.266 52.3376 12.4667 52.5429 12.728C52.7576 12.98 52.9162 13.288 53.0189 13.652C53.1309 14.0067 53.1869 14.4033 53.1869 14.842V19H51.3529V15.066C51.3529 14.5713 51.2409 14.2073 51.0169 13.974C50.8022 13.7313 50.4849 13.61 50.0649 13.61C49.8129 13.61 49.5889 13.666 49.3929 13.778C49.2062 13.8807 49.0429 14.0253 48.9029 14.212C48.7722 14.3893 48.6696 14.604 48.5949 14.856C48.5296 15.0987 48.4969 15.36 48.4969 15.64V19H46.6629V12.14H48.3849V13.036ZM57.7976 22.248C57.3123 22.248 56.8783 22.1827 56.4956 22.052C56.1223 21.9307 55.7956 21.7673 55.5156 21.562C55.2356 21.366 55.0023 21.1467 54.8156 20.904C54.6289 20.6613 54.4936 20.4187 54.4096 20.176L56.1596 19.476C56.2903 19.84 56.5049 20.12 56.8036 20.316C57.1023 20.5213 57.4336 20.624 57.7976 20.624C58.3763 20.624 58.8336 20.442 59.1696 20.078C59.5056 19.7233 59.6736 19.224 59.6736 18.58V18.104H59.5616C59.3469 18.4027 59.0623 18.6407 58.7076 18.818C58.3623 18.986 57.9516 19.07 57.4756 19.07C57.0649 19.07 56.6636 18.986 56.2716 18.818C55.8889 18.65 55.5483 18.412 55.2496 18.104C54.9509 17.7867 54.7083 17.4087 54.5216 16.97C54.3349 16.5313 54.2416 16.0413 54.2416 15.5C54.2416 14.9587 54.3349 14.4687 54.5216 14.03C54.7083 13.582 54.9509 13.204 55.2496 12.896C55.5483 12.5787 55.8889 12.336 56.2716 12.168C56.6636 12 57.0649 11.916 57.4756 11.916C57.9516 11.916 58.3623 12.0047 58.7076 12.182C59.0623 12.35 59.3469 12.5833 59.5616 12.882H59.6736V12.14H61.4236V18.51C61.4236 19.0887 61.3349 19.6067 61.1576 20.064C60.9803 20.5307 60.7329 20.9227 60.4156 21.24C60.0983 21.5667 59.7156 21.814 59.2676 21.982C58.8289 22.1593 58.3389 22.248 57.7976 22.248ZM57.8676 17.418C58.0916 17.418 58.3109 17.376 58.5256 17.292C58.7496 17.208 58.9456 17.0867 59.1136 16.928C59.2816 16.76 59.4169 16.5593 59.5196 16.326C59.6223 16.0833 59.6736 15.808 59.6736 15.5C59.6736 15.192 59.6223 14.9167 59.5196 14.674C59.4169 14.4313 59.2816 14.2307 59.1136 14.072C58.9456 13.904 58.7496 13.778 58.5256 13.694C58.3109 13.61 58.0916 13.568 57.8676 13.568C57.6436 13.568 57.4243 13.61 57.2096 13.694C56.9949 13.778 56.8036 13.904 56.6356 14.072C56.4676 14.24 56.3323 14.4453 56.2296 14.688C56.1269 14.9213 56.0756 15.192 56.0756 15.5C56.0756 15.808 56.1269 16.0833 56.2296 16.326C56.3323 16.5593 56.4676 16.76 56.6356 16.928C56.8036 17.0867 56.9949 17.208 57.2096 17.292C57.4243 17.376 57.6436 17.418 57.8676 17.418ZM68.7793 19.224C68.3313 19.224 67.93 19.168 67.5753 19.056C67.23 18.944 66.9266 18.7993 66.6653 18.622C66.4133 18.4353 66.1986 18.2253 66.0213 17.992C65.844 17.7493 65.7086 17.5067 65.6153 17.264L67.2533 16.564C67.412 16.9187 67.622 17.1847 67.8833 17.362C68.154 17.53 68.4526 17.614 68.7793 17.614C69.1153 17.614 69.3813 17.5533 69.5773 17.432C69.7733 17.3107 69.8713 17.166 69.8713 16.998C69.8713 16.8113 69.7873 16.662 69.6193 16.55C69.4606 16.4287 69.1806 16.3213 68.7793 16.228L67.8133 16.018C67.5986 15.9713 67.3746 15.8967 67.1413 15.794C66.9173 15.6913 66.712 15.5607 66.5253 15.402C66.3386 15.2433 66.1846 15.052 66.0633 14.828C65.942 14.604 65.8813 14.3427 65.8813 14.044C65.8813 13.708 65.9513 13.4093 66.0913 13.148C66.2406 12.8867 66.4413 12.6673 66.6933 12.49C66.9453 12.3033 67.2393 12.1633 67.5753 12.07C67.9206 11.9673 68.2893 11.916 68.6813 11.916C69.3346 11.916 69.918 12.0467 70.4313 12.308C70.9446 12.56 71.3226 12.966 71.5653 13.526L69.9833 14.17C69.8526 13.8993 69.6613 13.7033 69.4093 13.582C69.1573 13.4607 68.9053 13.4 68.6533 13.4C68.392 13.4 68.1633 13.456 67.9673 13.568C67.7713 13.6707 67.6733 13.806 67.6733 13.974C67.6733 14.1327 67.7526 14.2587 67.9113 14.352C68.0793 14.4453 68.3033 14.5293 68.5833 14.604L69.6333 14.856C70.3333 15.024 70.8513 15.2947 71.1873 15.668C71.5326 16.032 71.7053 16.466 71.7053 16.97C71.7053 17.2687 71.6353 17.5533 71.4953 17.824C71.3553 18.0947 71.1546 18.3373 70.8933 18.552C70.6413 18.7573 70.3333 18.9207 69.9693 19.042C69.6146 19.1633 69.218 19.224 68.7793 19.224ZM76.1472 11.916C76.6792 11.916 77.1646 12.0093 77.6032 12.196C78.0512 12.3733 78.4339 12.6253 78.7512 12.952C79.0779 13.2693 79.3299 13.652 79.5072 14.1C79.6939 14.548 79.7872 15.038 79.7872 15.57C79.7872 16.102 79.6939 16.592 79.5072 17.04C79.3299 17.488 79.0779 17.8753 78.7512 18.202C78.4339 18.5193 78.0512 18.7713 77.6032 18.958C77.1646 19.1353 76.6792 19.224 76.1472 19.224C75.6152 19.224 75.1252 19.1353 74.6772 18.958C74.2386 18.7713 73.8559 18.5193 73.5292 18.202C73.2119 17.8753 72.9599 17.488 72.7732 17.04C72.5959 16.592 72.5072 16.102 72.5072 15.57C72.5072 15.038 72.5959 14.548 72.7732 14.1C72.9599 13.652 73.2119 13.2693 73.5292 12.952C73.8559 12.6253 74.2386 12.3733 74.6772 12.196C75.1252 12.0093 75.6152 11.916 76.1472 11.916ZM76.1472 17.53C76.3806 17.53 76.6046 17.488 76.8192 17.404C77.0432 17.3107 77.2392 17.18 77.4072 17.012C77.5752 16.844 77.7059 16.6387 77.7992 16.396C77.9019 16.1533 77.9532 15.878 77.9532 15.57C77.9532 15.262 77.9019 14.9867 77.7992 14.744C77.7059 14.5013 77.5752 14.296 77.4072 14.128C77.2392 13.96 77.0432 13.834 76.8192 13.75C76.6046 13.6567 76.3806 13.61 76.1472 13.61C75.9046 13.61 75.6759 13.6567 75.4612 13.75C75.2466 13.834 75.0552 13.96 74.8872 14.128C74.7192 14.296 74.5839 14.5013 74.4812 14.744C74.3879 14.9867 74.3412 15.262 74.3412 15.57C74.3412 15.878 74.3879 16.1533 74.4812 16.396C74.5839 16.6387 74.7192 16.844 74.8872 17.012C75.0552 17.18 75.2466 17.3107 75.4612 17.404C75.6759 17.488 75.9046 17.53 76.1472 17.53ZM84.2136 11.916C84.7456 11.916 85.231 12.0093 85.6696 12.196C86.1176 12.3733 86.5003 12.6253 86.8176 12.952C87.1443 13.2693 87.3963 13.652 87.5736 14.1C87.7603 14.548 87.8536 15.038 87.8536 15.57C87.8536 16.102 87.7603 16.592 87.5736 17.04C87.3963 17.488 87.1443 17.8753 86.8176 18.202C86.5003 18.5193 86.1176 18.7713 85.6696 18.958C85.231 19.1353 84.7456 19.224 84.2136 19.224C83.6816 19.224 83.1916 19.1353 82.7436 18.958C82.305 18.7713 81.9223 18.5193 81.5956 18.202C81.2783 17.8753 81.0263 17.488 80.8396 17.04C80.6623 16.592 80.5736 16.102 80.5736 15.57C80.5736 15.038 80.6623 14.548 80.8396 14.1C81.0263 13.652 81.2783 13.2693 81.5956 12.952C81.9223 12.6253 82.305 12.3733 82.7436 12.196C83.1916 12.0093 83.6816 11.916 84.2136 11.916ZM84.2136 17.53C84.447 17.53 84.671 17.488 84.8856 17.404C85.1096 17.3107 85.3056 17.18 85.4736 17.012C85.6416 16.844 85.7723 16.6387 85.8656 16.396C85.9683 16.1533 86.0196 15.878 86.0196 15.57C86.0196 15.262 85.9683 14.9867 85.8656 14.744C85.7723 14.5013 85.6416 14.296 85.4736 14.128C85.3056 13.96 85.1096 13.834 84.8856 13.75C84.671 13.6567 84.447 13.61 84.2136 13.61C83.971 13.61 83.7423 13.6567 83.5276 13.75C83.313 13.834 83.1216 13.96 82.9536 14.128C82.7856 14.296 82.6503 14.5013 82.5476 14.744C82.4543 14.9867 82.4076 15.262 82.4076 15.57C82.4076 15.878 82.4543 16.1533 82.5476 16.396C82.6503 16.6387 82.7856 16.844 82.9536 17.012C83.1216 17.18 83.313 17.3107 83.5276 17.404C83.7423 17.488 83.971 17.53 84.2136 17.53ZM90.6173 13.036H90.7293C90.944 12.6907 91.2333 12.42 91.5973 12.224C91.9613 12.0187 92.3767 11.916 92.8433 11.916C93.2727 11.916 93.6507 11.986 93.9773 12.126C94.304 12.266 94.57 12.4667 94.7753 12.728C94.99 12.98 95.1487 13.288 95.2513 13.652C95.3633 14.0067 95.4193 14.4033 95.4193 14.842V19H93.5853V15.066C93.5853 14.5713 93.4733 14.2073 93.2493 13.974C93.0347 13.7313 92.7173 13.61 92.2973 13.61C92.0453 13.61 91.8213 13.666 91.6253 13.778C91.4387 13.8807 91.2753 14.0253 91.1353 14.212C91.0047 14.3893 90.902 14.604 90.8273 14.856C90.762 15.0987 90.7293 15.36 90.7293 15.64V19H88.8953V12.14H90.6173V13.036ZM98.0404 19.084C97.7044 19.084 97.4151 18.9673 97.1724 18.734C96.9391 18.4913 96.8224 18.202 96.8224 17.866C96.8224 17.53 96.9391 17.2453 97.1724 17.012C97.4151 16.7787 97.7044 16.662 98.0404 16.662C98.3764 16.662 98.6611 16.7787 98.8944 17.012C99.1277 17.2453 99.2444 17.53 99.2444 17.866C99.2444 18.202 99.1277 18.4913 98.8944 18.734C98.6611 18.9673 98.3764 19.084 98.0404 19.084ZM97.0884 11.86V8.976H98.9784V11.86L98.7824 15.556H97.2844L97.0884 11.86Z" fill="#43BE1E"/>
</svg>
