<svg width="264" height="109" viewBox="0 0 264 109" fill="none" xmlns="http://www.w3.org/2000/svg">
<g filter="url(#filter0_dd_318_241)">
<rect x="26" y="20" width="216" height="61" rx="10" fill="white"/>
<rect x="34" y="28" width="45" height="45" rx="5" fill="#F1CE6A"/>
<path d="M64.5639 50.455C64.5729 50.32 64.5999 50.185 64.5999 50.05V50.5L64.5639 50.455ZM55.5999 50.05C55.5999 50.689 55.7349 51.301 55.9779 51.85H51.0999V52.75C51.0999 53.245 50.6949 53.65 50.1999 53.65H49.2999C48.8049 53.65 48.3999 53.245 48.3999 52.75V45.55L50.2719 40.15C50.4519 39.628 50.9559 39.25 51.5499 39.25H61.4499C62.0439 39.25 62.5479 39.628 62.7279 40.15L64.5999 45.55V50.05C64.5999 47.566 62.5839 45.55 60.0999 45.55C57.6159 45.55 55.5999 47.566 55.5999 50.05ZM52.8999 47.8C52.8999 47.053 52.2969 46.45 51.5499 46.45C50.8029 46.45 50.1999 47.053 50.1999 47.8C50.1999 48.547 50.8029 49.15 51.5499 49.15C52.2969 49.15 52.8999 48.547 52.8999 47.8ZM62.7999 44.65L61.4499 40.6H51.5499L50.1999 44.65H62.7999ZM66.2829 54.721L62.5839 51.022C62.9529 50.086 62.7459 48.988 61.9719 48.223C61.1619 47.404 59.9469 47.242 58.9659 47.692L60.7119 49.438L59.4969 50.662L57.7059 48.907C57.2199 49.888 57.4449 51.103 58.2369 51.922C58.5943 52.2866 59.0506 52.5388 59.5495 52.6476C60.0484 52.7563 60.5681 52.7168 61.0449 52.534L64.7439 56.224C64.9059 56.395 65.1489 56.395 65.3109 56.224L66.2469 55.297C66.4449 55.135 66.4449 54.847 66.2829 54.721Z" fill="#1C3D5A"/>
<path d="M62.439 64.4501H61.0854V57.8583H62.439V60.6136H65.291V57.8583H66.6445V64.4501H65.291V61.7958H62.439V64.4501Z" fill="#1C3D5A"/>
<path d="M54.2671 64.4501V57.8583H56.4248C57.2217 57.8583 57.9116 57.993 58.4946 58.2626C59.0776 58.5321 59.5288 58.913 59.8481 59.4052C60.1675 59.8973 60.3271 60.4803 60.3271 61.1542C60.3271 61.8251 60.1675 62.4081 59.8481 62.9032C59.5288 63.3954 59.0776 63.7762 58.4946 64.0458C57.9116 64.3153 57.2217 64.4501 56.4248 64.4501H54.2671ZM55.6206 63.2679H56.4731C57.0005 63.2679 57.4473 63.1859 57.8135 63.0219C58.1826 62.8549 58.4624 62.6146 58.6528 62.3011C58.8462 61.9847 58.9429 61.6024 58.9429 61.1542C58.9429 60.703 58.8462 60.3207 58.6528 60.0072C58.4624 59.6937 58.1826 59.455 57.8135 59.2909C57.4473 59.1239 57.0005 59.0404 56.4731 59.0404H55.6206V63.2679Z" fill="#1C3D5A"/>
<path d="M53.2805 64.4501H51.927V59.7919L50.2791 63.3427H49.2332L47.5896 59.8051V64.4501H46.2361V57.8583H47.9543L49.7561 61.8397L51.5579 57.8583H53.2805V64.4501Z" fill="#1C3D5A"/>
<circle cx="75.8501" cy="30.7" r="3.8" fill="white"/>
<path d="M82.6615 29.8023L81.6925 28.6765C81.5072 28.4628 81.3576 28.0638 81.3576 27.7788V26.5675C81.3576 25.8123 80.7377 25.1924 79.9825 25.1924H78.7712C78.4933 25.1924 78.0872 25.0428 77.8735 24.8575L76.7477 23.8885C76.2561 23.4681 75.451 23.4681 74.9522 23.8885L73.8336 24.8646C73.6198 25.0428 73.2137 25.1924 72.9358 25.1924H71.7032C70.948 25.1924 70.3281 25.8123 70.3281 26.5675V27.7859C70.3281 28.0638 70.1785 28.4628 70.0003 28.6765L69.0385 29.8094C68.6252 30.301 68.6252 31.099 69.0385 31.5906L70.0003 32.7235C70.1785 32.9373 70.3281 33.3363 70.3281 33.6141V34.8325C70.3281 35.5878 70.948 36.2076 71.7032 36.2076H72.9358C73.2137 36.2076 73.6198 36.3573 73.8336 36.5425L74.9593 37.5115C75.451 37.9319 76.2561 37.9319 76.7548 37.5115L77.8806 36.5425C78.0943 36.3573 78.4933 36.2076 78.7783 36.2076H79.9896C80.7448 36.2076 81.3647 35.5878 81.3647 34.8325V33.6213C81.3647 33.3434 81.5143 32.9373 81.6996 32.7235L82.6686 31.5978C83.0818 31.1061 83.0818 30.2939 82.6615 29.8023ZM78.814 29.3534L75.3726 32.7948C75.2728 32.8945 75.1375 32.9515 74.995 32.9515C74.8525 32.9515 74.7171 32.8945 74.6173 32.7948L72.8931 31.0705C72.6865 30.8639 72.6865 30.5219 72.8931 30.3153C73.0997 30.1086 73.4417 30.1086 73.6483 30.3153L74.995 31.6619L78.0587 28.5981C78.2653 28.3915 78.6073 28.3915 78.814 28.5981C79.0206 28.8048 79.0206 29.1468 78.814 29.3534Z" fill="#0065B5"/>
<path d="M88.864 31.408H90.22L93.028 36.292H93.1L95.908 31.408H97.252V40H95.908V35.332L95.98 33.892H95.908L93.46 38.176H92.656L90.22 33.892H90.148L90.22 35.332V40H88.864V31.408ZM98.8573 31.408H101.617C102.297 31.408 102.905 31.516 103.441 31.732C103.985 31.94 104.445 32.232 104.821 32.608C105.205 32.984 105.497 33.436 105.697 33.964C105.905 34.492 106.009 35.072 106.009 35.704C106.009 36.336 105.905 36.916 105.697 37.444C105.497 37.972 105.205 38.424 104.821 38.8C104.445 39.176 103.985 39.472 103.441 39.688C102.905 39.896 102.297 40 101.617 40H98.8573V31.408ZM101.593 38.704C102.561 38.704 103.309 38.44 103.837 37.912C104.365 37.384 104.629 36.648 104.629 35.704C104.629 34.768 104.365 34.036 103.837 33.508C103.309 32.972 102.561 32.704 101.593 32.704H100.213V38.704H101.593ZM107.198 31.408H108.554V34.972H112.526V31.408H113.882V40H112.526V36.244H108.554V40H107.198V31.408ZM120.154 31.408H121.714L124.942 40H123.442L122.662 37.792H119.206L118.426 40H116.926L120.154 31.408ZM122.206 36.556L121.306 34.024L120.97 33.016H120.898L120.562 34.024L119.662 36.556H122.206ZM129.43 39.208H129.358C129.182 39.488 128.93 39.724 128.602 39.916C128.282 40.1 127.918 40.192 127.51 40.192C126.766 40.192 126.21 39.972 125.842 39.532C125.474 39.084 125.29 38.492 125.29 37.756V34.12H126.622V37.576C126.622 38.088 126.738 38.448 126.97 38.656C127.21 38.856 127.522 38.956 127.906 38.956C128.13 38.956 128.33 38.908 128.506 38.812C128.69 38.716 128.846 38.588 128.974 38.428C129.102 38.26 129.198 38.072 129.262 37.864C129.326 37.648 129.358 37.424 129.358 37.192V34.12H130.69V40H129.43V39.208ZM132.616 35.296H131.584V34.12H132.616V32.32H133.948V34.12H135.4V35.296H133.948V37.912C133.948 38.056 133.964 38.188 133.996 38.308C134.028 38.428 134.076 38.528 134.14 38.608C134.276 38.76 134.448 38.836 134.656 38.836C134.784 38.836 134.884 38.828 134.956 38.812C135.028 38.788 135.104 38.756 135.184 38.716L135.592 39.892C135.424 39.956 135.248 40.004 135.064 40.036C134.88 40.076 134.672 40.096 134.44 40.096C134.16 40.096 133.912 40.052 133.696 39.964C133.48 39.876 133.292 39.756 133.132 39.604C132.788 39.26 132.616 38.792 132.616 38.2V35.296ZM139.06 33.928C139.508 33.928 139.92 34.008 140.296 34.168C140.672 34.32 140.996 34.536 141.268 34.816C141.54 35.096 141.752 35.428 141.904 35.812C142.056 36.196 142.132 36.612 142.132 37.06C142.132 37.508 142.056 37.924 141.904 38.308C141.752 38.692 141.54 39.024 141.268 39.304C140.996 39.584 140.672 39.804 140.296 39.964C139.92 40.116 139.508 40.192 139.06 40.192C138.612 40.192 138.2 40.116 137.824 39.964C137.448 39.804 137.124 39.584 136.852 39.304C136.58 39.024 136.368 38.692 136.216 38.308C136.064 37.924 135.988 37.508 135.988 37.06C135.988 36.612 136.064 36.196 136.216 35.812C136.368 35.428 136.58 35.096 136.852 34.816C137.124 34.536 137.448 34.32 137.824 34.168C138.2 34.008 138.612 33.928 139.06 33.928ZM139.06 38.956C139.284 38.956 139.5 38.912 139.708 38.824C139.916 38.736 140.1 38.612 140.26 38.452C140.428 38.292 140.56 38.096 140.656 37.864C140.752 37.624 140.8 37.356 140.8 37.06C140.8 36.764 140.752 36.5 140.656 36.268C140.56 36.028 140.428 35.828 140.26 35.668C140.1 35.508 139.916 35.384 139.708 35.296C139.5 35.208 139.284 35.164 139.06 35.164C138.836 35.164 138.62 35.208 138.412 35.296C138.204 35.384 138.016 35.508 137.848 35.668C137.688 35.828 137.56 36.028 137.464 36.268C137.368 36.5 137.32 36.764 137.32 37.06C137.32 37.356 137.368 37.624 137.464 37.864C137.56 38.096 137.688 38.292 137.848 38.452C138.016 38.612 138.204 38.736 138.412 38.824C138.62 38.912 138.836 38.956 139.06 38.956ZM147.902 40.192C147.558 40.192 147.222 40.14 146.894 40.036C146.574 39.94 146.274 39.792 145.994 39.592C145.722 39.392 145.482 39.144 145.274 38.848C145.066 38.552 144.906 38.208 144.794 37.816L146.09 37.288C146.146 37.512 146.226 37.724 146.33 37.924C146.442 38.116 146.574 38.284 146.726 38.428C146.886 38.572 147.062 38.688 147.254 38.776C147.454 38.856 147.674 38.896 147.914 38.896C148.114 38.896 148.306 38.872 148.49 38.824C148.674 38.768 148.834 38.688 148.97 38.584C149.106 38.48 149.214 38.352 149.294 38.2C149.382 38.048 149.426 37.872 149.426 37.672C149.426 37.496 149.394 37.336 149.33 37.192C149.266 37.048 149.166 36.916 149.03 36.796C148.894 36.676 148.714 36.564 148.49 36.46C148.266 36.348 147.998 36.236 147.686 36.124L147.146 35.932C146.914 35.852 146.674 35.748 146.426 35.62C146.186 35.484 145.966 35.324 145.766 35.14C145.574 34.948 145.414 34.724 145.286 34.468C145.166 34.212 145.106 33.912 145.106 33.568C145.106 33.248 145.17 32.948 145.298 32.668C145.434 32.38 145.622 32.128 145.862 31.912C146.102 31.696 146.386 31.528 146.714 31.408C147.05 31.28 147.418 31.216 147.818 31.216C148.234 31.216 148.598 31.276 148.91 31.396C149.23 31.508 149.498 31.652 149.714 31.828C149.93 32.004 150.102 32.2 150.23 32.416C150.366 32.624 150.466 32.82 150.53 33.004L149.306 33.52C149.266 33.4 149.206 33.28 149.126 33.16C149.054 33.032 148.958 32.92 148.838 32.824C148.718 32.728 148.574 32.648 148.406 32.584C148.246 32.52 148.058 32.488 147.842 32.488C147.65 32.488 147.47 32.516 147.302 32.572C147.134 32.62 146.986 32.692 146.858 32.788C146.738 32.884 146.642 32.996 146.57 33.124C146.498 33.252 146.462 33.392 146.462 33.544C146.462 33.848 146.586 34.096 146.834 34.288C147.09 34.472 147.462 34.648 147.95 34.816L148.49 35.008C148.826 35.12 149.134 35.252 149.414 35.404C149.694 35.556 149.938 35.74 150.146 35.956C150.354 36.164 150.514 36.408 150.626 36.688C150.746 36.968 150.806 37.292 150.806 37.66C150.806 38.108 150.714 38.492 150.53 38.812C150.354 39.124 150.126 39.384 149.846 39.592C149.566 39.8 149.254 39.952 148.91 40.048C148.566 40.144 148.23 40.192 147.902 40.192ZM157.279 38.596C157.031 39.052 156.679 39.432 156.223 39.736C155.767 40.04 155.207 40.192 154.543 40.192C154.103 40.192 153.695 40.116 153.319 39.964C152.951 39.804 152.631 39.584 152.359 39.304C152.087 39.024 151.875 38.696 151.723 38.32C151.571 37.936 151.495 37.516 151.495 37.06C151.495 36.636 151.567 36.236 151.711 35.86C151.855 35.476 152.055 35.144 152.311 34.864C152.575 34.576 152.891 34.348 153.259 34.18C153.627 34.012 154.035 33.928 154.483 33.928C154.939 33.928 155.343 34.004 155.695 34.156C156.055 34.308 156.359 34.52 156.607 34.792C156.855 35.064 157.043 35.392 157.171 35.776C157.307 36.16 157.375 36.58 157.375 37.036C157.375 37.076 157.375 37.112 157.375 37.144C157.367 37.184 157.363 37.22 157.363 37.252C157.355 37.284 157.351 37.316 157.351 37.348H152.827C152.851 37.628 152.919 37.872 153.031 38.08C153.143 38.288 153.279 38.46 153.439 38.596C153.607 38.732 153.791 38.832 153.991 38.896C154.191 38.96 154.387 38.992 154.579 38.992C154.963 38.992 155.279 38.9 155.527 38.716C155.775 38.532 155.979 38.304 156.139 38.032L157.279 38.596ZM156.043 36.328C156.027 36.208 155.987 36.076 155.923 35.932C155.867 35.78 155.775 35.644 155.647 35.524C155.527 35.396 155.367 35.288 155.167 35.2C154.975 35.112 154.739 35.068 154.459 35.068C154.075 35.068 153.743 35.184 153.463 35.416C153.191 35.64 153.007 35.944 152.911 36.328H156.043ZM158.262 34.12H159.522V35.008H159.594C159.666 34.856 159.762 34.716 159.882 34.588C160.01 34.452 160.15 34.34 160.302 34.252C160.462 34.156 160.626 34.084 160.794 34.036C160.97 33.98 161.138 33.952 161.298 33.952C161.49 33.952 161.654 33.968 161.79 34C161.926 34.032 162.05 34.076 162.162 34.132L161.778 35.368C161.69 35.328 161.59 35.3 161.478 35.284C161.374 35.26 161.246 35.248 161.094 35.248C160.878 35.248 160.678 35.292 160.494 35.38C160.318 35.468 160.162 35.588 160.026 35.74C159.89 35.892 159.782 36.072 159.702 36.28C159.63 36.488 159.594 36.708 159.594 36.94V40H158.262V34.12ZM162.253 34.12H163.753L165.337 38.272H165.397L167.017 34.12H168.481L166.021 40H164.689L162.253 34.12ZM169.853 33.076C169.597 33.076 169.381 32.988 169.205 32.812C169.037 32.636 168.953 32.424 168.953 32.176C168.953 31.928 169.037 31.716 169.205 31.54C169.381 31.364 169.597 31.276 169.853 31.276C170.101 31.276 170.309 31.364 170.477 31.54C170.653 31.716 170.741 31.928 170.741 32.176C170.741 32.424 170.653 32.636 170.477 32.812C170.309 32.988 170.101 33.076 169.853 33.076ZM169.181 40V34.12H170.513V40H169.181ZM177.213 38.5C177.101 38.732 176.961 38.952 176.793 39.16C176.633 39.36 176.441 39.54 176.217 39.7C176.001 39.852 175.749 39.972 175.461 40.06C175.173 40.148 174.857 40.192 174.513 40.192C174.065 40.192 173.653 40.116 173.277 39.964C172.901 39.804 172.577 39.584 172.305 39.304C172.033 39.024 171.821 38.692 171.669 38.308C171.517 37.924 171.441 37.508 171.441 37.06C171.441 36.612 171.517 36.196 171.669 35.812C171.821 35.428 172.033 35.096 172.305 34.816C172.577 34.536 172.901 34.32 173.277 34.168C173.653 34.008 174.065 33.928 174.513 33.928C174.857 33.928 175.169 33.972 175.449 34.06C175.737 34.148 175.989 34.272 176.205 34.432C176.429 34.584 176.621 34.764 176.781 34.972C176.941 35.172 177.069 35.384 177.165 35.608L175.941 36.124C175.805 35.82 175.617 35.584 175.377 35.416C175.137 35.248 174.833 35.164 174.465 35.164C174.241 35.164 174.025 35.212 173.817 35.308C173.617 35.396 173.437 35.524 173.277 35.692C173.125 35.852 173.001 36.048 172.905 36.28C172.817 36.512 172.773 36.772 172.773 37.06C172.773 37.348 172.817 37.608 172.905 37.84C173.001 38.072 173.125 38.272 173.277 38.44C173.437 38.6 173.617 38.728 173.817 38.824C174.025 38.912 174.241 38.956 174.465 38.956C174.833 38.956 175.145 38.872 175.401 38.704C175.665 38.528 175.869 38.288 176.013 37.984L177.213 38.5ZM183.445 38.596C183.197 39.052 182.845 39.432 182.389 39.736C181.933 40.04 181.373 40.192 180.709 40.192C180.269 40.192 179.861 40.116 179.485 39.964C179.117 39.804 178.797 39.584 178.525 39.304C178.253 39.024 178.041 38.696 177.889 38.32C177.737 37.936 177.661 37.516 177.661 37.06C177.661 36.636 177.733 36.236 177.877 35.86C178.021 35.476 178.221 35.144 178.477 34.864C178.741 34.576 179.057 34.348 179.425 34.18C179.793 34.012 180.201 33.928 180.649 33.928C181.105 33.928 181.509 34.004 181.861 34.156C182.221 34.308 182.525 34.52 182.773 34.792C183.021 35.064 183.209 35.392 183.337 35.776C183.473 36.16 183.541 36.58 183.541 37.036C183.541 37.076 183.541 37.112 183.541 37.144C183.533 37.184 183.529 37.22 183.529 37.252C183.521 37.284 183.517 37.316 183.517 37.348H178.993C179.017 37.628 179.085 37.872 179.197 38.08C179.309 38.288 179.445 38.46 179.605 38.596C179.773 38.732 179.957 38.832 180.157 38.896C180.357 38.96 180.553 38.992 180.745 38.992C181.129 38.992 181.445 38.9 181.693 38.716C181.941 38.532 182.145 38.304 182.305 38.032L183.445 38.596ZM182.209 36.328C182.193 36.208 182.153 36.076 182.089 35.932C182.033 35.78 181.941 35.644 181.813 35.524C181.693 35.396 181.533 35.288 181.333 35.2C181.141 35.112 180.905 35.068 180.625 35.068C180.241 35.068 179.909 35.184 179.629 35.416C179.357 35.64 179.173 35.944 179.077 36.328H182.209ZM186.718 40.192C186.358 40.192 186.034 40.144 185.746 40.048C185.458 39.952 185.206 39.828 184.99 39.676C184.774 39.516 184.59 39.336 184.438 39.136C184.294 38.936 184.182 38.728 184.102 38.512L185.302 38.008C185.438 38.352 185.634 38.608 185.89 38.776C186.146 38.936 186.422 39.016 186.718 39.016C187.054 39.016 187.318 38.948 187.51 38.812C187.702 38.676 187.798 38.524 187.798 38.356C187.798 38.188 187.726 38.044 187.582 37.924C187.438 37.796 187.166 37.684 186.766 37.588L185.926 37.384C185.742 37.344 185.554 37.284 185.362 37.204C185.178 37.116 185.006 37.008 184.846 36.88C184.686 36.744 184.554 36.584 184.45 36.4C184.354 36.208 184.306 35.984 184.306 35.728C184.306 35.44 184.366 35.184 184.486 34.96C184.614 34.736 184.786 34.548 185.002 34.396C185.218 34.244 185.466 34.128 185.746 34.048C186.034 33.968 186.338 33.928 186.658 33.928C186.922 33.928 187.174 33.956 187.414 34.012C187.662 34.068 187.89 34.152 188.098 34.264C188.306 34.376 188.49 34.52 188.65 34.696C188.818 34.864 188.95 35.064 189.046 35.296L187.87 35.788C187.758 35.532 187.582 35.348 187.342 35.236C187.102 35.116 186.858 35.056 186.61 35.056C186.498 35.056 186.382 35.072 186.262 35.104C186.15 35.128 186.046 35.168 185.95 35.224C185.862 35.272 185.786 35.336 185.722 35.416C185.666 35.496 185.638 35.584 185.638 35.68C185.638 35.84 185.706 35.968 185.842 36.064C185.986 36.152 186.202 36.232 186.49 36.304L187.39 36.532C187.998 36.684 188.442 36.916 188.722 37.228C189.01 37.532 189.154 37.892 189.154 38.308C189.154 38.564 189.094 38.804 188.974 39.028C188.862 39.252 188.698 39.452 188.482 39.628C188.266 39.804 188.006 39.94 187.702 40.036C187.406 40.14 187.078 40.192 186.718 40.192ZM192.7 31.408H194.056V38.704H197.74V40H192.7V31.408ZM199.344 33.076C199.088 33.076 198.872 32.988 198.696 32.812C198.528 32.636 198.444 32.424 198.444 32.176C198.444 31.928 198.528 31.716 198.696 31.54C198.872 31.364 199.088 31.276 199.344 31.276C199.592 31.276 199.8 31.364 199.968 31.54C200.144 31.716 200.232 31.928 200.232 32.176C200.232 32.424 200.144 32.636 199.968 32.812C199.8 32.988 199.592 33.076 199.344 33.076ZM198.672 40V34.12H200.004V40H198.672ZM201.327 34.12H202.587V34.912H202.659C202.843 34.624 203.099 34.388 203.427 34.204C203.755 34.02 204.103 33.928 204.471 33.928C204.911 33.928 205.287 34.032 205.599 34.24C205.919 34.44 206.151 34.704 206.295 35.032C206.495 34.72 206.763 34.46 207.099 34.252C207.435 34.036 207.839 33.928 208.311 33.928C208.671 33.928 208.983 33.988 209.247 34.108C209.511 34.22 209.727 34.38 209.895 34.588C210.071 34.796 210.203 35.048 210.291 35.344C210.379 35.632 210.423 35.956 210.423 36.316V40H209.091V36.544C209.091 36.032 208.991 35.676 208.791 35.476C208.599 35.268 208.315 35.164 207.939 35.164C207.723 35.164 207.527 35.212 207.351 35.308C207.183 35.404 207.039 35.536 206.919 35.704C206.799 35.864 206.707 36.052 206.643 36.268C206.579 36.484 206.547 36.712 206.547 36.952V40H205.215V36.544C205.215 36.032 205.111 35.676 204.903 35.476C204.703 35.268 204.411 35.164 204.027 35.164C203.819 35.164 203.631 35.212 203.463 35.308C203.295 35.404 203.151 35.536 203.031 35.704C202.911 35.864 202.819 36.052 202.755 36.268C202.691 36.484 202.659 36.712 202.659 36.952V40H201.327V34.12ZM212.369 33.076C212.113 33.076 211.897 32.988 211.721 32.812C211.553 32.636 211.469 32.424 211.469 32.176C211.469 31.928 211.553 31.716 211.721 31.54C211.897 31.364 212.113 31.276 212.369 31.276C212.617 31.276 212.825 31.364 212.993 31.54C213.169 31.716 213.257 31.928 213.257 32.176C213.257 32.424 213.169 32.636 212.993 32.812C212.825 32.988 212.617 33.076 212.369 33.076ZM211.697 40V34.12H213.029V40H211.697ZM214.942 35.296H213.91V34.12H214.942V32.32H216.274V34.12H217.726V35.296H216.274V37.912C216.274 38.056 216.29 38.188 216.322 38.308C216.354 38.428 216.402 38.528 216.466 38.608C216.602 38.76 216.774 38.836 216.982 38.836C217.11 38.836 217.21 38.828 217.282 38.812C217.354 38.788 217.43 38.756 217.51 38.716L217.918 39.892C217.75 39.956 217.574 40.004 217.39 40.036C217.206 40.076 216.998 40.096 216.766 40.096C216.486 40.096 216.238 40.052 216.022 39.964C215.806 39.876 215.618 39.756 215.458 39.604C215.114 39.26 214.942 38.792 214.942 38.2V35.296ZM224.098 38.596C223.85 39.052 223.498 39.432 223.042 39.736C222.586 40.04 222.026 40.192 221.362 40.192C220.922 40.192 220.514 40.116 220.138 39.964C219.77 39.804 219.45 39.584 219.178 39.304C218.906 39.024 218.694 38.696 218.542 38.32C218.39 37.936 218.314 37.516 218.314 37.06C218.314 36.636 218.386 36.236 218.53 35.86C218.674 35.476 218.874 35.144 219.13 34.864C219.394 34.576 219.71 34.348 220.078 34.18C220.446 34.012 220.854 33.928 221.302 33.928C221.758 33.928 222.162 34.004 222.514 34.156C222.874 34.308 223.178 34.52 223.426 34.792C223.674 35.064 223.862 35.392 223.99 35.776C224.126 36.16 224.194 36.58 224.194 37.036C224.194 37.076 224.194 37.112 224.194 37.144C224.186 37.184 224.182 37.22 224.182 37.252C224.174 37.284 224.17 37.316 224.17 37.348H219.646C219.67 37.628 219.738 37.872 219.85 38.08C219.962 38.288 220.098 38.46 220.258 38.596C220.426 38.732 220.61 38.832 220.81 38.896C221.01 38.96 221.206 38.992 221.398 38.992C221.782 38.992 222.098 38.9 222.346 38.716C222.594 38.532 222.798 38.304 222.958 38.032L224.098 38.596ZM222.862 36.328C222.846 36.208 222.806 36.076 222.742 35.932C222.686 35.78 222.594 35.644 222.466 35.524C222.346 35.396 222.186 35.288 221.986 35.2C221.794 35.112 221.558 35.068 221.278 35.068C220.894 35.068 220.562 35.184 220.282 35.416C220.01 35.64 219.826 35.944 219.73 36.328H222.862ZM229.592 39.244H229.52C229.36 39.5 229.116 39.724 228.788 39.916C228.46 40.1 228.068 40.192 227.612 40.192C227.236 40.192 226.876 40.116 226.532 39.964C226.196 39.804 225.9 39.584 225.644 39.304C225.388 39.024 225.184 38.696 225.032 38.32C224.88 37.936 224.804 37.516 224.804 37.06C224.804 36.604 224.88 36.188 225.032 35.812C225.184 35.428 225.388 35.096 225.644 34.816C225.9 34.536 226.196 34.32 226.532 34.168C226.876 34.008 227.236 33.928 227.612 33.928C228.068 33.928 228.46 34.024 228.788 34.216C229.116 34.4 229.36 34.62 229.52 34.876H229.592L229.52 34.06V31.408H230.852V40H229.592V39.244ZM227.864 38.956C228.088 38.956 228.304 38.912 228.512 38.824C228.728 38.736 228.912 38.612 229.064 38.452C229.224 38.292 229.352 38.096 229.448 37.864C229.544 37.624 229.592 37.356 229.592 37.06C229.592 36.764 229.544 36.5 229.448 36.268C229.352 36.028 229.224 35.828 229.064 35.668C228.912 35.508 228.728 35.384 228.512 35.296C228.304 35.208 228.088 35.164 227.864 35.164C227.632 35.164 227.412 35.208 227.204 35.296C226.996 35.384 226.812 35.512 226.652 35.68C226.5 35.84 226.376 36.036 226.28 36.268C226.184 36.5 226.136 36.764 226.136 37.06C226.136 37.356 226.184 37.62 226.28 37.852C226.376 38.084 226.5 38.284 226.652 38.452C226.812 38.612 226.996 38.736 227.204 38.824C227.412 38.912 227.632 38.956 227.864 38.956Z" fill="black"/>
<path d="M88.43 53V51.95C88.8167 51.57 89.1733 51.2133 89.5 50.88C89.64 50.74 89.78 50.5967 89.92 50.45C90.0667 50.3033 90.2033 50.1667 90.33 50.04C90.4567 49.9067 90.5733 49.7867 90.68 49.68C90.7867 49.5667 90.87 49.4767 90.93 49.41C91.0567 49.2633 91.1667 49.1333 91.26 49.02C91.3533 48.9067 91.43 48.7967 91.49 48.69C91.55 48.5833 91.5933 48.4767 91.62 48.37C91.6533 48.2633 91.67 48.1433 91.67 48.01C91.67 47.89 91.6433 47.7733 91.59 47.66C91.5433 47.5467 91.4733 47.4467 91.38 47.36C91.2867 47.2667 91.17 47.1933 91.03 47.14C90.8967 47.08 90.74 47.05 90.56 47.05C90.3867 47.05 90.2333 47.08 90.1 47.14C89.9733 47.1933 89.8633 47.2667 89.77 47.36C89.6767 47.4467 89.6 47.5433 89.54 47.65C89.48 47.75 89.4367 47.85 89.41 47.95L88.4 47.54C88.4467 47.38 88.5267 47.21 88.64 47.03C88.7533 46.85 88.9 46.6833 89.08 46.53C89.26 46.3767 89.4733 46.25 89.72 46.15C89.9733 46.05 90.26 46 90.58 46C90.92 46 91.2267 46.0533 91.5 46.16C91.7733 46.2667 92.0067 46.41 92.2 46.59C92.3933 46.77 92.54 46.98 92.64 47.22C92.7467 47.46 92.8 47.7167 92.8 47.99C92.8 48.2033 92.7667 48.41 92.7 48.61C92.64 48.81 92.5567 49.0033 92.45 49.19C92.35 49.37 92.2333 49.54 92.1 49.7C91.9733 49.86 91.8433 50.0067 91.71 50.14C91.6767 50.1733 91.6267 50.2233 91.56 50.29C91.4933 50.3567 91.4133 50.4367 91.32 50.53C91.2333 50.6167 91.1367 50.71 91.03 50.81C90.9233 50.9167 90.8167 51.0233 90.71 51.13L89.9 51.94L89.91 51.98H92.88V53H88.43ZM93.7823 45.84H94.8923V49.99H94.9323L96.8123 48.1H98.2023V48.16L96.3423 50L98.3223 52.94V53H97.0023L95.5523 50.77L94.8923 51.42V53H93.7823V45.84ZM98.7409 48.1H99.7909V48.76H99.8509C100.004 48.52 100.218 48.3233 100.491 48.17C100.764 48.0167 101.054 47.94 101.361 47.94C101.728 47.94 102.041 48.0267 102.301 48.2C102.568 48.3667 102.761 48.5867 102.881 48.86C103.048 48.6 103.271 48.3833 103.551 48.21C103.831 48.03 104.168 47.94 104.561 47.94C104.861 47.94 105.121 47.99 105.341 48.09C105.561 48.1833 105.741 48.3167 105.881 48.49C106.028 48.6633 106.138 48.8733 106.211 49.12C106.284 49.36 106.321 49.63 106.321 49.93V53H105.211V50.12C105.211 49.6933 105.128 49.3967 104.961 49.23C104.801 49.0567 104.564 48.97 104.251 48.97C104.071 48.97 103.908 49.01 103.761 49.09C103.621 49.17 103.501 49.28 103.401 49.42C103.301 49.5533 103.224 49.71 103.171 49.89C103.118 50.07 103.091 50.26 103.091 50.46V53H101.981V50.12C101.981 49.6933 101.894 49.3967 101.721 49.23C101.554 49.0567 101.311 48.97 100.991 48.97C100.818 48.97 100.661 49.01 100.521 49.09C100.381 49.17 100.261 49.28 100.161 49.42C100.061 49.5533 99.9842 49.71 99.9309 49.89C99.8775 50.07 99.8509 50.26 99.8509 50.46V53H98.7409V48.1ZM112.5 52.4H112.44C112.294 52.5933 112.104 52.77 111.87 52.93C111.637 53.0833 111.34 53.16 110.98 53.16C110.72 53.16 110.477 53.1167 110.25 53.03C110.024 52.95 109.827 52.8367 109.66 52.69C109.494 52.5367 109.36 52.36 109.26 52.16C109.167 51.9533 109.12 51.7267 109.12 51.48C109.12 51.22 109.17 50.9867 109.27 50.78C109.377 50.5733 109.52 50.4 109.7 50.26C109.887 50.12 110.107 50.0133 110.36 49.94C110.614 49.86 110.887 49.82 111.18 49.82C111.507 49.82 111.78 49.8533 112 49.92C112.22 49.98 112.387 50.0367 112.5 50.09V49.9C112.5 49.7533 112.467 49.6167 112.4 49.49C112.34 49.3633 112.254 49.2567 112.14 49.17C112.034 49.0767 111.91 49.0067 111.77 48.96C111.63 48.9067 111.484 48.88 111.33 48.88C111.084 48.88 110.86 48.93 110.66 49.03C110.467 49.1233 110.294 49.2767 110.14 49.49L109.26 48.91C109.494 48.59 109.784 48.35 110.13 48.19C110.477 48.0233 110.87 47.94 111.31 47.94C112.037 47.94 112.597 48.12 112.99 48.48C113.39 48.84 113.59 49.3533 113.59 50.02V53H112.5V52.4ZM112.5 50.96C112.354 50.8733 112.19 50.8033 112.01 50.75C111.83 50.6967 111.624 50.67 111.39 50.67C111.044 50.67 110.767 50.75 110.56 50.91C110.354 51.07 110.25 51.2633 110.25 51.49C110.25 51.61 110.277 51.7167 110.33 51.81C110.384 51.8967 110.45 51.9733 110.53 52.04C110.617 52.1067 110.714 52.1567 110.82 52.19C110.934 52.2233 111.047 52.24 111.16 52.24C111.34 52.24 111.51 52.2067 111.67 52.14C111.837 52.0667 111.98 51.9733 112.1 51.86C112.22 51.74 112.317 51.6033 112.39 51.45C112.464 51.2967 112.5 51.1333 112.5 50.96ZM113.917 48.1H115.127L116.077 51.49H116.117L117.217 48.1H118.367L119.457 51.49H119.497L120.437 48.1H121.627L120.057 53H118.887L117.777 49.57H117.737L116.657 53H115.487L113.917 48.1ZM125.132 52.4H125.072C124.926 52.5933 124.736 52.77 124.502 52.93C124.269 53.0833 123.972 53.16 123.612 53.16C123.352 53.16 123.109 53.1167 122.882 53.03C122.656 52.95 122.459 52.8367 122.292 52.69C122.126 52.5367 121.992 52.36 121.892 52.16C121.799 51.9533 121.752 51.7267 121.752 51.48C121.752 51.22 121.802 50.9867 121.902 50.78C122.009 50.5733 122.152 50.4 122.332 50.26C122.519 50.12 122.739 50.0133 122.992 49.94C123.246 49.86 123.519 49.82 123.812 49.82C124.139 49.82 124.412 49.8533 124.632 49.92C124.852 49.98 125.019 50.0367 125.132 50.09V49.9C125.132 49.7533 125.099 49.6167 125.032 49.49C124.972 49.3633 124.886 49.2567 124.772 49.17C124.666 49.0767 124.542 49.0067 124.402 48.96C124.262 48.9067 124.116 48.88 123.962 48.88C123.716 48.88 123.492 48.93 123.292 49.03C123.099 49.1233 122.926 49.2767 122.772 49.49L121.892 48.91C122.126 48.59 122.416 48.35 122.762 48.19C123.109 48.0233 123.502 47.94 123.942 47.94C124.669 47.94 125.229 48.12 125.622 48.48C126.022 48.84 126.222 49.3533 126.222 50.02V53H125.132V52.4ZM125.132 50.96C124.986 50.8733 124.822 50.8033 124.642 50.75C124.462 50.6967 124.256 50.67 124.022 50.67C123.676 50.67 123.399 50.75 123.192 50.91C122.986 51.07 122.882 51.2633 122.882 51.49C122.882 51.61 122.909 51.7167 122.962 51.81C123.016 51.8967 123.082 51.9733 123.162 52.04C123.249 52.1067 123.346 52.1567 123.452 52.19C123.566 52.2233 123.679 52.24 123.792 52.24C123.972 52.24 124.142 52.2067 124.302 52.14C124.469 52.0667 124.612 51.9733 124.732 51.86C124.852 51.74 124.949 51.6033 125.022 51.45C125.096 51.2967 125.132 51.1333 125.132 50.96ZM128.589 52.72L126.549 48.1H127.789L129.139 51.35H129.189L130.499 48.1H131.729L128.659 55.16H127.479L128.589 52.72Z" fill="#979797"/>
<path d="M96.0091 61.0475L97.0358 63.1009C97.1758 63.3867 97.5491 63.6609 97.8641 63.7134L99.7249 64.0225C100.915 64.2209 101.195 65.0842 100.337 65.9359L98.8908 67.3825C98.6458 67.6275 98.5116 68.1 98.5874 68.4384L99.0016 70.2292C99.3283 71.6467 98.5758 72.195 97.3216 71.4542L95.5774 70.4217C95.2624 70.235 94.7433 70.235 94.4224 70.4217L92.6783 71.4542C91.4299 72.195 90.6716 71.6409 90.9983 70.2292L91.4124 68.4384C91.4883 68.1 91.3541 67.6275 91.1091 67.3825L89.6624 65.9359C88.8108 65.0842 89.0849 64.2209 90.2749 64.0225L92.1358 63.7134C92.4449 63.6609 92.8183 63.3867 92.9583 63.1009L93.9849 61.0475C94.5449 59.9334 95.4549 59.9334 96.0091 61.0475Z" fill="#FFD13C"/>
<path d="M111.009 61.0475L112.036 63.1009C112.176 63.3867 112.549 63.6609 112.864 63.7134L114.725 64.0225C115.915 64.2209 116.195 65.0842 115.337 65.9359L113.891 67.3825C113.646 67.6275 113.512 68.1 113.587 68.4384L114.002 70.2292C114.328 71.6467 113.576 72.195 112.322 71.4542L110.577 70.4217C110.262 70.235 109.743 70.235 109.422 70.4217L107.678 71.4542C106.43 72.195 105.672 71.6409 105.998 70.2292L106.412 68.4384C106.488 68.1 106.354 67.6275 106.109 67.3825L104.662 65.9359C103.811 65.0842 104.085 64.2209 105.275 64.0225L107.136 63.7134C107.445 63.6609 107.818 63.3867 107.958 63.1009L108.985 61.0475C109.545 59.9334 110.455 59.9334 111.009 61.0475Z" fill="#FFD13C"/>
<path d="M126.009 61.0475L127.036 63.1009C127.176 63.3867 127.549 63.6609 127.864 63.7134L129.725 64.0225C130.915 64.2209 131.195 65.0842 130.337 65.9359L128.891 67.3825C128.646 67.6275 128.512 68.1 128.587 68.4384L129.002 70.2292C129.328 71.6467 128.576 72.195 127.322 71.4542L125.577 70.4217C125.262 70.235 124.743 70.235 124.422 70.4217L122.678 71.4542C121.43 72.195 120.672 71.6409 120.998 70.2292L121.412 68.4384C121.488 68.1 121.354 67.6275 121.109 67.3825L119.662 65.9359C118.811 65.0842 119.085 64.2209 120.275 64.0225L122.136 63.7134C122.445 63.6609 122.818 63.3867 122.958 63.1009L123.985 61.0475C124.545 59.9334 125.455 59.9334 126.009 61.0475Z" fill="#FFD13C"/>
<path d="M141.009 61.0475L142.036 63.1009C142.176 63.3867 142.549 63.6609 142.864 63.7134L144.725 64.0225C145.915 64.2209 146.195 65.0842 145.337 65.9359L143.891 67.3825C143.646 67.6275 143.512 68.1 143.587 68.4384L144.002 70.2292C144.328 71.6467 143.576 72.195 142.322 71.4542L140.577 70.4217C140.262 70.235 139.743 70.235 139.422 70.4217L137.678 71.4542C136.43 72.195 135.672 71.6409 135.998 70.2292L136.412 68.4384C136.488 68.1 136.354 67.6275 136.109 67.3825L134.662 65.9359C133.811 65.0842 134.085 64.2209 135.275 64.0225L137.136 63.7134C137.445 63.6609 137.818 63.3867 137.958 63.1009L138.985 61.0475C139.545 59.9334 140.455 59.9334 141.009 61.0475Z" fill="#FFD13C"/>
<path d="M156.009 61.0475L157.036 63.1009C157.176 63.3867 157.549 63.6609 157.864 63.7134L159.725 64.0225C160.915 64.2209 161.195 65.0842 160.337 65.9359L158.891 67.3825C158.646 67.6275 158.512 68.1 158.587 68.4384L159.002 70.2292C159.328 71.6467 158.576 72.195 157.322 71.4542L155.577 70.4217C155.262 70.235 154.743 70.235 154.422 70.4217L152.678 71.4542C151.43 72.195 150.672 71.6409 150.998 70.2292L151.412 68.4384C151.488 68.1 151.354 67.6275 151.109 67.3825L149.662 65.9359C148.811 65.0842 149.085 64.2209 150.275 64.0225L152.136 63.7134C152.445 63.6609 152.818 63.3867 152.958 63.1009L153.985 61.0475C154.545 59.9334 155.455 59.9334 156.009 61.0475Z" stroke="#FFD13C" stroke-linecap="round" stroke-linejoin="round"/>
<path d="M192.83 70.16C192.543 70.16 192.263 70.1167 191.99 70.03C191.723 69.95 191.473 69.8267 191.24 69.66C191.013 69.4933 190.813 69.2867 190.64 69.04C190.467 68.7933 190.333 68.5067 190.24 68.18L191.32 67.74C191.367 67.9267 191.433 68.1033 191.52 68.27C191.613 68.43 191.723 68.57 191.85 68.69C191.983 68.81 192.13 68.9067 192.29 68.98C192.457 69.0467 192.64 69.08 192.84 69.08C193.007 69.08 193.167 69.06 193.32 69.02C193.473 68.9733 193.607 68.9067 193.72 68.82C193.833 68.7333 193.923 68.6267 193.99 68.5C194.063 68.3733 194.1 68.2267 194.1 68.06C194.1 67.9133 194.073 67.78 194.02 67.66C193.967 67.54 193.883 67.43 193.77 67.33C193.657 67.23 193.507 67.1367 193.32 67.05C193.133 66.9567 192.91 66.8633 192.65 66.77L192.2 66.61C192.007 66.5433 191.807 66.4567 191.6 66.35C191.4 66.2367 191.217 66.1033 191.05 65.95C190.89 65.79 190.757 65.6033 190.65 65.39C190.55 65.1767 190.5 64.9267 190.5 64.64C190.5 64.3733 190.553 64.1233 190.66 63.89C190.773 63.65 190.93 63.44 191.13 63.26C191.33 63.08 191.567 62.94 191.84 62.84C192.12 62.7333 192.427 62.68 192.76 62.68C193.107 62.68 193.41 62.73 193.67 62.83C193.937 62.9233 194.16 63.0433 194.34 63.19C194.52 63.3367 194.663 63.5 194.77 63.68C194.883 63.8533 194.967 64.0167 195.02 64.17L194 64.6C193.967 64.5 193.917 64.4 193.85 64.3C193.79 64.1933 193.71 64.1 193.61 64.02C193.51 63.94 193.39 63.8733 193.25 63.82C193.117 63.7667 192.96 63.74 192.78 63.74C192.62 63.74 192.47 63.7633 192.33 63.81C192.19 63.85 192.067 63.91 191.96 63.99C191.86 64.07 191.78 64.1633 191.72 64.27C191.66 64.3767 191.63 64.4933 191.63 64.62C191.63 64.8733 191.733 65.08 191.94 65.24C192.153 65.3933 192.463 65.54 192.87 65.68L193.32 65.84C193.6 65.9333 193.857 66.0433 194.09 66.17C194.323 66.2967 194.527 66.45 194.7 66.63C194.873 66.8033 195.007 67.0067 195.1 67.24C195.2 67.4733 195.25 67.7433 195.25 68.05C195.25 68.4233 195.173 68.7433 195.02 69.01C194.873 69.27 194.683 69.4867 194.45 69.66C194.217 69.8333 193.957 69.96 193.67 70.04C193.383 70.12 193.103 70.16 192.83 70.16ZM200.645 68.83C200.438 69.21 200.145 69.5267 199.765 69.78C199.385 70.0333 198.918 70.16 198.365 70.16C197.998 70.16 197.658 70.0967 197.345 69.97C197.038 69.8367 196.771 69.6533 196.545 69.42C196.318 69.1867 196.141 68.9133 196.015 68.6C195.888 68.28 195.825 67.93 195.825 67.55C195.825 67.1967 195.885 66.8633 196.005 66.55C196.125 66.23 196.291 65.9533 196.505 65.72C196.725 65.48 196.988 65.29 197.295 65.15C197.601 65.01 197.941 64.94 198.315 64.94C198.695 64.94 199.031 65.0033 199.325 65.13C199.625 65.2567 199.878 65.4333 200.085 65.66C200.291 65.8867 200.448 66.16 200.555 66.48C200.668 66.8 200.725 67.15 200.725 67.53C200.725 67.5633 200.725 67.5933 200.725 67.62C200.718 67.6533 200.715 67.6833 200.715 67.71C200.708 67.7367 200.705 67.7633 200.705 67.79H196.935C196.955 68.0233 197.011 68.2267 197.105 68.4C197.198 68.5733 197.311 68.7167 197.445 68.83C197.585 68.9433 197.738 69.0267 197.905 69.08C198.071 69.1333 198.235 69.16 198.395 69.16C198.715 69.16 198.978 69.0833 199.185 68.93C199.391 68.7767 199.561 68.5867 199.695 68.36L200.645 68.83ZM199.615 66.94C199.601 66.84 199.568 66.73 199.515 66.61C199.468 66.4833 199.391 66.37 199.285 66.27C199.185 66.1633 199.051 66.0733 198.885 66C198.725 65.9267 198.528 65.89 198.295 65.89C197.975 65.89 197.698 65.9867 197.465 66.18C197.238 66.3667 197.085 66.62 197.005 66.94H199.615ZM206.052 68.83C205.846 69.21 205.552 69.5267 205.172 69.78C204.792 70.0333 204.326 70.16 203.772 70.16C203.406 70.16 203.066 70.0967 202.752 69.97C202.446 69.8367 202.179 69.6533 201.952 69.42C201.726 69.1867 201.549 68.9133 201.422 68.6C201.296 68.28 201.232 67.93 201.232 67.55C201.232 67.1967 201.292 66.8633 201.412 66.55C201.532 66.23 201.699 65.9533 201.912 65.72C202.132 65.48 202.396 65.29 202.702 65.15C203.009 65.01 203.349 64.94 203.722 64.94C204.102 64.94 204.439 65.0033 204.732 65.13C205.032 65.2567 205.286 65.4333 205.492 65.66C205.699 65.8867 205.856 66.16 205.962 66.48C206.076 66.8 206.132 67.15 206.132 67.53C206.132 67.5633 206.132 67.5933 206.132 67.62C206.126 67.6533 206.122 67.6833 206.122 67.71C206.116 67.7367 206.112 67.7633 206.112 67.79H202.342C202.362 68.0233 202.419 68.2267 202.512 68.4C202.606 68.5733 202.719 68.7167 202.852 68.83C202.992 68.9433 203.146 69.0267 203.312 69.08C203.479 69.1333 203.642 69.16 203.802 69.16C204.122 69.16 204.386 69.0833 204.592 68.93C204.799 68.7767 204.969 68.5867 205.102 68.36L206.052 68.83ZM205.022 66.94C205.009 66.84 204.976 66.73 204.922 66.61C204.876 66.4833 204.799 66.37 204.692 66.27C204.592 66.1633 204.459 66.0733 204.292 66C204.132 65.9267 203.936 65.89 203.702 65.89C203.382 65.89 203.106 65.9867 202.872 66.18C202.646 66.3667 202.492 66.62 202.412 66.94H205.022ZM208.969 65.1H210.019V65.76H210.079C210.232 65.52 210.445 65.3233 210.719 65.17C210.992 65.0167 211.282 64.94 211.589 64.94C211.955 64.94 212.269 65.0267 212.529 65.2C212.795 65.3667 212.989 65.5867 213.109 65.86C213.275 65.6 213.499 65.3833 213.779 65.21C214.059 65.03 214.395 64.94 214.789 64.94C215.089 64.94 215.349 64.99 215.569 65.09C215.789 65.1833 215.969 65.3167 216.109 65.49C216.255 65.6633 216.365 65.8733 216.439 66.12C216.512 66.36 216.549 66.63 216.549 66.93V70H215.439V67.12C215.439 66.6933 215.355 66.3967 215.189 66.23C215.029 66.0567 214.792 65.97 214.479 65.97C214.299 65.97 214.135 66.01 213.989 66.09C213.849 66.17 213.729 66.28 213.629 66.42C213.529 66.5533 213.452 66.71 213.399 66.89C213.345 67.07 213.319 67.26 213.319 67.46V70H212.209V67.12C212.209 66.6933 212.122 66.3967 211.949 66.23C211.782 66.0567 211.539 65.97 211.219 65.97C211.045 65.97 210.889 66.01 210.749 66.09C210.609 66.17 210.489 66.28 210.389 66.42C210.289 66.5533 210.212 66.71 210.159 66.89C210.105 67.07 210.079 67.26 210.079 67.46V70H208.969V65.1ZM219.811 64.94C220.184 64.94 220.527 65.0067 220.841 65.14C221.154 65.2667 221.424 65.4467 221.651 65.68C221.877 65.9133 222.054 66.19 222.181 66.51C222.307 66.83 222.371 67.1767 222.371 67.55C222.371 67.9233 222.307 68.27 222.181 68.59C222.054 68.91 221.877 69.1867 221.651 69.42C221.424 69.6533 221.154 69.8367 220.841 69.97C220.527 70.0967 220.184 70.16 219.811 70.16C219.437 70.16 219.094 70.0967 218.781 69.97C218.467 69.8367 218.197 69.6533 217.971 69.42C217.744 69.1867 217.567 68.91 217.441 68.59C217.314 68.27 217.251 67.9233 217.251 67.55C217.251 67.1767 217.314 66.83 217.441 66.51C217.567 66.19 217.744 65.9133 217.971 65.68C218.197 65.4467 218.467 65.2667 218.781 65.14C219.094 65.0067 219.437 64.94 219.811 64.94ZM219.811 69.13C219.997 69.13 220.177 69.0933 220.351 69.02C220.524 68.9467 220.677 68.8433 220.811 68.71C220.951 68.5767 221.061 68.4133 221.141 68.22C221.221 68.02 221.261 67.7967 221.261 67.55C221.261 67.3033 221.221 67.0833 221.141 66.89C221.061 66.69 220.951 66.5233 220.811 66.39C220.677 66.2567 220.524 66.1533 220.351 66.08C220.177 66.0067 219.997 65.97 219.811 65.97C219.624 65.97 219.444 66.0067 219.271 66.08C219.097 66.1533 218.941 66.2567 218.801 66.39C218.667 66.5233 218.561 66.69 218.481 66.89C218.401 67.0833 218.361 67.3033 218.361 67.55C218.361 67.7967 218.401 68.02 218.481 68.22C218.561 68.4133 218.667 68.5767 218.801 68.71C218.941 68.8433 219.097 68.9467 219.271 69.02C219.444 69.0933 219.624 69.13 219.811 69.13ZM223.017 65.1H224.067V65.84H224.127C224.187 65.7133 224.267 65.5967 224.367 65.49C224.473 65.3767 224.59 65.2833 224.717 65.21C224.85 65.13 224.987 65.07 225.127 65.03C225.273 64.9833 225.413 64.96 225.547 64.96C225.707 64.96 225.843 64.9733 225.957 65C226.07 65.0267 226.173 65.0633 226.267 65.11L225.947 66.14C225.873 66.1067 225.79 66.0833 225.697 66.07C225.61 66.05 225.503 66.04 225.377 66.04C225.197 66.04 225.03 66.0767 224.877 66.15C224.73 66.2233 224.6 66.3233 224.487 66.45C224.373 66.5767 224.283 66.7267 224.217 66.9C224.157 67.0733 224.127 67.2567 224.127 67.45V70H223.017V65.1ZM231.002 68.83C230.795 69.21 230.502 69.5267 230.122 69.78C229.742 70.0333 229.275 70.16 228.722 70.16C228.355 70.16 228.015 70.0967 227.702 69.97C227.395 69.8367 227.128 69.6533 226.902 69.42C226.675 69.1867 226.498 68.9133 226.372 68.6C226.245 68.28 226.182 67.93 226.182 67.55C226.182 67.1967 226.242 66.8633 226.362 66.55C226.482 66.23 226.648 65.9533 226.862 65.72C227.082 65.48 227.345 65.29 227.652 65.15C227.958 65.01 228.298 64.94 228.672 64.94C229.052 64.94 229.388 65.0033 229.682 65.13C229.982 65.2567 230.235 65.4333 230.442 65.66C230.648 65.8867 230.805 66.16 230.912 66.48C231.025 66.8 231.082 67.15 231.082 67.53C231.082 67.5633 231.082 67.5933 231.082 67.62C231.075 67.6533 231.072 67.6833 231.072 67.71C231.065 67.7367 231.062 67.7633 231.062 67.79H227.292C227.312 68.0233 227.368 68.2267 227.462 68.4C227.555 68.5733 227.668 68.7167 227.802 68.83C227.942 68.9433 228.095 69.0267 228.262 69.08C228.428 69.1333 228.592 69.16 228.752 69.16C229.072 69.16 229.335 69.0833 229.542 68.93C229.748 68.7767 229.918 68.5867 230.052 68.36L231.002 68.83ZM229.972 66.94C229.958 66.84 229.925 66.73 229.872 66.61C229.825 66.4833 229.748 66.37 229.642 66.27C229.542 66.1633 229.408 66.0733 229.242 66C229.082 65.9267 228.885 65.89 228.652 65.89C228.332 65.89 228.055 65.9867 227.822 66.18C227.595 66.3667 227.442 66.62 227.362 66.94H229.972Z" fill="#A0A0A0"/>
</g>
<defs>
<filter id="filter0_dd_318_241" x="0" y="0" width="264" height="109" filterUnits="userSpaceOnUse" color-interpolation-filters="sRGB">
<feFlood flood-opacity="0" result="BackgroundImageFix"/>
<feColorMatrix in="SourceAlpha" type="matrix" values="0 0 0 0 0 0 0 0 0 0 0 0 0 0 0 0 0 0 127 0" result="hardAlpha"/>
<feMorphology radius="4" operator="dilate" in="SourceAlpha" result="effect1_dropShadow_318_241"/>
<feOffset dx="-2" dy="4"/>
<feGaussianBlur stdDeviation="10"/>
<feComposite in2="hardAlpha" operator="out"/>
<feColorMatrix type="matrix" values="0 0 0 0 0.1875 0 0 0 0 0.1875 0 0 0 0 0.1875 0 0 0 0.15 0"/>
<feBlend mode="normal" in2="BackgroundImageFix" result="effect1_dropShadow_318_241"/>
<feColorMatrix in="SourceAlpha" type="matrix" values="0 0 0 0 0 0 0 0 0 0 0 0 0 0 0 0 0 0 127 0" result="hardAlpha"/>
<feMorphology radius="2" operator="erode" in="SourceAlpha" result="effect2_dropShadow_318_241"/>
<feOffset dx="3"/>
<feGaussianBlur stdDeviation="10"/>
<feComposite in2="hardAlpha" operator="out"/>
<feColorMatrix type="matrix" values="0 0 0 0 0.188235 0 0 0 0 0.188235 0 0 0 0 0.188235 0 0 0 0.15 0"/>
<feBlend mode="normal" in2="effect1_dropShadow_318_241" result="effect2_dropShadow_318_241"/>
<feBlend mode="normal" in="SourceGraphic" in2="effect2_dropShadow_318_241" result="shape"/>
</filter>
</defs>
</svg>
