<svg width="295" height="119" viewBox="0 0 295 119" fill="none" xmlns="http://www.w3.org/2000/svg">
<g filter="url(#filter0_dd_279_294)">
<rect x="26" y="20" width="247" height="71" rx="10" fill="white"/>
<rect x="36" y="30.5" width="50" height="50" rx="5" fill="#F1CE6A"/>
<path d="M69.96 55.45C69.97 55.3 70 55.15 70 55V55.5L69.96 55.45ZM60 55C60 55.71 60.15 56.39 60.42 57H55V58C55 58.55 54.55 59 54 59H53C52.45 59 52 58.55 52 58V50L54.08 44C54.28 43.42 54.84 43 55.5 43H66.5C67.16 43 67.72 43.42 67.92 44L70 50V55C70 52.24 67.76 50 65 50C62.24 50 60 52.24 60 55ZM57 52.5C57 51.67 56.33 51 55.5 51C54.67 51 54 51.67 54 52.5C54 53.33 54.67 54 55.5 54C56.33 54 57 53.33 57 52.5ZM68 49L66.5 44.5H55.5L54 49H68ZM71.87 60.19L67.76 56.08C68.17 55.04 67.94 53.82 67.08 52.97C66.18 52.06 64.83 51.88 63.74 52.38L65.68 54.32L64.33 55.68L62.34 53.73C61.8 54.82 62.05 56.17 62.93 57.08C63.3272 57.4851 63.8341 57.7654 64.3884 57.8862C64.9427 58.007 65.5203 57.9631 66.05 57.76L70.16 61.86C70.34 62.05 70.61 62.05 70.79 61.86L71.83 60.83C72.05 60.65 72.05 60.33 71.87 60.19Z" fill="#1C3D5A"/>
<path d="M57.4229 71H55.9189V65.8242L54.0879 69.7695H52.9258L51.0996 65.8389V71H49.5957V63.6758H51.5049L53.5068 68.0996L55.5088 63.6758H57.4229V71ZM58.5191 71V63.6758H60.9166C61.802 63.6758 62.5686 63.8255 63.2164 64.125C63.8642 64.4245 64.3655 64.8477 64.7203 65.3945C65.0751 65.9414 65.2525 66.5892 65.2525 67.3379C65.2525 68.0833 65.0751 68.7311 64.7203 69.2812C64.3655 69.8281 63.8642 70.2513 63.2164 70.5508C62.5686 70.8503 61.802 71 60.9166 71H58.5191ZM60.023 69.6865H60.9703C61.5562 69.6865 62.0527 69.5954 62.4596 69.4131C62.8697 69.2275 63.1806 68.9606 63.3922 68.6123C63.607 68.2607 63.7145 67.8359 63.7145 67.3379C63.7145 66.8366 63.607 66.4118 63.3922 66.0635C63.1806 65.7152 62.8697 65.4499 62.4596 65.2676C62.0527 65.082 61.5562 64.9893 60.9703 64.9893H60.023V69.6865ZM67.5988 71H66.0949V63.6758H67.5988V66.7373H70.7678V63.6758H72.2717V71H70.7678V68.0508H67.5988V71Z" fill="#1C3D5A"/>
<circle cx="82.5001" cy="33.5001" r="4.22222" fill="white"/>
<path d="M90.0684 32.5026L88.9918 31.2517C88.7859 31.0142 88.6197 30.5709 88.6197 30.2542V28.9084C88.6197 28.0692 87.9309 27.3805 87.0918 27.3805H85.7459C85.4372 27.3805 84.9859 27.2142 84.7484 27.0084L83.4976 25.9317C82.9514 25.4647 82.0568 25.4647 81.5026 25.9317L80.2597 27.0163C80.0222 27.2142 79.5709 27.3805 79.2622 27.3805H77.8926C77.0534 27.3805 76.3647 28.0692 76.3647 28.9084V30.2621C76.3647 30.5709 76.1984 31.0142 76.0005 31.2517L74.9318 32.5105C74.4726 33.0567 74.4726 33.9434 74.9318 34.4896L76.0005 35.7484C76.1984 35.9859 76.3647 36.4292 76.3647 36.738V38.0917C76.3647 38.9309 77.0534 39.6196 77.8926 39.6196H79.2622C79.5709 39.6196 80.0222 39.7859 80.2597 39.9917L81.5105 41.0684C82.0568 41.5355 82.9514 41.5355 83.5055 41.0684L84.7564 39.9917C84.9939 39.7859 85.4372 39.6196 85.7539 39.6196H87.0997C87.9389 39.6196 88.6276 38.9309 88.6276 38.0917V36.7459C88.6276 36.4371 88.7939 35.9859 88.9997 35.7484L90.0764 34.4976C90.5355 33.9513 90.5355 33.0488 90.0684 32.5026ZM85.7934 32.0038L81.9697 35.8276C81.8589 35.9384 81.7084 36.0017 81.5501 36.0017C81.3918 36.0017 81.2414 35.9384 81.1305 35.8276L79.2147 33.9117C78.9851 33.6821 78.9851 33.3021 79.2147 33.0726C79.4443 32.843 79.8243 32.843 80.0539 33.0726L81.5501 34.5688L84.9543 31.1646C85.1839 30.9351 85.5639 30.9351 85.7934 31.1646C86.023 31.3942 86.023 31.7742 85.7934 32.0038Z" fill="#0065B5"/>
<path d="M96.008 32.976H97.59L100.866 38.674H100.95L104.226 32.976H105.794V43H104.226V37.554L104.31 35.874H104.226L101.37 40.872H100.432L97.59 35.874H97.506L97.59 37.554V43H96.008V32.976ZM107.667 32.976H110.887C111.68 32.976 112.389 33.102 113.015 33.354C113.649 33.5967 114.186 33.9373 114.625 34.376C115.073 34.8147 115.413 35.342 115.647 35.958C115.889 36.574 116.011 37.2507 116.011 37.988C116.011 38.7253 115.889 39.402 115.647 40.018C115.413 40.634 115.073 41.1613 114.625 41.6C114.186 42.0387 113.649 42.384 113.015 42.636C112.389 42.8787 111.68 43 110.887 43H107.667V32.976ZM110.859 41.488C111.988 41.488 112.861 41.18 113.477 40.564C114.093 39.948 114.401 39.0893 114.401 37.988C114.401 36.896 114.093 36.042 113.477 35.426C112.861 34.8007 111.988 34.488 110.859 34.488H109.249V41.488H110.859ZM117.398 32.976H118.98V37.134H123.614V32.976H125.196V43H123.614V38.618H118.98V43H117.398V32.976ZM132.513 32.976H134.333L138.099 43H136.349L135.439 40.424H131.407L130.497 43H128.747L132.513 32.976ZM134.907 38.982L133.857 36.028L133.465 34.852H133.381L132.989 36.028L131.939 38.982H134.907ZM143.335 42.076H143.251C143.045 42.4027 142.751 42.678 142.369 42.902C141.995 43.1167 141.571 43.224 141.095 43.224C140.227 43.224 139.578 42.9673 139.149 42.454C138.719 41.9313 138.505 41.2407 138.505 40.382V36.14H140.059V40.172C140.059 40.7693 140.194 41.1893 140.465 41.432C140.745 41.6653 141.109 41.782 141.557 41.782C141.818 41.782 142.051 41.726 142.257 41.614C142.471 41.502 142.653 41.3527 142.803 41.166C142.952 40.97 143.064 40.7507 143.139 40.508C143.213 40.256 143.251 39.9947 143.251 39.724V36.14H144.805V43H143.335V42.076ZM147.052 37.512H145.848V36.14H147.052V34.04H148.606V36.14H150.3V37.512H148.606V40.564C148.606 40.732 148.624 40.886 148.662 41.026C148.699 41.166 148.755 41.2827 148.83 41.376C148.988 41.5533 149.189 41.642 149.432 41.642C149.581 41.642 149.698 41.6327 149.782 41.614C149.866 41.586 149.954 41.5487 150.048 41.502L150.524 42.874C150.328 42.9487 150.122 43.0047 149.908 43.042C149.693 43.0887 149.45 43.112 149.18 43.112C148.853 43.112 148.564 43.0607 148.312 42.958C148.06 42.8553 147.84 42.7153 147.654 42.538C147.252 42.1367 147.052 41.5907 147.052 40.9V37.512ZM154.57 35.916C155.093 35.916 155.574 36.0093 156.012 36.196C156.451 36.3733 156.829 36.6253 157.146 36.952C157.464 37.2787 157.711 37.666 157.888 38.114C158.066 38.562 158.154 39.0473 158.154 39.57C158.154 40.0927 158.066 40.578 157.888 41.026C157.711 41.474 157.464 41.8613 157.146 42.188C156.829 42.5147 156.451 42.7713 156.012 42.958C155.574 43.1353 155.093 43.224 154.57 43.224C154.048 43.224 153.567 43.1353 153.128 42.958C152.69 42.7713 152.312 42.5147 151.994 42.188C151.677 41.8613 151.43 41.474 151.252 41.026C151.075 40.578 150.986 40.0927 150.986 39.57C150.986 39.0473 151.075 38.562 151.252 38.114C151.43 37.666 151.677 37.2787 151.994 36.952C152.312 36.6253 152.69 36.3733 153.128 36.196C153.567 36.0093 154.048 35.916 154.57 35.916ZM154.57 41.782C154.832 41.782 155.084 41.7307 155.326 41.628C155.569 41.5253 155.784 41.3807 155.97 41.194C156.166 41.0073 156.32 40.7787 156.432 40.508C156.544 40.228 156.6 39.9153 156.6 39.57C156.6 39.2247 156.544 38.9167 156.432 38.646C156.32 38.366 156.166 38.1327 155.97 37.946C155.784 37.7593 155.569 37.6147 155.326 37.512C155.084 37.4093 154.832 37.358 154.57 37.358C154.309 37.358 154.057 37.4093 153.814 37.512C153.572 37.6147 153.352 37.7593 153.156 37.946C152.97 38.1327 152.82 38.366 152.708 38.646C152.596 38.9167 152.54 39.2247 152.54 39.57C152.54 39.9153 152.596 40.228 152.708 40.508C152.82 40.7787 152.97 41.0073 153.156 41.194C153.352 41.3807 153.572 41.5253 153.814 41.628C154.057 41.7307 154.309 41.782 154.57 41.782ZM164.886 43.224C164.484 43.224 164.092 43.1633 163.71 43.042C163.336 42.93 162.986 42.7573 162.66 42.524C162.342 42.2907 162.062 42.0013 161.82 41.656C161.577 41.3107 161.39 40.9093 161.26 40.452L162.772 39.836C162.837 40.0973 162.93 40.3447 163.052 40.578C163.182 40.802 163.336 40.998 163.514 41.166C163.7 41.334 163.906 41.4693 164.13 41.572C164.363 41.6653 164.62 41.712 164.9 41.712C165.133 41.712 165.357 41.684 165.572 41.628C165.786 41.5627 165.973 41.4693 166.132 41.348C166.29 41.2267 166.416 41.0773 166.51 40.9C166.612 40.7227 166.664 40.5173 166.664 40.284C166.664 40.0787 166.626 39.892 166.552 39.724C166.477 39.556 166.36 39.402 166.202 39.262C166.043 39.122 165.833 38.9913 165.572 38.87C165.31 38.7393 164.998 38.6087 164.634 38.478L164.004 38.254C163.733 38.1607 163.453 38.0393 163.164 37.89C162.884 37.7313 162.627 37.5447 162.394 37.33C162.17 37.106 161.983 36.8447 161.834 36.546C161.694 36.2473 161.624 35.8973 161.624 35.496C161.624 35.1227 161.698 34.7727 161.848 34.446C162.006 34.11 162.226 33.816 162.506 33.564C162.786 33.312 163.117 33.116 163.5 32.976C163.892 32.8267 164.321 32.752 164.788 32.752C165.273 32.752 165.698 32.822 166.062 32.962C166.435 33.0927 166.748 33.2607 167 33.466C167.252 33.6713 167.452 33.9 167.602 34.152C167.76 34.3947 167.877 34.6233 167.952 34.838L166.524 35.44C166.477 35.3 166.407 35.16 166.314 35.02C166.23 34.8707 166.118 34.74 165.978 34.628C165.838 34.516 165.67 34.4227 165.474 34.348C165.287 34.2733 165.068 34.236 164.816 34.236C164.592 34.236 164.382 34.2687 164.186 34.334C163.99 34.39 163.817 34.474 163.668 34.586C163.528 34.698 163.416 34.8287 163.332 34.978C163.248 35.1273 163.206 35.2907 163.206 35.468C163.206 35.8227 163.35 36.112 163.64 36.336C163.938 36.5507 164.372 36.756 164.942 36.952L165.572 37.176C165.964 37.3067 166.323 37.4607 166.65 37.638C166.976 37.8153 167.261 38.03 167.504 38.282C167.746 38.5247 167.933 38.8093 168.064 39.136C168.204 39.4627 168.274 39.8407 168.274 40.27C168.274 40.7927 168.166 41.2407 167.952 41.614C167.746 41.978 167.48 42.2813 167.154 42.524C166.827 42.7667 166.463 42.944 166.062 43.056C165.66 43.168 165.268 43.224 164.886 43.224ZM175.826 41.362C175.537 41.894 175.126 42.3373 174.594 42.692C174.062 43.0467 173.409 43.224 172.634 43.224C172.121 43.224 171.645 43.1353 171.206 42.958C170.777 42.7713 170.403 42.5147 170.086 42.188C169.769 41.8613 169.521 41.4787 169.344 41.04C169.167 40.592 169.078 40.102 169.078 39.57C169.078 39.0753 169.162 38.6087 169.33 38.17C169.498 37.722 169.731 37.3347 170.03 37.008C170.338 36.672 170.707 36.406 171.136 36.21C171.565 36.014 172.041 35.916 172.564 35.916C173.096 35.916 173.567 36.0047 173.978 36.182C174.398 36.3593 174.753 36.6067 175.042 36.924C175.331 37.2413 175.551 37.624 175.7 38.072C175.859 38.52 175.938 39.01 175.938 39.542C175.938 39.5887 175.938 39.6307 175.938 39.668C175.929 39.7147 175.924 39.7567 175.924 39.794C175.915 39.8313 175.91 39.8687 175.91 39.906H170.632C170.66 40.2327 170.739 40.5173 170.87 40.76C171.001 41.0027 171.159 41.2033 171.346 41.362C171.542 41.5207 171.757 41.6373 171.99 41.712C172.223 41.7867 172.452 41.824 172.676 41.824C173.124 41.824 173.493 41.7167 173.782 41.502C174.071 41.2873 174.309 41.0213 174.496 40.704L175.826 41.362ZM174.384 38.716C174.365 38.576 174.319 38.422 174.244 38.254C174.179 38.0767 174.071 37.918 173.922 37.778C173.782 37.6287 173.595 37.5027 173.362 37.4C173.138 37.2973 172.863 37.246 172.536 37.246C172.088 37.246 171.701 37.3813 171.374 37.652C171.057 37.9133 170.842 38.268 170.73 38.716H174.384ZM176.973 36.14H178.443V37.176H178.527C178.611 36.9987 178.723 36.8353 178.863 36.686C179.012 36.5273 179.175 36.3967 179.353 36.294C179.539 36.182 179.731 36.098 179.927 36.042C180.132 35.9767 180.328 35.944 180.515 35.944C180.739 35.944 180.93 35.9627 181.089 36C181.247 36.0373 181.392 36.0887 181.523 36.154L181.075 37.596C180.972 37.5493 180.855 37.5167 180.725 37.498C180.603 37.47 180.454 37.456 180.277 37.456C180.025 37.456 179.791 37.5073 179.577 37.61C179.371 37.7127 179.189 37.8527 179.031 38.03C178.872 38.2073 178.746 38.4173 178.653 38.66C178.569 38.9027 178.527 39.1593 178.527 39.43V43H176.973V36.14ZM181.628 36.14H183.378L185.226 40.984H185.296L187.186 36.14H188.894L186.024 43H184.47L181.628 36.14ZM190.495 34.922C190.196 34.922 189.944 34.8193 189.739 34.614C189.543 34.4087 189.445 34.1613 189.445 33.872C189.445 33.5827 189.543 33.3353 189.739 33.13C189.944 32.9247 190.196 32.822 190.495 32.822C190.784 32.822 191.027 32.9247 191.223 33.13C191.428 33.3353 191.531 33.5827 191.531 33.872C191.531 34.1613 191.428 34.4087 191.223 34.614C191.027 34.8193 190.784 34.922 190.495 34.922ZM189.711 43V36.14H191.265V43H189.711ZM199.082 41.25C198.951 41.5207 198.788 41.7773 198.592 42.02C198.405 42.2533 198.181 42.4633 197.92 42.65C197.668 42.8273 197.374 42.9673 197.038 43.07C196.702 43.1727 196.333 43.224 195.932 43.224C195.409 43.224 194.929 43.1353 194.49 42.958C194.051 42.7713 193.673 42.5147 193.356 42.188C193.039 41.8613 192.791 41.474 192.614 41.026C192.437 40.578 192.348 40.0927 192.348 39.57C192.348 39.0473 192.437 38.562 192.614 38.114C192.791 37.666 193.039 37.2787 193.356 36.952C193.673 36.6253 194.051 36.3733 194.49 36.196C194.929 36.0093 195.409 35.916 195.932 35.916C196.333 35.916 196.697 35.9673 197.024 36.07C197.36 36.1727 197.654 36.3173 197.906 36.504C198.167 36.6813 198.391 36.8913 198.578 37.134C198.765 37.3673 198.914 37.6147 199.026 37.876L197.598 38.478C197.439 38.1233 197.22 37.848 196.94 37.652C196.66 37.456 196.305 37.358 195.876 37.358C195.615 37.358 195.363 37.414 195.12 37.526C194.887 37.6287 194.677 37.778 194.49 37.974C194.313 38.1607 194.168 38.3893 194.056 38.66C193.953 38.9307 193.902 39.234 193.902 39.57C193.902 39.906 193.953 40.2093 194.056 40.48C194.168 40.7507 194.313 40.984 194.49 41.18C194.677 41.3667 194.887 41.516 195.12 41.628C195.363 41.7307 195.615 41.782 195.876 41.782C196.305 41.782 196.669 41.684 196.968 41.488C197.276 41.2827 197.514 41.0027 197.682 40.648L199.082 41.25ZM206.353 41.362C206.063 41.894 205.653 42.3373 205.121 42.692C204.589 43.0467 203.935 43.224 203.161 43.224C202.647 43.224 202.171 43.1353 201.733 42.958C201.303 42.7713 200.93 42.5147 200.613 42.188C200.295 41.8613 200.048 41.4787 199.871 41.04C199.693 40.592 199.605 40.102 199.605 39.57C199.605 39.0753 199.689 38.6087 199.857 38.17C200.025 37.722 200.258 37.3347 200.557 37.008C200.865 36.672 201.233 36.406 201.663 36.21C202.092 36.014 202.568 35.916 203.091 35.916C203.623 35.916 204.094 36.0047 204.505 36.182C204.925 36.3593 205.279 36.6067 205.569 36.924C205.858 37.2413 206.077 37.624 206.227 38.072C206.385 38.52 206.465 39.01 206.465 39.542C206.465 39.5887 206.465 39.6307 206.465 39.668C206.455 39.7147 206.451 39.7567 206.451 39.794C206.441 39.8313 206.437 39.8687 206.437 39.906H201.159C201.187 40.2327 201.266 40.5173 201.397 40.76C201.527 41.0027 201.686 41.2033 201.873 41.362C202.069 41.5207 202.283 41.6373 202.517 41.712C202.75 41.7867 202.979 41.824 203.203 41.824C203.651 41.824 204.019 41.7167 204.309 41.502C204.598 41.2873 204.836 41.0213 205.023 40.704L206.353 41.362ZM204.911 38.716C204.892 38.576 204.845 38.422 204.771 38.254C204.705 38.0767 204.598 37.918 204.449 37.778C204.309 37.6287 204.122 37.5027 203.889 37.4C203.665 37.2973 203.389 37.246 203.063 37.246C202.615 37.246 202.227 37.3813 201.901 37.652C201.583 37.9133 201.369 38.268 201.257 38.716H204.911ZM210.171 43.224C209.751 43.224 209.373 43.168 209.037 43.056C208.701 42.944 208.407 42.7993 208.155 42.622C207.903 42.4353 207.689 42.2253 207.511 41.992C207.343 41.7587 207.213 41.516 207.119 41.264L208.519 40.676C208.678 41.0773 208.907 41.376 209.205 41.572C209.504 41.7587 209.826 41.852 210.171 41.852C210.563 41.852 210.871 41.7727 211.095 41.614C211.319 41.4553 211.431 41.278 211.431 41.082C211.431 40.886 211.347 40.718 211.179 40.578C211.011 40.4287 210.694 40.298 210.227 40.186L209.247 39.948C209.033 39.9013 208.813 39.8313 208.589 39.738C208.375 39.6353 208.174 39.5093 207.987 39.36C207.801 39.2013 207.647 39.0147 207.525 38.8C207.413 38.576 207.357 38.3147 207.357 38.016C207.357 37.68 207.427 37.3813 207.567 37.12C207.717 36.8587 207.917 36.6393 208.169 36.462C208.421 36.2847 208.711 36.1493 209.037 36.056C209.373 35.9627 209.728 35.916 210.101 35.916C210.409 35.916 210.703 35.9487 210.983 36.014C211.273 36.0793 211.539 36.1773 211.781 36.308C212.024 36.4387 212.239 36.6067 212.425 36.812C212.621 37.008 212.775 37.2413 212.887 37.512L211.515 38.086C211.385 37.7873 211.179 37.5727 210.899 37.442C210.619 37.302 210.335 37.232 210.045 37.232C209.915 37.232 209.779 37.2507 209.639 37.288C209.509 37.316 209.387 37.3627 209.275 37.428C209.173 37.484 209.084 37.5587 209.009 37.652C208.944 37.7453 208.911 37.848 208.911 37.96C208.911 38.1467 208.991 38.296 209.149 38.408C209.317 38.5107 209.569 38.604 209.905 38.688L210.955 38.954C211.665 39.1313 212.183 39.402 212.509 39.766C212.845 40.1207 213.013 40.5407 213.013 41.026C213.013 41.3247 212.943 41.6047 212.803 41.866C212.673 42.1273 212.481 42.3607 212.229 42.566C211.977 42.7713 211.674 42.93 211.319 43.042C210.974 43.1633 210.591 43.224 210.171 43.224ZM217.15 32.976H218.732V41.488H223.03V43H217.15V32.976ZM224.901 34.922C224.602 34.922 224.35 34.8193 224.145 34.614C223.949 34.4087 223.851 34.1613 223.851 33.872C223.851 33.5827 223.949 33.3353 224.145 33.13C224.35 32.9247 224.602 32.822 224.901 32.822C225.19 32.822 225.433 32.9247 225.629 33.13C225.834 33.3353 225.937 33.5827 225.937 33.872C225.937 34.1613 225.834 34.4087 225.629 34.614C225.433 34.8193 225.19 34.922 224.901 34.922ZM224.117 43V36.14H225.671V43H224.117ZM227.214 36.14H228.684V37.064H228.768C228.983 36.728 229.282 36.4527 229.664 36.238C230.047 36.0233 230.453 35.916 230.882 35.916C231.396 35.916 231.834 36.0373 232.198 36.28C232.572 36.5133 232.842 36.8213 233.01 37.204C233.244 36.84 233.556 36.5367 233.948 36.294C234.34 36.042 234.812 35.916 235.362 35.916C235.782 35.916 236.146 35.986 236.454 36.126C236.762 36.2567 237.014 36.4433 237.21 36.686C237.416 36.9287 237.57 37.2227 237.672 37.568C237.775 37.904 237.826 38.282 237.826 38.702V43H236.272V38.968C236.272 38.3707 236.156 37.9553 235.922 37.722C235.698 37.4793 235.367 37.358 234.928 37.358C234.676 37.358 234.448 37.414 234.242 37.526C234.046 37.638 233.878 37.792 233.738 37.988C233.598 38.1747 233.491 38.394 233.416 38.646C233.342 38.898 233.304 39.164 233.304 39.444V43H231.75V38.968C231.75 38.3707 231.629 37.9553 231.386 37.722C231.153 37.4793 230.812 37.358 230.364 37.358C230.122 37.358 229.902 37.414 229.706 37.526C229.51 37.638 229.342 37.792 229.202 37.988C229.062 38.1747 228.955 38.394 228.88 38.646C228.806 38.898 228.768 39.164 228.768 39.444V43H227.214V36.14ZM240.097 34.922C239.799 34.922 239.547 34.8193 239.341 34.614C239.145 34.4087 239.047 34.1613 239.047 33.872C239.047 33.5827 239.145 33.3353 239.341 33.13C239.547 32.9247 239.799 32.822 240.097 32.822C240.387 32.822 240.629 32.9247 240.825 33.13C241.031 33.3353 241.133 33.5827 241.133 33.872C241.133 34.1613 241.031 34.4087 240.825 34.614C240.629 34.8193 240.387 34.922 240.097 34.922ZM239.313 43V36.14H240.867V43H239.313ZM243.099 37.512H241.895V36.14H243.099V34.04H244.653V36.14H246.347V37.512H244.653V40.564C244.653 40.732 244.671 40.886 244.709 41.026C244.746 41.166 244.802 41.2827 244.877 41.376C245.035 41.5533 245.236 41.642 245.479 41.642C245.628 41.642 245.745 41.6327 245.829 41.614C245.913 41.586 246.001 41.5487 246.095 41.502L246.571 42.874C246.375 42.9487 246.169 43.0047 245.955 43.042C245.74 43.0887 245.497 43.112 245.227 43.112C244.9 43.112 244.611 43.0607 244.359 42.958C244.107 42.8553 243.887 42.7153 243.701 42.538C243.299 42.1367 243.099 41.5907 243.099 40.9V37.512ZM253.781 41.362C253.492 41.894 253.081 42.3373 252.549 42.692C252.017 43.0467 251.364 43.224 250.589 43.224C250.076 43.224 249.6 43.1353 249.161 42.958C248.732 42.7713 248.359 42.5147 248.041 42.188C247.724 41.8613 247.477 41.4787 247.299 41.04C247.122 40.592 247.033 40.102 247.033 39.57C247.033 39.0753 247.117 38.6087 247.285 38.17C247.453 37.722 247.687 37.3347 247.985 37.008C248.293 36.672 248.662 36.406 249.091 36.21C249.521 36.014 249.997 35.916 250.519 35.916C251.051 35.916 251.523 36.0047 251.933 36.182C252.353 36.3593 252.708 36.6067 252.997 36.924C253.287 37.2413 253.506 37.624 253.655 38.072C253.814 38.52 253.893 39.01 253.893 39.542C253.893 39.5887 253.893 39.6307 253.893 39.668C253.884 39.7147 253.879 39.7567 253.879 39.794C253.87 39.8313 253.865 39.8687 253.865 39.906H248.587C248.615 40.2327 248.695 40.5173 248.825 40.76C248.956 41.0027 249.115 41.2033 249.301 41.362C249.497 41.5207 249.712 41.6373 249.945 41.712C250.179 41.7867 250.407 41.824 250.631 41.824C251.079 41.824 251.448 41.7167 251.737 41.502C252.027 41.2873 252.265 41.0213 252.451 40.704L253.781 41.362ZM252.339 38.716C252.321 38.576 252.274 38.422 252.199 38.254C252.134 38.0767 252.027 37.918 251.877 37.778C251.737 37.6287 251.551 37.5027 251.317 37.4C251.093 37.2973 250.818 37.246 250.491 37.246C250.043 37.246 249.656 37.3813 249.329 37.652C249.012 37.9133 248.797 38.268 248.685 38.716H252.339ZM260.19 42.118H260.106C259.92 42.4167 259.635 42.678 259.252 42.902C258.87 43.1167 258.412 43.224 257.88 43.224C257.442 43.224 257.022 43.1353 256.62 42.958C256.228 42.7713 255.883 42.5147 255.584 42.188C255.286 41.8613 255.048 41.4787 254.87 41.04C254.693 40.592 254.604 40.102 254.604 39.57C254.604 39.038 254.693 38.5527 254.87 38.114C255.048 37.666 255.286 37.2787 255.584 36.952C255.883 36.6253 256.228 36.3733 256.62 36.196C257.022 36.0093 257.442 35.916 257.88 35.916C258.412 35.916 258.87 36.028 259.252 36.252C259.635 36.4667 259.92 36.7233 260.106 37.022H260.19L260.106 36.07V32.976H261.66V43H260.19V42.118ZM258.174 41.782C258.436 41.782 258.688 41.7307 258.93 41.628C259.182 41.5253 259.397 41.3807 259.574 41.194C259.761 41.0073 259.91 40.7787 260.022 40.508C260.134 40.228 260.19 39.9153 260.19 39.57C260.19 39.2247 260.134 38.9167 260.022 38.646C259.91 38.366 259.761 38.1327 259.574 37.946C259.397 37.7593 259.182 37.6147 258.93 37.512C258.688 37.4093 258.436 37.358 258.174 37.358C257.904 37.358 257.647 37.4093 257.404 37.512C257.162 37.6147 256.947 37.764 256.76 37.96C256.583 38.1467 256.438 38.3753 256.326 38.646C256.214 38.9167 256.158 39.2247 256.158 39.57C256.158 39.9153 256.214 40.2233 256.326 40.494C256.438 40.7647 256.583 40.998 256.76 41.194C256.947 41.3807 257.162 41.5253 257.404 41.628C257.647 41.7307 257.904 41.782 258.174 41.782Z" fill="black"/>
<path d="M95.43 57V55.95C95.8167 55.57 96.1733 55.2133 96.5 54.88C96.64 54.74 96.78 54.5967 96.92 54.45C97.0667 54.3033 97.2033 54.1667 97.33 54.04C97.4567 53.9067 97.5733 53.7867 97.68 53.68C97.7867 53.5667 97.87 53.4767 97.93 53.41C98.0567 53.2633 98.1667 53.1333 98.26 53.02C98.3533 52.9067 98.43 52.7967 98.49 52.69C98.55 52.5833 98.5933 52.4767 98.62 52.37C98.6533 52.2633 98.67 52.1433 98.67 52.01C98.67 51.89 98.6433 51.7733 98.59 51.66C98.5433 51.5467 98.4733 51.4467 98.38 51.36C98.2867 51.2667 98.17 51.1933 98.03 51.14C97.8967 51.08 97.74 51.05 97.56 51.05C97.3867 51.05 97.2333 51.08 97.1 51.14C96.9733 51.1933 96.8633 51.2667 96.77 51.36C96.6767 51.4467 96.6 51.5433 96.54 51.65C96.48 51.75 96.4367 51.85 96.41 51.95L95.4 51.54C95.4467 51.38 95.5267 51.21 95.64 51.03C95.7533 50.85 95.9 50.6833 96.08 50.53C96.26 50.3767 96.4733 50.25 96.72 50.15C96.9733 50.05 97.26 50 97.58 50C97.92 50 98.2267 50.0533 98.5 50.16C98.7733 50.2667 99.0067 50.41 99.2 50.59C99.3933 50.77 99.54 50.98 99.64 51.22C99.7467 51.46 99.8 51.7167 99.8 51.99C99.8 52.2033 99.7667 52.41 99.7 52.61C99.64 52.81 99.5567 53.0033 99.45 53.19C99.35 53.37 99.2333 53.54 99.1 53.7C98.9733 53.86 98.8433 54.0067 98.71 54.14C98.6767 54.1733 98.6267 54.2233 98.56 54.29C98.4933 54.3567 98.4133 54.4367 98.32 54.53C98.2333 54.6167 98.1367 54.71 98.03 54.81C97.9233 54.9167 97.8167 55.0233 97.71 55.13L96.9 55.94L96.91 55.98H99.88V57H95.43ZM100.782 49.84H101.892V53.99H101.932L103.812 52.1H105.202V52.16L103.342 54L105.322 56.94V57H104.002L102.552 54.77L101.892 55.42V57H100.782V49.84ZM105.741 52.1H106.791V52.76H106.851C107.004 52.52 107.218 52.3233 107.491 52.17C107.764 52.0167 108.054 51.94 108.361 51.94C108.728 51.94 109.041 52.0267 109.301 52.2C109.568 52.3667 109.761 52.5867 109.881 52.86C110.048 52.6 110.271 52.3833 110.551 52.21C110.831 52.03 111.168 51.94 111.561 51.94C111.861 51.94 112.121 51.99 112.341 52.09C112.561 52.1833 112.741 52.3167 112.881 52.49C113.028 52.6633 113.138 52.8733 113.211 53.12C113.284 53.36 113.321 53.63 113.321 53.93V57H112.211V54.12C112.211 53.6933 112.128 53.3967 111.961 53.23C111.801 53.0567 111.564 52.97 111.251 52.97C111.071 52.97 110.908 53.01 110.761 53.09C110.621 53.17 110.501 53.28 110.401 53.42C110.301 53.5533 110.224 53.71 110.171 53.89C110.118 54.07 110.091 54.26 110.091 54.46V57H108.981V54.12C108.981 53.6933 108.894 53.3967 108.721 53.23C108.554 53.0567 108.311 52.97 107.991 52.97C107.818 52.97 107.661 53.01 107.521 53.09C107.381 53.17 107.261 53.28 107.161 53.42C107.061 53.5533 106.984 53.71 106.931 53.89C106.878 54.07 106.851 54.26 106.851 54.46V57H105.741V52.1ZM119.5 56.4H119.44C119.294 56.5933 119.104 56.77 118.87 56.93C118.637 57.0833 118.34 57.16 117.98 57.16C117.72 57.16 117.477 57.1167 117.25 57.03C117.024 56.95 116.827 56.8367 116.66 56.69C116.494 56.5367 116.36 56.36 116.26 56.16C116.167 55.9533 116.12 55.7267 116.12 55.48C116.12 55.22 116.17 54.9867 116.27 54.78C116.377 54.5733 116.52 54.4 116.7 54.26C116.887 54.12 117.107 54.0133 117.36 53.94C117.614 53.86 117.887 53.82 118.18 53.82C118.507 53.82 118.78 53.8533 119 53.92C119.22 53.98 119.387 54.0367 119.5 54.09V53.9C119.5 53.7533 119.467 53.6167 119.4 53.49C119.34 53.3633 119.254 53.2567 119.14 53.17C119.034 53.0767 118.91 53.0067 118.77 52.96C118.63 52.9067 118.484 52.88 118.33 52.88C118.084 52.88 117.86 52.93 117.66 53.03C117.467 53.1233 117.294 53.2767 117.14 53.49L116.26 52.91C116.494 52.59 116.784 52.35 117.13 52.19C117.477 52.0233 117.87 51.94 118.31 51.94C119.037 51.94 119.597 52.12 119.99 52.48C120.39 52.84 120.59 53.3533 120.59 54.02V57H119.5V56.4ZM119.5 54.96C119.354 54.8733 119.19 54.8033 119.01 54.75C118.83 54.6967 118.624 54.67 118.39 54.67C118.044 54.67 117.767 54.75 117.56 54.91C117.354 55.07 117.25 55.2633 117.25 55.49C117.25 55.61 117.277 55.7167 117.33 55.81C117.384 55.8967 117.45 55.9733 117.53 56.04C117.617 56.1067 117.714 56.1567 117.82 56.19C117.934 56.2233 118.047 56.24 118.16 56.24C118.34 56.24 118.51 56.2067 118.67 56.14C118.837 56.0667 118.98 55.9733 119.1 55.86C119.22 55.74 119.317 55.6033 119.39 55.45C119.464 55.2967 119.5 55.1333 119.5 54.96ZM120.917 52.1H122.127L123.077 55.49H123.117L124.217 52.1H125.367L126.457 55.49H126.497L127.437 52.1H128.627L127.057 57H125.887L124.777 53.57H124.737L123.657 57H122.487L120.917 52.1ZM132.132 56.4H132.072C131.926 56.5933 131.736 56.77 131.502 56.93C131.269 57.0833 130.972 57.16 130.612 57.16C130.352 57.16 130.109 57.1167 129.882 57.03C129.656 56.95 129.459 56.8367 129.292 56.69C129.126 56.5367 128.992 56.36 128.892 56.16C128.799 55.9533 128.752 55.7267 128.752 55.48C128.752 55.22 128.802 54.9867 128.902 54.78C129.009 54.5733 129.152 54.4 129.332 54.26C129.519 54.12 129.739 54.0133 129.992 53.94C130.246 53.86 130.519 53.82 130.812 53.82C131.139 53.82 131.412 53.8533 131.632 53.92C131.852 53.98 132.019 54.0367 132.132 54.09V53.9C132.132 53.7533 132.099 53.6167 132.032 53.49C131.972 53.3633 131.886 53.2567 131.772 53.17C131.666 53.0767 131.542 53.0067 131.402 52.96C131.262 52.9067 131.116 52.88 130.962 52.88C130.716 52.88 130.492 52.93 130.292 53.03C130.099 53.1233 129.926 53.2767 129.772 53.49L128.892 52.91C129.126 52.59 129.416 52.35 129.762 52.19C130.109 52.0233 130.502 51.94 130.942 51.94C131.669 51.94 132.229 52.12 132.622 52.48C133.022 52.84 133.222 53.3533 133.222 54.02V57H132.132V56.4ZM132.132 54.96C131.986 54.8733 131.822 54.8033 131.642 54.75C131.462 54.6967 131.256 54.67 131.022 54.67C130.676 54.67 130.399 54.75 130.192 54.91C129.986 55.07 129.882 55.2633 129.882 55.49C129.882 55.61 129.909 55.7167 129.962 55.81C130.016 55.8967 130.082 55.9733 130.162 56.04C130.249 56.1067 130.346 56.1567 130.452 56.19C130.566 56.2233 130.679 56.24 130.792 56.24C130.972 56.24 131.142 56.2067 131.302 56.14C131.469 56.0667 131.612 55.9733 131.732 55.86C131.852 55.74 131.949 55.6033 132.022 55.45C132.096 55.2967 132.132 55.1333 132.132 54.96ZM135.589 56.72L133.549 52.1H134.789L136.139 55.35H136.189L137.499 52.1H138.729L135.659 59.16H134.479L135.589 56.72Z" fill="#979797"/>
<path d="M104.153 67.34L105.327 69.6867C105.487 70.0133 105.913 70.3267 106.273 70.3867L108.4 70.74C109.76 70.9667 110.08 71.9533 109.1 72.9267L107.447 74.58C107.167 74.86 107.013 75.4 107.1 75.7867L107.573 77.8333C107.947 79.4533 107.087 80.08 105.653 79.2333L103.66 78.0533C103.3 77.84 102.707 77.84 102.34 78.0533L100.347 79.2333C98.9199 80.08 98.0533 79.4467 98.4266 77.8333L98.8999 75.7867C98.9866 75.4 98.8333 74.86 98.5533 74.58L96.8999 72.9267C95.9266 71.9533 96.2399 70.9667 97.5999 70.74L99.7266 70.3867C100.08 70.3267 100.507 70.0133 100.667 69.6867L101.84 67.34C102.48 66.0667 103.52 66.0667 104.153 67.34Z" fill="#FFD13C"/>
<path d="M121.153 67.34L122.327 69.6867C122.487 70.0133 122.913 70.3267 123.273 70.3867L125.4 70.74C126.76 70.9667 127.08 71.9533 126.1 72.9267L124.447 74.58C124.167 74.86 124.013 75.4 124.1 75.7867L124.573 77.8333C124.947 79.4533 124.087 80.08 122.653 79.2333L120.66 78.0533C120.3 77.84 119.707 77.84 119.34 78.0533L117.347 79.2333C115.92 80.08 115.053 79.4467 115.427 77.8333L115.9 75.7867C115.987 75.4 115.833 74.86 115.553 74.58L113.9 72.9267C112.927 71.9533 113.24 70.9667 114.6 70.74L116.727 70.3867C117.08 70.3267 117.507 70.0133 117.667 69.6867L118.84 67.34C119.48 66.0667 120.52 66.0667 121.153 67.34Z" fill="#FFD13C"/>
<path d="M138.153 67.34L139.327 69.6867C139.487 70.0133 139.913 70.3267 140.273 70.3867L142.4 70.74C143.76 70.9667 144.08 71.9533 143.1 72.9267L141.447 74.58C141.167 74.86 141.013 75.4 141.1 75.7867L141.573 77.8333C141.947 79.4533 141.087 80.08 139.653 79.2333L137.66 78.0533C137.3 77.84 136.707 77.84 136.34 78.0533L134.347 79.2333C132.92 80.08 132.053 79.4467 132.427 77.8333L132.9 75.7867C132.987 75.4 132.833 74.86 132.553 74.58L130.9 72.9267C129.927 71.9533 130.24 70.9667 131.6 70.74L133.727 70.3867C134.08 70.3267 134.507 70.0133 134.667 69.6867L135.84 67.34C136.48 66.0667 137.52 66.0667 138.153 67.34Z" fill="#FFD13C"/>
<path d="M155.153 67.34L156.327 69.6867C156.487 70.0133 156.913 70.3267 157.273 70.3867L159.4 70.74C160.76 70.9667 161.08 71.9533 160.1 72.9267L158.447 74.58C158.167 74.86 158.013 75.4 158.1 75.7867L158.573 77.8333C158.947 79.4533 158.087 80.08 156.653 79.2333L154.66 78.0533C154.3 77.84 153.707 77.84 153.34 78.0533L151.347 79.2333C149.92 80.08 149.053 79.4467 149.427 77.8333L149.9 75.7867C149.987 75.4 149.833 74.86 149.553 74.58L147.9 72.9267C146.927 71.9533 147.24 70.9667 148.6 70.74L150.727 70.3867C151.08 70.3267 151.507 70.0133 151.667 69.6867L152.84 67.34C153.48 66.0667 154.52 66.0667 155.153 67.34Z" fill="#FFD13C"/>
<path d="M172.153 67.34L173.327 69.6867C173.487 70.0133 173.913 70.3267 174.273 70.3867L176.4 70.74C177.76 70.9667 178.08 71.9533 177.1 72.9267L175.447 74.58C175.167 74.86 175.013 75.4 175.1 75.7867L175.573 77.8333C175.947 79.4533 175.087 80.08 173.653 79.2333L171.66 78.0533C171.3 77.84 170.707 77.84 170.34 78.0533L168.347 79.2333C166.92 80.08 166.053 79.4467 166.427 77.8333L166.9 75.7867C166.987 75.4 166.833 74.86 166.553 74.58L164.9 72.9267C163.927 71.9533 164.24 70.9667 165.6 70.74L167.727 70.3867C168.08 70.3267 168.507 70.0133 168.667 69.6867L169.84 67.34C170.48 66.0667 171.52 66.0667 172.153 67.34Z" stroke="#FFD13C" stroke-linecap="round" stroke-linejoin="round"/>
<path d="M224.83 77.16C224.543 77.16 224.263 77.1167 223.99 77.03C223.723 76.95 223.473 76.8267 223.24 76.66C223.013 76.4933 222.813 76.2867 222.64 76.04C222.467 75.7933 222.333 75.5067 222.24 75.18L223.32 74.74C223.367 74.9267 223.433 75.1033 223.52 75.27C223.613 75.43 223.723 75.57 223.85 75.69C223.983 75.81 224.13 75.9067 224.29 75.98C224.457 76.0467 224.64 76.08 224.84 76.08C225.007 76.08 225.167 76.06 225.32 76.02C225.473 75.9733 225.607 75.9067 225.72 75.82C225.833 75.7333 225.923 75.6267 225.99 75.5C226.063 75.3733 226.1 75.2267 226.1 75.06C226.1 74.9133 226.073 74.78 226.02 74.66C225.967 74.54 225.883 74.43 225.77 74.33C225.657 74.23 225.507 74.1367 225.32 74.05C225.133 73.9567 224.91 73.8633 224.65 73.77L224.2 73.61C224.007 73.5433 223.807 73.4567 223.6 73.35C223.4 73.2367 223.217 73.1033 223.05 72.95C222.89 72.79 222.757 72.6033 222.65 72.39C222.55 72.1767 222.5 71.9267 222.5 71.64C222.5 71.3733 222.553 71.1233 222.66 70.89C222.773 70.65 222.93 70.44 223.13 70.26C223.33 70.08 223.567 69.94 223.84 69.84C224.12 69.7333 224.427 69.68 224.76 69.68C225.107 69.68 225.41 69.73 225.67 69.83C225.937 69.9233 226.16 70.0433 226.34 70.19C226.52 70.3367 226.663 70.5 226.77 70.68C226.883 70.8533 226.967 71.0167 227.02 71.17L226 71.6C225.967 71.5 225.917 71.4 225.85 71.3C225.79 71.1933 225.71 71.1 225.61 71.02C225.51 70.94 225.39 70.8733 225.25 70.82C225.117 70.7667 224.96 70.74 224.78 70.74C224.62 70.74 224.47 70.7633 224.33 70.81C224.19 70.85 224.067 70.91 223.96 70.99C223.86 71.07 223.78 71.1633 223.72 71.27C223.66 71.3767 223.63 71.4933 223.63 71.62C223.63 71.8733 223.733 72.08 223.94 72.24C224.153 72.3933 224.463 72.54 224.87 72.68L225.32 72.84C225.6 72.9333 225.857 73.0433 226.09 73.17C226.323 73.2967 226.527 73.45 226.7 73.63C226.873 73.8033 227.007 74.0067 227.1 74.24C227.2 74.4733 227.25 74.7433 227.25 75.05C227.25 75.4233 227.173 75.7433 227.02 76.01C226.873 76.27 226.683 76.4867 226.45 76.66C226.217 76.8333 225.957 76.96 225.67 77.04C225.383 77.12 225.103 77.16 224.83 77.16ZM232.645 75.83C232.438 76.21 232.145 76.5267 231.765 76.78C231.385 77.0333 230.918 77.16 230.365 77.16C229.998 77.16 229.658 77.0967 229.345 76.97C229.038 76.8367 228.771 76.6533 228.545 76.42C228.318 76.1867 228.141 75.9133 228.015 75.6C227.888 75.28 227.825 74.93 227.825 74.55C227.825 74.1967 227.885 73.8633 228.005 73.55C228.125 73.23 228.291 72.9533 228.505 72.72C228.725 72.48 228.988 72.29 229.295 72.15C229.601 72.01 229.941 71.94 230.315 71.94C230.695 71.94 231.031 72.0033 231.325 72.13C231.625 72.2567 231.878 72.4333 232.085 72.66C232.291 72.8867 232.448 73.16 232.555 73.48C232.668 73.8 232.725 74.15 232.725 74.53C232.725 74.5633 232.725 74.5933 232.725 74.62C232.718 74.6533 232.715 74.6833 232.715 74.71C232.708 74.7367 232.705 74.7633 232.705 74.79H228.935C228.955 75.0233 229.011 75.2267 229.105 75.4C229.198 75.5733 229.311 75.7167 229.445 75.83C229.585 75.9433 229.738 76.0267 229.905 76.08C230.071 76.1333 230.235 76.16 230.395 76.16C230.715 76.16 230.978 76.0833 231.185 75.93C231.391 75.7767 231.561 75.5867 231.695 75.36L232.645 75.83ZM231.615 73.94C231.601 73.84 231.568 73.73 231.515 73.61C231.468 73.4833 231.391 73.37 231.285 73.27C231.185 73.1633 231.051 73.0733 230.885 73C230.725 72.9267 230.528 72.89 230.295 72.89C229.975 72.89 229.698 72.9867 229.465 73.18C229.238 73.3667 229.085 73.62 229.005 73.94H231.615ZM238.052 75.83C237.846 76.21 237.552 76.5267 237.172 76.78C236.792 77.0333 236.326 77.16 235.772 77.16C235.406 77.16 235.066 77.0967 234.752 76.97C234.446 76.8367 234.179 76.6533 233.952 76.42C233.726 76.1867 233.549 75.9133 233.422 75.6C233.296 75.28 233.232 74.93 233.232 74.55C233.232 74.1967 233.292 73.8633 233.412 73.55C233.532 73.23 233.699 72.9533 233.912 72.72C234.132 72.48 234.396 72.29 234.702 72.15C235.009 72.01 235.349 71.94 235.722 71.94C236.102 71.94 236.439 72.0033 236.732 72.13C237.032 72.2567 237.286 72.4333 237.492 72.66C237.699 72.8867 237.856 73.16 237.962 73.48C238.076 73.8 238.132 74.15 238.132 74.53C238.132 74.5633 238.132 74.5933 238.132 74.62C238.126 74.6533 238.122 74.6833 238.122 74.71C238.116 74.7367 238.112 74.7633 238.112 74.79H234.342C234.362 75.0233 234.419 75.2267 234.512 75.4C234.606 75.5733 234.719 75.7167 234.852 75.83C234.992 75.9433 235.146 76.0267 235.312 76.08C235.479 76.1333 235.642 76.16 235.802 76.16C236.122 76.16 236.386 76.0833 236.592 75.93C236.799 75.7767 236.969 75.5867 237.102 75.36L238.052 75.83ZM237.022 73.94C237.009 73.84 236.976 73.73 236.922 73.61C236.876 73.4833 236.799 73.37 236.692 73.27C236.592 73.1633 236.459 73.0733 236.292 73C236.132 72.9267 235.936 72.89 235.702 72.89C235.382 72.89 235.106 72.9867 234.872 73.18C234.646 73.3667 234.492 73.62 234.412 73.94H237.022ZM240.969 72.1H242.019V72.76H242.079C242.232 72.52 242.445 72.3233 242.719 72.17C242.992 72.0167 243.282 71.94 243.589 71.94C243.955 71.94 244.269 72.0267 244.529 72.2C244.795 72.3667 244.989 72.5867 245.109 72.86C245.275 72.6 245.499 72.3833 245.779 72.21C246.059 72.03 246.395 71.94 246.789 71.94C247.089 71.94 247.349 71.99 247.569 72.09C247.789 72.1833 247.969 72.3167 248.109 72.49C248.255 72.6633 248.365 72.8733 248.439 73.12C248.512 73.36 248.549 73.63 248.549 73.93V77H247.439V74.12C247.439 73.6933 247.355 73.3967 247.189 73.23C247.029 73.0567 246.792 72.97 246.479 72.97C246.299 72.97 246.135 73.01 245.989 73.09C245.849 73.17 245.729 73.28 245.629 73.42C245.529 73.5533 245.452 73.71 245.399 73.89C245.345 74.07 245.319 74.26 245.319 74.46V77H244.209V74.12C244.209 73.6933 244.122 73.3967 243.949 73.23C243.782 73.0567 243.539 72.97 243.219 72.97C243.045 72.97 242.889 73.01 242.749 73.09C242.609 73.17 242.489 73.28 242.389 73.42C242.289 73.5533 242.212 73.71 242.159 73.89C242.105 74.07 242.079 74.26 242.079 74.46V77H240.969V72.1ZM251.811 71.94C252.184 71.94 252.527 72.0067 252.841 72.14C253.154 72.2667 253.424 72.4467 253.651 72.68C253.877 72.9133 254.054 73.19 254.181 73.51C254.307 73.83 254.371 74.1767 254.371 74.55C254.371 74.9233 254.307 75.27 254.181 75.59C254.054 75.91 253.877 76.1867 253.651 76.42C253.424 76.6533 253.154 76.8367 252.841 76.97C252.527 77.0967 252.184 77.16 251.811 77.16C251.437 77.16 251.094 77.0967 250.781 76.97C250.467 76.8367 250.197 76.6533 249.971 76.42C249.744 76.1867 249.567 75.91 249.441 75.59C249.314 75.27 249.251 74.9233 249.251 74.55C249.251 74.1767 249.314 73.83 249.441 73.51C249.567 73.19 249.744 72.9133 249.971 72.68C250.197 72.4467 250.467 72.2667 250.781 72.14C251.094 72.0067 251.437 71.94 251.811 71.94ZM251.811 76.13C251.997 76.13 252.177 76.0933 252.351 76.02C252.524 75.9467 252.677 75.8433 252.811 75.71C252.951 75.5767 253.061 75.4133 253.141 75.22C253.221 75.02 253.261 74.7967 253.261 74.55C253.261 74.3033 253.221 74.0833 253.141 73.89C253.061 73.69 252.951 73.5233 252.811 73.39C252.677 73.2567 252.524 73.1533 252.351 73.08C252.177 73.0067 251.997 72.97 251.811 72.97C251.624 72.97 251.444 73.0067 251.271 73.08C251.097 73.1533 250.941 73.2567 250.801 73.39C250.667 73.5233 250.561 73.69 250.481 73.89C250.401 74.0833 250.361 74.3033 250.361 74.55C250.361 74.7967 250.401 75.02 250.481 75.22C250.561 75.4133 250.667 75.5767 250.801 75.71C250.941 75.8433 251.097 75.9467 251.271 76.02C251.444 76.0933 251.624 76.13 251.811 76.13ZM255.017 72.1H256.067V72.84H256.127C256.187 72.7133 256.267 72.5967 256.367 72.49C256.473 72.3767 256.59 72.2833 256.717 72.21C256.85 72.13 256.987 72.07 257.127 72.03C257.273 71.9833 257.413 71.96 257.547 71.96C257.707 71.96 257.843 71.9733 257.957 72C258.07 72.0267 258.173 72.0633 258.267 72.11L257.947 73.14C257.873 73.1067 257.79 73.0833 257.697 73.07C257.61 73.05 257.503 73.04 257.377 73.04C257.197 73.04 257.03 73.0767 256.877 73.15C256.73 73.2233 256.6 73.3233 256.487 73.45C256.373 73.5767 256.283 73.7267 256.217 73.9C256.157 74.0733 256.127 74.2567 256.127 74.45V77H255.017V72.1ZM263.002 75.83C262.795 76.21 262.502 76.5267 262.122 76.78C261.742 77.0333 261.275 77.16 260.722 77.16C260.355 77.16 260.015 77.0967 259.702 76.97C259.395 76.8367 259.128 76.6533 258.902 76.42C258.675 76.1867 258.498 75.9133 258.372 75.6C258.245 75.28 258.182 74.93 258.182 74.55C258.182 74.1967 258.242 73.8633 258.362 73.55C258.482 73.23 258.648 72.9533 258.862 72.72C259.082 72.48 259.345 72.29 259.652 72.15C259.958 72.01 260.298 71.94 260.672 71.94C261.052 71.94 261.388 72.0033 261.682 72.13C261.982 72.2567 262.235 72.4333 262.442 72.66C262.648 72.8867 262.805 73.16 262.912 73.48C263.025 73.8 263.082 74.15 263.082 74.53C263.082 74.5633 263.082 74.5933 263.082 74.62C263.075 74.6533 263.072 74.6833 263.072 74.71C263.065 74.7367 263.062 74.7633 263.062 74.79H259.292C259.312 75.0233 259.368 75.2267 259.462 75.4C259.555 75.5733 259.668 75.7167 259.802 75.83C259.942 75.9433 260.095 76.0267 260.262 76.08C260.428 76.1333 260.592 76.16 260.752 76.16C261.072 76.16 261.335 76.0833 261.542 75.93C261.748 75.7767 261.918 75.5867 262.052 75.36L263.002 75.83ZM261.972 73.94C261.958 73.84 261.925 73.73 261.872 73.61C261.825 73.4833 261.748 73.37 261.642 73.27C261.542 73.1633 261.408 73.0733 261.242 73C261.082 72.9267 260.885 72.89 260.652 72.89C260.332 72.89 260.055 72.9867 259.822 73.18C259.595 73.3667 259.442 73.62 259.362 73.94H261.972Z" fill="#A0A0A0"/>
</g>
<defs>
<filter id="filter0_dd_279_294" x="0" y="0" width="295" height="119" filterUnits="userSpaceOnUse" color-interpolation-filters="sRGB">
<feFlood flood-opacity="0" result="BackgroundImageFix"/>
<feColorMatrix in="SourceAlpha" type="matrix" values="0 0 0 0 0 0 0 0 0 0 0 0 0 0 0 0 0 0 127 0" result="hardAlpha"/>
<feMorphology radius="4" operator="dilate" in="SourceAlpha" result="effect1_dropShadow_279_294"/>
<feOffset dx="-2" dy="4"/>
<feGaussianBlur stdDeviation="10"/>
<feComposite in2="hardAlpha" operator="out"/>
<feColorMatrix type="matrix" values="0 0 0 0 0.1875 0 0 0 0 0.1875 0 0 0 0 0.1875 0 0 0 0.15 0"/>
<feBlend mode="normal" in2="BackgroundImageFix" result="effect1_dropShadow_279_294"/>
<feColorMatrix in="SourceAlpha" type="matrix" values="0 0 0 0 0 0 0 0 0 0 0 0 0 0 0 0 0 0 127 0" result="hardAlpha"/>
<feMorphology radius="2" operator="erode" in="SourceAlpha" result="effect2_dropShadow_279_294"/>
<feOffset dx="3"/>
<feGaussianBlur stdDeviation="10"/>
<feComposite in2="hardAlpha" operator="out"/>
<feColorMatrix type="matrix" values="0 0 0 0 0.188235 0 0 0 0 0.188235 0 0 0 0 0.188235 0 0 0 0.15 0"/>
<feBlend mode="normal" in2="effect1_dropShadow_279_294" result="effect2_dropShadow_279_294"/>
<feBlend mode="normal" in="SourceGraphic" in2="effect2_dropShadow_279_294" result="shape"/>
</filter>
</defs>
</svg>
