<svg width="156" height="74" viewBox="0 0 156 74" fill="none" xmlns="http://www.w3.org/2000/svg">
<rect width="156" height="73.9571" rx="10" fill="white"/>
<path d="M14.74 18.16C14.22 18.16 13.71 17.99 13.21 17.65C12.7167 17.31 12.3933 16.8333 12.24 16.22L13.08 15.88C13.18 16.2733 13.3833 16.6067 13.69 16.88C14.0033 17.1467 14.3533 17.28 14.74 17.28C15.14 17.28 15.48 17.1767 15.76 16.97C16.0467 16.7567 16.19 16.47 16.19 16.11C16.19 15.71 16.0467 15.4033 15.76 15.19C15.48 14.97 15.0333 14.7667 14.42 14.58C13.7867 14.38 13.3067 14.1233 12.98 13.81C12.6533 13.49 12.49 13.0833 12.49 12.59C12.49 12.0767 12.6933 11.63 13.1 11.25C13.5067 10.87 14.0367 10.68 14.69 10.68C15.2967 10.68 15.79 10.8333 16.17 11.14C16.55 11.44 16.7967 11.77 16.91 12.13L16.07 12.48C16.01 12.2533 15.86 12.0433 15.62 11.85C15.3867 11.6567 15.0833 11.56 14.71 11.56C14.3567 11.56 14.0533 11.66 13.8 11.86C13.5533 12.0533 13.43 12.2967 13.43 12.59C13.43 12.8567 13.5433 13.0833 13.77 13.27C14.0033 13.45 14.3433 13.6133 14.79 13.76C15.1433 13.8733 15.4367 13.9833 15.67 14.09C15.91 14.1967 16.15 14.34 16.39 14.52C16.6367 14.6933 16.82 14.9133 16.94 15.18C17.0667 15.44 17.13 15.7433 17.13 16.09C17.13 16.4367 17.0567 16.7467 16.91 17.02C16.77 17.2933 16.58 17.51 16.34 17.67C16.1067 17.83 15.8533 17.95 15.58 18.03C15.3067 18.1167 15.0267 18.16 14.74 18.16ZM19.6373 18.16C19.1173 18.16 18.6807 18.01 18.3273 17.71C17.9807 17.41 17.8073 17.0133 17.8073 16.52C17.8073 15.9867 18.014 15.57 18.4273 15.27C18.8407 14.9633 19.3507 14.81 19.9573 14.81C20.4973 14.81 20.9407 14.91 21.2873 15.11V14.97C21.2873 14.61 21.164 14.3233 20.9173 14.11C20.6707 13.89 20.3673 13.78 20.0073 13.78C19.7407 13.78 19.4973 13.8433 19.2773 13.97C19.064 14.0967 18.9173 14.27 18.8373 14.49L17.9973 14.13C18.1107 13.8367 18.334 13.5667 18.6673 13.32C19.0007 13.0667 19.4407 12.94 19.9873 12.94C20.614 12.94 21.134 13.1233 21.5473 13.49C21.9607 13.8567 22.1673 14.3733 22.1673 15.04V18H21.2873V17.32H21.2473C20.8807 17.88 20.344 18.16 19.6373 18.16ZM19.7873 17.32C20.1673 17.32 20.5107 17.18 20.8173 16.9C21.1307 16.6133 21.2873 16.2767 21.2873 15.89C21.0273 15.6767 20.6373 15.57 20.1173 15.57C19.6707 15.57 19.334 15.6667 19.1073 15.86C18.8807 16.0533 18.7673 16.28 18.7673 16.54C18.7673 16.78 18.8707 16.97 19.0773 17.11C19.284 17.25 19.5207 17.32 19.7873 17.32ZM24.1245 18H23.2045V10.84H24.1245V18ZM27.4167 18.16C26.6767 18.16 26.0734 17.9133 25.6067 17.42C25.1467 16.9267 24.9167 16.3033 24.9167 15.55C24.9167 14.8367 25.1401 14.2233 25.5867 13.71C26.0401 13.1967 26.6167 12.94 27.3167 12.94C28.0434 12.94 28.6234 13.1767 29.0567 13.65C29.4967 14.1233 29.7167 14.7567 29.7167 15.55L29.7067 15.72H25.8367C25.8634 16.2133 26.0267 16.6033 26.3267 16.89C26.6334 17.1767 26.9901 17.32 27.3967 17.32C28.0567 17.32 28.5034 17.04 28.7367 16.48L29.5567 16.82C29.3967 17.2 29.1334 17.52 28.7667 17.78C28.4001 18.0333 27.9501 18.16 27.4167 18.16ZM28.7367 14.96C28.7167 14.68 28.5867 14.4133 28.3467 14.16C28.1134 13.9067 27.7634 13.78 27.2967 13.78C26.9567 13.78 26.6601 13.8867 26.4067 14.1C26.1601 14.3133 25.9901 14.6 25.8967 14.96H28.7367ZM32.4269 18.16C31.8802 18.16 31.4269 18.0267 31.0669 17.76C30.7135 17.4933 30.4535 17.16 30.2869 16.76L31.1069 16.42C31.3669 17.0333 31.8102 17.34 32.4369 17.34C32.7235 17.34 32.9569 17.2767 33.1369 17.15C33.3235 17.0233 33.4169 16.8567 33.4169 16.65C33.4169 16.33 33.1935 16.1133 32.7469 16L31.7569 15.76C31.4435 15.68 31.1469 15.53 30.8669 15.31C30.5869 15.0833 30.4469 14.78 30.4469 14.4C30.4469 13.9667 30.6369 13.6167 31.0169 13.35C31.4035 13.0767 31.8602 12.94 32.3869 12.94C32.8202 12.94 33.2069 13.04 33.5469 13.24C33.8869 13.4333 34.1302 13.7133 34.2769 14.08L33.4769 14.41C33.2969 13.9767 32.9235 13.76 32.3569 13.76C32.0835 13.76 31.8535 13.8167 31.6669 13.93C31.4802 14.0433 31.3869 14.1967 31.3869 14.39C31.3869 14.67 31.6035 14.86 32.0369 14.96L33.0069 15.19C33.4669 15.2967 33.8069 15.48 34.0269 15.74C34.2469 16 34.3569 16.2933 34.3569 16.62C34.3569 17.06 34.1769 17.4267 33.8169 17.72C33.4569 18.0133 32.9935 18.16 32.4269 18.16ZM37.5149 18V10.84H39.9549C40.5616 10.84 41.0849 11.0433 41.5249 11.45C41.9716 11.85 42.1949 12.3567 42.1949 12.97C42.1949 13.47 42.0316 13.9133 41.7049 14.3C41.3783 14.68 40.9716 14.92 40.4849 15.02L40.4649 15.05L42.4749 17.96V18H41.3849L39.4549 15.1H38.4349V18H37.5149ZM38.4349 14.24H39.9149C40.2816 14.24 40.5949 14.12 40.8549 13.88C41.1216 13.64 41.2549 13.3367 41.2549 12.97C41.2549 12.6567 41.1383 12.37 40.9049 12.11C40.6716 11.85 40.3616 11.72 39.9749 11.72H38.4349V14.24ZM45.2585 18.16C44.5185 18.16 43.9152 17.9133 43.4485 17.42C42.9885 16.9267 42.7585 16.3033 42.7585 15.55C42.7585 14.8367 42.9818 14.2233 43.4285 13.71C43.8818 13.1967 44.4585 12.94 45.1585 12.94C45.8852 12.94 46.4652 13.1767 46.8985 13.65C47.3385 14.1233 47.5585 14.7567 47.5585 15.55L47.5485 15.72H43.6785C43.7052 16.2133 43.8685 16.6033 44.1685 16.89C44.4752 17.1767 44.8318 17.32 45.2385 17.32C45.8985 17.32 46.3452 17.04 46.5785 16.48L47.3985 16.82C47.2385 17.2 46.9752 17.52 46.6085 17.78C46.2418 18.0333 45.7918 18.16 45.2585 18.16ZM46.5785 14.96C46.5585 14.68 46.4285 14.4133 46.1885 14.16C45.9552 13.9067 45.6052 13.78 45.1385 13.78C44.7985 13.78 44.5018 13.8867 44.2485 14.1C44.0018 14.3133 43.8318 14.6 43.7385 14.96H46.5785ZM49.7622 18L47.7822 13.1H48.7822L50.2222 16.9H50.2422L51.7022 13.1H52.6822L50.6822 18H49.7622ZM55.3562 18.16C54.6162 18.16 54.0128 17.9133 53.5462 17.42C53.0862 16.9267 52.8562 16.3033 52.8562 15.55C52.8562 14.8367 53.0795 14.2233 53.5262 13.71C53.9795 13.1967 54.5562 12.94 55.2562 12.94C55.9828 12.94 56.5628 13.1767 56.9962 13.65C57.4362 14.1233 57.6562 14.7567 57.6562 15.55L57.6462 15.72H53.7762C53.8028 16.2133 53.9662 16.6033 54.2662 16.89C54.5728 17.1767 54.9295 17.32 55.3362 17.32C55.9962 17.32 56.4428 17.04 56.6762 16.48L57.4962 16.82C57.3362 17.2 57.0728 17.52 56.7062 17.78C56.3395 18.0333 55.8895 18.16 55.3562 18.16ZM56.6762 14.96C56.6562 14.68 56.5262 14.4133 56.2862 14.16C56.0528 13.9067 55.7028 13.78 55.2362 13.78C54.8962 13.78 54.5995 13.8867 54.3462 14.1C54.0995 14.3133 53.9295 14.6 53.8362 14.96H56.6762ZM59.3775 13.1V13.78H59.4175C59.5508 13.5467 59.7608 13.35 60.0475 13.19C60.3342 13.0233 60.6408 12.94 60.9675 12.94C61.5742 12.94 62.0375 13.1267 62.3575 13.5C62.6775 13.8733 62.8375 14.3733 62.8375 15V18H61.9175V15.14C61.9175 14.2333 61.5142 13.78 60.7075 13.78C60.3275 13.78 60.0175 13.9333 59.7775 14.24C59.5375 14.54 59.4175 14.89 59.4175 15.29V18H58.4975V13.1H59.3775ZM68.2174 18H67.3374V17.32H67.2974C67.1574 17.5533 66.9441 17.7533 66.6574 17.92C66.3708 18.08 66.0674 18.16 65.7474 18.16C65.1341 18.16 64.6674 17.9733 64.3474 17.6C64.0341 17.2267 63.8774 16.7267 63.8774 16.1V13.1H64.7974V15.95C64.7974 16.8633 65.2008 17.32 66.0074 17.32C66.3874 17.32 66.6974 17.1667 66.9374 16.86C67.1774 16.5533 67.2974 16.2 67.2974 15.8V13.1H68.2174V18ZM71.5085 18.16C70.7685 18.16 70.1652 17.9133 69.6985 17.42C69.2385 16.9267 69.0085 16.3033 69.0085 15.55C69.0085 14.8367 69.2318 14.2233 69.6785 13.71C70.1318 13.1967 70.7085 12.94 71.4085 12.94C72.1352 12.94 72.7152 13.1767 73.1485 13.65C73.5885 14.1233 73.8085 14.7567 73.8085 15.55L73.7985 15.72H69.9285C69.9552 16.2133 70.1185 16.6033 70.4185 16.89C70.7252 17.1767 71.0818 17.32 71.4885 17.32C72.1485 17.32 72.5952 17.04 72.8285 16.48L73.6485 16.82C73.4885 17.2 73.2252 17.52 72.8585 17.78C72.4918 18.0333 72.0418 18.16 71.5085 18.16ZM72.8285 14.96C72.8085 14.68 72.6785 14.4133 72.4385 14.16C72.2052 13.9067 71.8552 13.78 71.3885 13.78C71.0485 13.78 70.7518 13.8867 70.4985 14.1C70.2518 14.3133 70.0818 14.6 69.9885 14.96H72.8285Z" fill="black"/>
<path d="M137.712 17.3L140.429 14.5833C140.75 14.2625 140.75 13.7375 140.429 13.4167L137.712 10.7" stroke="#8C8B8B" stroke-miterlimit="10" stroke-linecap="round" stroke-linejoin="round"/>
<path d="M12.952 41V37.542H12.14V36.506H12.952V35.498H12.14V34.462H12.952V31.004H15.15L16.242 34.462H17.516V31.004H19.07V34.462H19.868V35.498H19.07V36.506H19.868V37.542H19.07V41H16.858L15.738 37.542H14.506V41H12.952ZM14.506 36.506H15.43L15.122 35.498H14.478L14.506 36.506ZM17.558 38.816H17.628L17.572 37.542H17.194L17.558 38.816ZM14.45 34.462H14.842L14.436 33.118H14.38L14.45 34.462ZM16.9 36.506H17.544L17.516 35.498H16.578L16.9 36.506ZM24.0437 41.224C23.5304 41.224 23.0591 41.1493 22.6297 41C22.2097 40.8507 21.8457 40.65 21.5377 40.398C21.2297 40.1367 20.9917 39.8333 20.8237 39.488C20.6557 39.1333 20.5717 38.7507 20.5717 38.34C20.5717 38.06 20.6091 37.7987 20.6837 37.556C20.7677 37.3133 20.8751 37.094 21.0057 36.898C21.1457 36.702 21.3044 36.5293 21.4817 36.38C21.6591 36.2307 21.8457 36.1047 22.0417 36.002V35.89C21.7337 35.6847 21.4631 35.414 21.2297 35.078C21.0057 34.742 20.8937 34.35 20.8937 33.902C20.8937 33.5193 20.9731 33.1647 21.1317 32.838C21.2904 32.502 21.5097 32.2127 21.7897 31.97C22.0697 31.7273 22.4011 31.5407 22.7837 31.41C23.1664 31.27 23.5864 31.2 24.0437 31.2C24.5011 31.2 24.9211 31.27 25.3037 31.41C25.6864 31.5407 26.0177 31.7273 26.2977 31.97C26.5777 32.2127 26.7971 32.502 26.9557 32.838C27.1144 33.1647 27.1937 33.5193 27.1937 33.902C27.1937 34.35 27.0771 34.742 26.8437 35.078C26.6197 35.414 26.3537 35.6847 26.0457 35.89V36.002C26.2417 36.1047 26.4284 36.2307 26.6057 36.38C26.7831 36.5293 26.9371 36.702 27.0677 36.898C27.2077 37.094 27.3151 37.3133 27.3897 37.556C27.4737 37.7987 27.5157 38.06 27.5157 38.34C27.5157 38.7507 27.4317 39.1333 27.2637 39.488C27.0957 39.8333 26.8577 40.1367 26.5497 40.398C26.2417 40.65 25.8731 40.8507 25.4437 41C25.0237 41.1493 24.5571 41.224 24.0437 41.224ZM24.0437 35.204C24.4357 35.204 24.7624 35.0967 25.0237 34.882C25.2851 34.658 25.4157 34.3687 25.4157 34.014C25.4157 33.65 25.2851 33.3653 25.0237 33.16C24.7624 32.9453 24.4357 32.838 24.0437 32.838C23.6517 32.838 23.3251 32.9453 23.0637 33.16C22.8024 33.3653 22.6717 33.65 22.6717 34.014C22.6717 34.3687 22.8024 34.658 23.0637 34.882C23.3251 35.0967 23.6517 35.204 24.0437 35.204ZM24.0437 39.53C24.5197 39.53 24.9117 39.4087 25.2197 39.166C25.5277 38.914 25.6817 38.578 25.6817 38.158C25.6817 37.962 25.6397 37.7847 25.5557 37.626C25.4717 37.458 25.3551 37.3133 25.2057 37.192C25.0657 37.0707 24.8931 36.9773 24.6877 36.912C24.4917 36.8467 24.2771 36.814 24.0437 36.814C23.8104 36.814 23.5911 36.8467 23.3857 36.912C23.1897 36.9773 23.0171 37.0707 22.8677 37.192C22.7277 37.3133 22.6157 37.458 22.5317 37.626C22.4477 37.7847 22.4057 37.962 22.4057 38.158C22.4057 38.578 22.5597 38.914 22.8677 39.166C23.1757 39.4087 23.5677 39.53 24.0437 39.53ZM32.7121 41.224C32.0961 41.224 31.5408 41.098 31.0461 40.846C30.5515 40.5847 30.1268 40.23 29.7721 39.782C29.4268 39.334 29.1608 38.8067 28.9741 38.2C28.7875 37.584 28.6941 36.9213 28.6941 36.212C28.6941 35.5027 28.7875 34.8447 28.9741 34.238C29.1608 33.622 29.4268 33.09 29.7721 32.642C30.1268 32.194 30.5515 31.844 31.0461 31.592C31.5408 31.3307 32.0961 31.2 32.7121 31.2C33.3281 31.2 33.8835 31.3307 34.3781 31.592C34.8728 31.844 35.2928 32.194 35.6381 32.642C35.9928 33.09 36.2635 33.622 36.4501 34.238C36.6368 34.8447 36.7301 35.5027 36.7301 36.212C36.7301 36.9213 36.6368 37.584 36.4501 38.2C36.2635 38.8067 35.9928 39.334 35.6381 39.782C35.2928 40.23 34.8728 40.5847 34.3781 40.846C33.8835 41.098 33.3281 41.224 32.7121 41.224ZM32.7121 39.488C33.0481 39.488 33.3515 39.4087 33.6221 39.25C33.8928 39.082 34.1215 38.8533 34.3081 38.564C34.5041 38.2653 34.6488 37.9153 34.7421 37.514C34.8448 37.1127 34.8961 36.6787 34.8961 36.212C34.8961 35.736 34.8448 35.302 34.7421 34.91C34.6488 34.5087 34.5041 34.1633 34.3081 33.874C34.1215 33.5753 33.8928 33.3467 33.6221 33.188C33.3515 33.02 33.0481 32.936 32.7121 32.936C32.3668 32.936 32.0588 33.02 31.7881 33.188C31.5175 33.3467 31.2888 33.5753 31.1021 33.874C30.9155 34.1633 30.7708 34.5087 30.6681 34.91C30.5748 35.302 30.5281 35.736 30.5281 36.212C30.5281 36.6787 30.5748 37.1127 30.6681 37.514C30.7708 37.9153 30.9155 38.2653 31.1021 38.564C31.2888 38.8533 31.5175 39.082 31.7881 39.25C32.0588 39.4087 32.3668 39.488 32.7121 39.488ZM37.9637 42.246L38.7897 40.972C38.5843 40.8973 38.407 40.762 38.2577 40.566C38.1177 40.37 38.0477 40.1367 38.0477 39.866C38.0477 39.53 38.1643 39.2453 38.3977 39.012C38.6403 38.7787 38.9297 38.662 39.2657 38.662C39.6017 38.662 39.8863 38.7787 40.1197 39.012C40.353 39.2453 40.4697 39.53 40.4697 39.866C40.4697 40.0433 40.4417 40.202 40.3857 40.342C40.3297 40.4727 40.241 40.6267 40.1197 40.804L38.7897 42.792L37.9637 42.246ZM45.7824 41.224C45.1664 41.224 44.6111 41.098 44.1164 40.846C43.6218 40.5847 43.1971 40.23 42.8424 39.782C42.4971 39.334 42.2311 38.8067 42.0444 38.2C41.8578 37.584 41.7644 36.9213 41.7644 36.212C41.7644 35.5027 41.8578 34.8447 42.0444 34.238C42.2311 33.622 42.4971 33.09 42.8424 32.642C43.1971 32.194 43.6218 31.844 44.1164 31.592C44.6111 31.3307 45.1664 31.2 45.7824 31.2C46.3984 31.2 46.9538 31.3307 47.4484 31.592C47.9431 31.844 48.3631 32.194 48.7084 32.642C49.0631 33.09 49.3338 33.622 49.5204 34.238C49.7071 34.8447 49.8004 35.5027 49.8004 36.212C49.8004 36.9213 49.7071 37.584 49.5204 38.2C49.3338 38.8067 49.0631 39.334 48.7084 39.782C48.3631 40.23 47.9431 40.5847 47.4484 40.846C46.9538 41.098 46.3984 41.224 45.7824 41.224ZM45.7824 39.488C46.1184 39.488 46.4218 39.4087 46.6924 39.25C46.9631 39.082 47.1918 38.8533 47.3784 38.564C47.5744 38.2653 47.7191 37.9153 47.8124 37.514C47.9151 37.1127 47.9664 36.6787 47.9664 36.212C47.9664 35.736 47.9151 35.302 47.8124 34.91C47.7191 34.5087 47.5744 34.1633 47.3784 33.874C47.1918 33.5753 46.9631 33.3467 46.6924 33.188C46.4218 33.02 46.1184 32.936 45.7824 32.936C45.4371 32.936 45.1291 33.02 44.8584 33.188C44.5878 33.3467 44.3591 33.5753 44.1724 33.874C43.9858 34.1633 43.8411 34.5087 43.7384 34.91C43.6451 35.302 43.5984 35.736 43.5984 36.212C43.5984 36.6787 43.6451 37.1127 43.7384 37.514C43.8411 37.9153 43.9858 38.2653 44.1724 38.564C44.3591 38.8533 44.5878 39.082 44.8584 39.25C45.1291 39.4087 45.4371 39.488 45.7824 39.488ZM55.052 41.224C54.436 41.224 53.8806 41.098 53.386 40.846C52.8913 40.5847 52.4666 40.23 52.112 39.782C51.7666 39.334 51.5006 38.8067 51.314 38.2C51.1273 37.584 51.034 36.9213 51.034 36.212C51.034 35.5027 51.1273 34.8447 51.314 34.238C51.5006 33.622 51.7666 33.09 52.112 32.642C52.4666 32.194 52.8913 31.844 53.386 31.592C53.8806 31.3307 54.436 31.2 55.052 31.2C55.668 31.2 56.2233 31.3307 56.718 31.592C57.2126 31.844 57.6326 32.194 57.978 32.642C58.3326 33.09 58.6033 33.622 58.79 34.238C58.9766 34.8447 59.07 35.5027 59.07 36.212C59.07 36.9213 58.9766 37.584 58.79 38.2C58.6033 38.8067 58.3326 39.334 57.978 39.782C57.6326 40.23 57.2126 40.5847 56.718 40.846C56.2233 41.098 55.668 41.224 55.052 41.224ZM55.052 39.488C55.388 39.488 55.6913 39.4087 55.962 39.25C56.2326 39.082 56.4613 38.8533 56.648 38.564C56.844 38.2653 56.9886 37.9153 57.082 37.514C57.1846 37.1127 57.236 36.6787 57.236 36.212C57.236 35.736 57.1846 35.302 57.082 34.91C56.9886 34.5087 56.844 34.1633 56.648 33.874C56.4613 33.5753 56.2326 33.3467 55.962 33.188C55.6913 33.02 55.388 32.936 55.052 32.936C54.7066 32.936 54.3986 33.02 54.128 33.188C53.8573 33.3467 53.6286 33.5753 53.442 33.874C53.2553 34.1633 53.1106 34.5087 53.008 34.91C52.9146 35.302 52.868 35.736 52.868 36.212C52.868 36.6787 52.9146 37.1127 53.008 37.514C53.1106 37.9153 53.2553 38.2653 53.442 38.564C53.6286 38.8533 53.8573 39.082 54.128 39.25C54.3986 39.4087 54.7066 39.488 55.052 39.488ZM64.3215 41.224C63.7055 41.224 63.1502 41.098 62.6555 40.846C62.1608 40.5847 61.7362 40.23 61.3815 39.782C61.0362 39.334 60.7702 38.8067 60.5835 38.2C60.3968 37.584 60.3035 36.9213 60.3035 36.212C60.3035 35.5027 60.3968 34.8447 60.5835 34.238C60.7702 33.622 61.0362 33.09 61.3815 32.642C61.7362 32.194 62.1608 31.844 62.6555 31.592C63.1502 31.3307 63.7055 31.2 64.3215 31.2C64.9375 31.2 65.4928 31.3307 65.9875 31.592C66.4822 31.844 66.9022 32.194 67.2475 32.642C67.6022 33.09 67.8728 33.622 68.0595 34.238C68.2462 34.8447 68.3395 35.5027 68.3395 36.212C68.3395 36.9213 68.2462 37.584 68.0595 38.2C67.8728 38.8067 67.6022 39.334 67.2475 39.782C66.9022 40.23 66.4822 40.5847 65.9875 40.846C65.4928 41.098 64.9375 41.224 64.3215 41.224ZM64.3215 39.488C64.6575 39.488 64.9608 39.4087 65.2315 39.25C65.5022 39.082 65.7308 38.8533 65.9175 38.564C66.1135 38.2653 66.2582 37.9153 66.3515 37.514C66.4542 37.1127 66.5055 36.6787 66.5055 36.212C66.5055 35.736 66.4542 35.302 66.3515 34.91C66.2582 34.5087 66.1135 34.1633 65.9175 33.874C65.7308 33.5753 65.5022 33.3467 65.2315 33.188C64.9608 33.02 64.6575 32.936 64.3215 32.936C63.9762 32.936 63.6682 33.02 63.3975 33.188C63.1268 33.3467 62.8982 33.5753 62.7115 33.874C62.5248 34.1633 62.3802 34.5087 62.2775 34.91C62.1842 35.302 62.1375 35.736 62.1375 36.212C62.1375 36.6787 62.1842 37.1127 62.2775 37.514C62.3802 37.9153 62.5248 38.2653 62.7115 38.564C62.8982 38.8533 63.1268 39.082 63.3975 39.25C63.6682 39.4087 63.9762 39.488 64.3215 39.488ZM69.573 42.246L70.399 40.972C70.1937 40.8973 70.0164 40.762 69.867 40.566C69.727 40.37 69.657 40.1367 69.657 39.866C69.657 39.53 69.7737 39.2453 70.007 39.012C70.2497 38.7787 70.539 38.662 70.875 38.662C71.211 38.662 71.4957 38.7787 71.729 39.012C71.9624 39.2453 72.079 39.53 72.079 39.866C72.079 40.0433 72.051 40.202 71.995 40.342C71.939 40.4727 71.8504 40.6267 71.729 40.804L70.399 42.792L69.573 42.246ZM77.3918 41.224C76.7758 41.224 76.2205 41.098 75.7258 40.846C75.2311 40.5847 74.8065 40.23 74.4518 39.782C74.1065 39.334 73.8405 38.8067 73.6538 38.2C73.4671 37.584 73.3738 36.9213 73.3738 36.212C73.3738 35.5027 73.4671 34.8447 73.6538 34.238C73.8405 33.622 74.1065 33.09 74.4518 32.642C74.8065 32.194 75.2311 31.844 75.7258 31.592C76.2205 31.3307 76.7758 31.2 77.3918 31.2C78.0078 31.2 78.5631 31.3307 79.0578 31.592C79.5525 31.844 79.9725 32.194 80.3178 32.642C80.6725 33.09 80.9431 33.622 81.1298 34.238C81.3165 34.8447 81.4098 35.5027 81.4098 36.212C81.4098 36.9213 81.3165 37.584 81.1298 38.2C80.9431 38.8067 80.6725 39.334 80.3178 39.782C79.9725 40.23 79.5525 40.5847 79.0578 40.846C78.5631 41.098 78.0078 41.224 77.3918 41.224ZM77.3918 39.488C77.7278 39.488 78.0311 39.4087 78.3018 39.25C78.5725 39.082 78.8011 38.8533 78.9878 38.564C79.1838 38.2653 79.3285 37.9153 79.4218 37.514C79.5245 37.1127 79.5758 36.6787 79.5758 36.212C79.5758 35.736 79.5245 35.302 79.4218 34.91C79.3285 34.5087 79.1838 34.1633 78.9878 33.874C78.8011 33.5753 78.5725 33.3467 78.3018 33.188C78.0311 33.02 77.7278 32.936 77.3918 32.936C77.0465 32.936 76.7385 33.02 76.4678 33.188C76.1971 33.3467 75.9685 33.5753 75.7818 33.874C75.5951 34.1633 75.4505 34.5087 75.3478 34.91C75.2545 35.302 75.2078 35.736 75.2078 36.212C75.2078 36.6787 75.2545 37.1127 75.3478 37.514C75.4505 37.9153 75.5951 38.2653 75.7818 38.564C75.9685 38.8533 76.1971 39.082 76.4678 39.25C76.7385 39.4087 77.0465 39.488 77.3918 39.488ZM86.6613 41.224C86.0453 41.224 85.49 41.098 84.9953 40.846C84.5007 40.5847 84.076 40.23 83.7213 39.782C83.376 39.334 83.11 38.8067 82.9233 38.2C82.7367 37.584 82.6433 36.9213 82.6433 36.212C82.6433 35.5027 82.7367 34.8447 82.9233 34.238C83.11 33.622 83.376 33.09 83.7213 32.642C84.076 32.194 84.5007 31.844 84.9953 31.592C85.49 31.3307 86.0453 31.2 86.6613 31.2C87.2773 31.2 87.8327 31.3307 88.3273 31.592C88.822 31.844 89.242 32.194 89.5873 32.642C89.942 33.09 90.2127 33.622 90.3993 34.238C90.586 34.8447 90.6793 35.5027 90.6793 36.212C90.6793 36.9213 90.586 37.584 90.3993 38.2C90.2127 38.8067 89.942 39.334 89.5873 39.782C89.242 40.23 88.822 40.5847 88.3273 40.846C87.8327 41.098 87.2773 41.224 86.6613 41.224ZM86.6613 39.488C86.9973 39.488 87.3007 39.4087 87.5713 39.25C87.842 39.082 88.0707 38.8533 88.2573 38.564C88.4533 38.2653 88.598 37.9153 88.6913 37.514C88.794 37.1127 88.8453 36.6787 88.8453 36.212C88.8453 35.736 88.794 35.302 88.6913 34.91C88.598 34.5087 88.4533 34.1633 88.2573 33.874C88.0707 33.5753 87.842 33.3467 87.5713 33.188C87.3007 33.02 86.9973 32.936 86.6613 32.936C86.316 32.936 86.008 33.02 85.7373 33.188C85.4667 33.3467 85.238 33.5753 85.0513 33.874C84.8647 34.1633 84.72 34.5087 84.6173 34.91C84.524 35.302 84.4773 35.736 84.4773 36.212C84.4773 36.6787 84.524 37.1127 84.6173 37.514C84.72 37.9153 84.8647 38.2653 85.0513 38.564C85.238 38.8533 85.4667 39.082 85.7373 39.25C86.008 39.4087 86.316 39.488 86.6613 39.488ZM95.9309 41.224C95.3149 41.224 94.7595 41.098 94.2649 40.846C93.7702 40.5847 93.3455 40.23 92.9909 39.782C92.6455 39.334 92.3795 38.8067 92.1929 38.2C92.0062 37.584 91.9129 36.9213 91.9129 36.212C91.9129 35.5027 92.0062 34.8447 92.1929 34.238C92.3795 33.622 92.6455 33.09 92.9909 32.642C93.3455 32.194 93.7702 31.844 94.2649 31.592C94.7595 31.3307 95.3149 31.2 95.9309 31.2C96.5469 31.2 97.1022 31.3307 97.5969 31.592C98.0915 31.844 98.5115 32.194 98.8569 32.642C99.2115 33.09 99.4822 33.622 99.6689 34.238C99.8555 34.8447 99.9489 35.5027 99.9489 36.212C99.9489 36.9213 99.8555 37.584 99.6689 38.2C99.4822 38.8067 99.2115 39.334 98.8569 39.782C98.5115 40.23 98.0915 40.5847 97.5969 40.846C97.1022 41.098 96.5469 41.224 95.9309 41.224ZM95.9309 39.488C96.2669 39.488 96.5702 39.4087 96.8409 39.25C97.1115 39.082 97.3402 38.8533 97.5269 38.564C97.7229 38.2653 97.8675 37.9153 97.9609 37.514C98.0635 37.1127 98.1149 36.6787 98.1149 36.212C98.1149 35.736 98.0635 35.302 97.9609 34.91C97.8675 34.5087 97.7229 34.1633 97.5269 33.874C97.3402 33.5753 97.1115 33.3467 96.8409 33.188C96.5702 33.02 96.2669 32.936 95.9309 32.936C95.5855 32.936 95.2775 33.02 95.0069 33.188C94.7362 33.3467 94.5075 33.5753 94.3209 33.874C94.1342 34.1633 93.9895 34.5087 93.8869 34.91C93.7935 35.302 93.7469 35.736 93.7469 36.212C93.7469 36.6787 93.7935 37.1127 93.8869 37.514C93.9895 37.9153 94.1342 38.2653 94.3209 38.564C94.5075 38.8533 94.7362 39.082 95.0069 39.25C95.2775 39.4087 95.5855 39.488 95.9309 39.488Z" fill="black"/>
<path d="M13.672 50.9786V46.5786L12.656 47.0186L12.32 46.2586L13.928 45.5066H14.56V50.9786H13.672ZM17.8344 51.1066C17.4877 51.1066 17.1757 51.0346 16.8984 50.8906C16.6264 50.7412 16.3917 50.5386 16.1944 50.2826C15.997 50.0212 15.845 49.7172 15.7384 49.3706C15.637 49.0186 15.5864 48.6426 15.5864 48.2426C15.5864 47.8426 15.637 47.4692 15.7384 47.1226C15.845 46.7706 15.997 46.4666 16.1944 46.2106C16.3917 45.9492 16.6264 45.7466 16.8984 45.6026C17.1757 45.4532 17.4877 45.3786 17.8344 45.3786C18.1757 45.3786 18.485 45.4532 18.7624 45.6026C19.0397 45.7466 19.2744 45.9492 19.4664 46.2106C19.6637 46.4666 19.8157 46.7706 19.9224 47.1226C20.029 47.4692 20.0824 47.8426 20.0824 48.2426C20.0824 48.6426 20.029 49.0186 19.9224 49.3706C19.8157 49.7172 19.6637 50.0212 19.4664 50.2826C19.2744 50.5386 19.0397 50.7412 18.7624 50.8906C18.485 51.0346 18.1757 51.1066 17.8344 51.1066ZM17.8344 50.2666C18.0424 50.2666 18.229 50.2159 18.3944 50.1146C18.565 50.0079 18.7064 49.8639 18.8184 49.6826C18.9357 49.5012 19.0237 49.2879 19.0824 49.0426C19.1464 48.7919 19.1784 48.5252 19.1784 48.2426C19.1784 47.9546 19.1464 47.6879 19.0824 47.4426C19.0237 47.1972 18.9357 46.9839 18.8184 46.8026C18.7064 46.6212 18.565 46.4799 18.3944 46.3786C18.229 46.2719 18.0424 46.2186 17.8344 46.2186C17.6264 46.2186 17.437 46.2719 17.2664 46.3786C17.101 46.4799 16.9597 46.6212 16.8424 46.8026C16.7304 46.9839 16.6424 47.1972 16.5784 47.4426C16.5197 47.6879 16.4904 47.9546 16.4904 48.2426C16.4904 48.5252 16.5197 48.7919 16.5784 49.0426C16.6424 49.2879 16.7304 49.5012 16.8424 49.6826C16.9597 49.8639 17.101 50.0079 17.2664 50.1146C17.437 50.2159 17.6264 50.2666 17.8344 50.2666ZM20.6935 46.7466C20.6935 46.5599 20.7282 46.3839 20.7975 46.2186C20.8722 46.0532 20.9708 45.9092 21.0935 45.7866C21.2215 45.6586 21.3682 45.5599 21.5335 45.4906C21.7042 45.4159 21.8882 45.3786 22.0855 45.3786C22.2775 45.3786 22.4588 45.4159 22.6295 45.4906C22.8002 45.5599 22.9468 45.6586 23.0695 45.7866C23.1922 45.9092 23.2882 46.0532 23.3575 46.2186C23.4322 46.3839 23.4695 46.5599 23.4695 46.7466C23.4695 46.9332 23.4322 47.1092 23.3575 47.2746C23.2882 47.4399 23.1922 47.5866 23.0695 47.7146C22.9468 47.8372 22.8002 47.9359 22.6295 48.0106C22.4588 48.0799 22.2775 48.1146 22.0855 48.1146C21.8882 48.1146 21.7042 48.0799 21.5335 48.0106C21.3682 47.9359 21.2215 47.8372 21.0935 47.7146C20.9708 47.5866 20.8722 47.4399 20.7975 47.2746C20.7282 47.1092 20.6935 46.9332 20.6935 46.7466ZM21.4215 46.7466C21.4215 46.9492 21.4855 47.1172 21.6135 47.2506C21.7415 47.3839 21.8988 47.4506 22.0855 47.4506C22.2722 47.4506 22.4295 47.3839 22.5575 47.2506C22.6855 47.1172 22.7495 46.9492 22.7495 46.7466C22.7495 46.5386 22.6855 46.3706 22.5575 46.2426C22.4295 46.1092 22.2722 46.0426 22.0855 46.0426C21.8988 46.0426 21.7415 46.1092 21.6135 46.2426C21.4855 46.3706 21.4215 46.5386 21.4215 46.7466ZM21.6935 50.7146L25.2535 45.4106L25.7895 45.7786L22.2375 51.0746L21.6935 50.7146ZM24.0215 49.7386C24.0215 49.5519 24.0562 49.3759 24.1255 49.2106C24.2002 49.0452 24.2988 48.9012 24.4215 48.7786C24.5495 48.6506 24.6962 48.5519 24.8615 48.4826C25.0322 48.4079 25.2162 48.3706 25.4135 48.3706C25.6055 48.3706 25.7868 48.4079 25.9575 48.4826C26.1282 48.5519 26.2748 48.6506 26.3975 48.7786C26.5202 48.9012 26.6162 49.0452 26.6855 49.2106C26.7602 49.3759 26.7975 49.5519 26.7975 49.7386C26.7975 49.9252 26.7602 50.1012 26.6855 50.2666C26.6162 50.4319 26.5202 50.5786 26.3975 50.7066C26.2748 50.8292 26.1282 50.9252 25.9575 50.9946C25.7868 51.0692 25.6055 51.1066 25.4135 51.1066C25.2162 51.1066 25.0322 51.0692 24.8615 50.9946C24.6962 50.9252 24.5495 50.8292 24.4215 50.7066C24.2988 50.5786 24.2002 50.4319 24.1255 50.2666C24.0562 50.1012 24.0215 49.9252 24.0215 49.7386ZM24.7495 49.7386C24.7495 49.9412 24.8135 50.1092 24.9415 50.2426C25.0695 50.3759 25.2268 50.4426 25.4135 50.4426C25.6002 50.4426 25.7575 50.3759 25.8855 50.2426C26.0135 50.1092 26.0775 49.9412 26.0775 49.7386C26.0775 49.5306 26.0135 49.3626 25.8855 49.2346C25.7575 49.1012 25.6002 49.0346 25.4135 49.0346C25.2268 49.0346 25.0695 49.1012 24.9415 49.2346C24.8135 49.3626 24.7495 49.5306 24.7495 49.7386Z" fill="#1B963C"/>
<path d="M30.0605 46.0746C29.9592 46.1759 29.8365 46.2266 29.6925 46.2266C29.5485 46.2266 29.4258 46.1759 29.3245 46.0746C29.2232 45.9732 29.1725 45.8506 29.1725 45.7066C29.1725 45.5626 29.2232 45.4399 29.3245 45.3386C29.4258 45.2372 29.5485 45.1866 29.6925 45.1866C29.8365 45.1866 29.9592 45.2372 30.0605 45.3386C30.1618 45.4399 30.2125 45.5626 30.2125 45.7066C30.2125 45.8506 30.1618 45.9732 30.0605 46.0746ZM30.0605 50.9786H29.3245V47.0586H30.0605V50.9786ZM31.7223 47.0586V47.6026H31.7543C31.861 47.4159 32.029 47.2586 32.2583 47.1306C32.4876 46.9972 32.733 46.9306 32.9943 46.9306C33.4796 46.9306 33.8503 47.0799 34.1063 47.3786C34.3623 47.6772 34.4903 48.0772 34.4903 48.5786V50.9786H33.7543V48.6906C33.7543 47.9652 33.4316 47.6026 32.7863 47.6026C32.4823 47.6026 32.2343 47.7252 32.0423 47.9706C31.8503 48.2106 31.7543 48.4906 31.7543 48.8106V50.9786H31.0183V47.0586H31.7223ZM37.1463 51.1066C36.5596 51.1066 36.0769 50.9092 35.6983 50.5146C35.3196 50.1146 35.1303 49.6159 35.1303 49.0186C35.1303 48.4212 35.3196 47.9252 35.6983 47.5306C36.0769 47.1306 36.5596 46.9306 37.1463 46.9306C37.5836 46.9306 37.9463 47.0372 38.2343 47.2506C38.5223 47.4639 38.7329 47.7332 38.8663 48.0586L38.1943 48.3386C37.9916 47.8479 37.6263 47.6026 37.0983 47.6026C36.7729 47.6026 36.4849 47.7359 36.2343 48.0026C35.9889 48.2692 35.8663 48.6079 35.8663 49.0186C35.8663 49.4292 35.9889 49.7679 36.2343 50.0346C36.4849 50.3012 36.7729 50.4346 37.0983 50.4346C37.6476 50.4346 38.0263 50.1892 38.2343 49.6986L38.8903 49.9786C38.7569 50.2986 38.5409 50.5679 38.2423 50.7866C37.9489 50.9999 37.5836 51.1066 37.1463 51.1066ZM40.2309 50.9786H39.4949V47.0586H40.1989V47.6986H40.2309C40.3055 47.4852 40.4575 47.3092 40.6869 47.1706C40.9215 47.0319 41.1482 46.9626 41.3669 46.9626C41.5855 46.9626 41.7695 46.9946 41.9189 47.0586L41.6389 47.7466C41.5429 47.7092 41.4122 47.6906 41.2469 47.6906C40.9802 47.6906 40.7429 47.7972 40.5349 48.0106C40.3322 48.2186 40.2309 48.4932 40.2309 48.8346V50.9786ZM43.9349 51.1066C43.3429 51.1066 42.8603 50.9092 42.4869 50.5146C42.1189 50.1199 41.9349 49.6212 41.9349 49.0186C41.9349 48.4479 42.1136 47.9572 42.4709 47.5466C42.8336 47.1359 43.2949 46.9306 43.8549 46.9306C44.4363 46.9306 44.9003 47.1199 45.2469 47.4986C45.5989 47.8772 45.7749 48.3839 45.7749 49.0186L45.7669 49.1546H42.6709C42.6923 49.5492 42.8229 49.8612 43.0629 50.0906C43.3083 50.3199 43.5936 50.4346 43.9189 50.4346C44.4469 50.4346 44.8043 50.2106 44.9909 49.7626L45.6469 50.0346C45.5189 50.3386 45.3083 50.5946 45.0149 50.8026C44.7216 51.0052 44.3616 51.1066 43.9349 51.1066ZM44.9909 48.5466C44.9749 48.3226 44.8709 48.1092 44.6789 47.9066C44.4923 47.7039 44.2123 47.6026 43.8389 47.6026C43.5669 47.6026 43.3296 47.6879 43.1269 47.8586C42.9296 48.0292 42.7936 48.2586 42.7189 48.5466H44.9909ZM47.7271 51.1066C47.3111 51.1066 46.9617 50.9866 46.6791 50.7466C46.4017 50.5066 46.2631 50.1892 46.2631 49.7946C46.2631 49.3679 46.4284 49.0346 46.7591 48.7946C47.0897 48.5492 47.4977 48.4266 47.9831 48.4266C48.4151 48.4266 48.7697 48.5066 49.0471 48.6666V48.5546C49.0471 48.2666 48.9484 48.0372 48.7511 47.8666C48.5537 47.6906 48.3111 47.6026 48.0231 47.6026C47.8097 47.6026 47.6151 47.6532 47.4391 47.7546C47.2684 47.8559 47.1511 47.9946 47.0871 48.1706L46.4151 47.8826C46.5057 47.6479 46.6844 47.4319 46.9511 47.2346C47.2177 47.0319 47.5697 46.9306 48.0071 46.9306C48.5084 46.9306 48.9244 47.0772 49.2551 47.3706C49.5857 47.6639 49.7511 48.0772 49.7511 48.6106V50.9786H49.0471V50.4346H49.0151C48.7217 50.8826 48.2924 51.1066 47.7271 51.1066ZM47.8471 50.4346C48.1511 50.4346 48.4257 50.3226 48.6711 50.0986C48.9217 49.8692 49.0471 49.5999 49.0471 49.2906C48.8391 49.1199 48.5271 49.0346 48.1111 49.0346C47.7537 49.0346 47.4844 49.1119 47.3031 49.2666C47.1217 49.4212 47.0311 49.6026 47.0311 49.8106C47.0311 50.0026 47.1137 50.1546 47.2791 50.2666C47.4444 50.3786 47.6337 50.4346 47.8471 50.4346ZM51.9978 51.1066C51.5604 51.1066 51.1978 50.9999 50.9098 50.7866C50.6271 50.5732 50.4191 50.3066 50.2858 49.9866L50.9418 49.7146C51.1498 50.2052 51.5044 50.4506 52.0058 50.4506C52.2351 50.4506 52.4218 50.3999 52.5658 50.2986C52.7151 50.1972 52.7898 50.0639 52.7898 49.8986C52.7898 49.6426 52.6111 49.4692 52.2538 49.3786L51.4618 49.1866C51.2111 49.1226 50.9738 49.0026 50.7498 48.8266C50.5258 48.6452 50.4138 48.4026 50.4138 48.0986C50.4138 47.7519 50.5658 47.4719 50.8698 47.2586C51.1791 47.0399 51.5444 46.9306 51.9658 46.9306C52.3124 46.9306 52.6218 47.0106 52.8938 47.1706C53.1658 47.3252 53.3604 47.5492 53.4778 47.8426L52.8378 48.1066C52.6938 47.7599 52.3951 47.5866 51.9418 47.5866C51.7231 47.5866 51.5391 47.6319 51.3898 47.7226C51.2404 47.8132 51.1658 47.9359 51.1658 48.0906C51.1658 48.3146 51.3391 48.4666 51.6858 48.5466L52.4618 48.7306C52.8298 48.8159 53.1018 48.9626 53.2778 49.1706C53.4538 49.3786 53.5418 49.6132 53.5418 49.8746C53.5418 50.2266 53.3978 50.5199 53.1098 50.7546C52.8218 50.9892 52.4511 51.1066 51.9978 51.1066ZM55.9974 51.1066C55.4054 51.1066 54.9228 50.9092 54.5494 50.5146C54.1814 50.1199 53.9974 49.6212 53.9974 49.0186C53.9974 48.4479 54.1761 47.9572 54.5334 47.5466C54.8961 47.1359 55.3574 46.9306 55.9174 46.9306C56.4988 46.9306 56.9628 47.1199 57.3094 47.4986C57.6614 47.8772 57.8374 48.3839 57.8374 49.0186L57.8294 49.1546H54.7334C54.7548 49.5492 54.8854 49.8612 55.1254 50.0906C55.3708 50.3199 55.6561 50.4346 55.9814 50.4346C56.5094 50.4346 56.8668 50.2106 57.0534 49.7626L57.7094 50.0346C57.5814 50.3386 57.3708 50.5946 57.0774 50.8026C56.7841 51.0052 56.4241 51.1066 55.9974 51.1066ZM57.0534 48.5466C57.0374 48.3226 56.9334 48.1092 56.7414 47.9066C56.5548 47.7039 56.2748 47.6026 55.9014 47.6026C55.6294 47.6026 55.3921 47.6879 55.1894 47.8586C54.9921 48.0292 54.8561 48.2586 54.7814 48.5466H57.0534ZM61.9643 51.0426C61.5536 51.0426 61.239 50.9332 61.0203 50.7146C60.807 50.4959 60.7003 50.1866 60.7003 49.7866V47.7306H60.0123V47.0586H60.7003V45.8586H61.4363V47.0586H62.3963V47.7306H61.4363V49.7306C61.4363 50.1572 61.6123 50.3706 61.9643 50.3706C62.0976 50.3706 62.2096 50.3492 62.3003 50.3066L62.5563 50.9386C62.3963 51.0079 62.199 51.0426 61.9643 51.0426ZM63.8715 45.2506V47.0586L63.8395 47.6026H63.8715C63.9782 47.4159 64.1462 47.2586 64.3755 47.1306C64.6048 46.9972 64.8502 46.9306 65.1115 46.9306C65.5968 46.9306 65.9675 47.0799 66.2235 47.3786C66.4795 47.6772 66.6075 48.0772 66.6075 48.5786V50.9786H65.8715V48.6906C65.8715 47.9652 65.5488 47.6026 64.9035 47.6026C64.5995 47.6026 64.3515 47.7252 64.1595 47.9706C63.9675 48.2106 63.8715 48.4906 63.8715 48.8106V50.9786H63.1355V45.2506H63.8715ZM68.2714 46.0746C68.1701 46.1759 68.0474 46.2266 67.9034 46.2266C67.7594 46.2266 67.6368 46.1759 67.5354 46.0746C67.4341 45.9732 67.3834 45.8506 67.3834 45.7066C67.3834 45.5626 67.4341 45.4399 67.5354 45.3386C67.6368 45.2372 67.7594 45.1866 67.9034 45.1866C68.0474 45.1866 68.1701 45.2372 68.2714 45.3386C68.3728 45.4399 68.4234 45.5626 68.4234 45.7066C68.4234 45.8506 68.3728 45.9732 68.2714 46.0746ZM68.2714 50.9786H67.5354V47.0586H68.2714V50.9786ZM70.6853 51.1066C70.2479 51.1066 69.8853 50.9999 69.5973 50.7866C69.3146 50.5732 69.1066 50.3066 68.9733 49.9866L69.6293 49.7146C69.8373 50.2052 70.1919 50.4506 70.6933 50.4506C70.9226 50.4506 71.1093 50.3999 71.2533 50.2986C71.4026 50.1972 71.4773 50.0639 71.4773 49.8986C71.4773 49.6426 71.2986 49.4692 70.9413 49.3786L70.1493 49.1866C69.8986 49.1226 69.6613 49.0026 69.4373 48.8266C69.2133 48.6452 69.1013 48.4026 69.1013 48.0986C69.1013 47.7519 69.2533 47.4719 69.5573 47.2586C69.8666 47.0399 70.2319 46.9306 70.6533 46.9306C70.9999 46.9306 71.3093 47.0106 71.5813 47.1706C71.8533 47.3252 72.0479 47.5492 72.1653 47.8426L71.5253 48.1066C71.3813 47.7599 71.0826 47.5866 70.6293 47.5866C70.4106 47.5866 70.2266 47.6319 70.0773 47.7226C69.9279 47.8132 69.8533 47.9359 69.8533 48.0906C69.8533 48.3146 70.0266 48.4666 70.3733 48.5466L71.1493 48.7306C71.5173 48.8159 71.7893 48.9626 71.9653 49.1706C72.1413 49.3786 72.2293 49.6132 72.2293 49.8746C72.2293 50.2266 72.0853 50.5199 71.7973 50.7546C71.5093 50.9892 71.1386 51.1066 70.6853 51.1066ZM12.448 60.9786V57.0586H13.152V57.6026H13.184C13.296 57.4159 13.4667 57.2586 13.696 57.1306C13.9307 56.9972 14.1627 56.9306 14.392 56.9306C15 56.9306 15.4133 57.1812 15.632 57.6826C15.952 57.1812 16.408 56.9306 17 56.9306C17.464 56.9306 17.8133 57.0799 18.048 57.3786C18.2827 57.6719 18.4 58.0719 18.4 58.5786V60.9786H17.664V58.6906C17.664 58.2959 17.592 58.0159 17.448 57.8506C17.304 57.6852 17.0853 57.6026 16.792 57.6026C16.504 57.6026 16.264 57.7252 16.072 57.9706C15.8853 58.2159 15.792 58.4959 15.792 58.8106V60.9786H15.056V58.6906C15.056 58.2959 14.984 58.0159 14.84 57.8506C14.696 57.6852 14.4773 57.6026 14.184 57.6026C13.896 57.6026 13.656 57.7252 13.464 57.9706C13.2773 58.2159 13.184 58.4959 13.184 58.8106V60.9786H12.448ZM19.6045 57.5306C19.9832 57.1306 20.4658 56.9306 21.0525 56.9306C21.6392 56.9306 22.1218 57.1306 22.5005 57.5306C22.8792 57.9252 23.0685 58.4212 23.0685 59.0186C23.0685 59.6159 22.8792 60.1146 22.5005 60.5146C22.1218 60.9092 21.6392 61.1066 21.0525 61.1066C20.4658 61.1066 19.9832 60.9092 19.6045 60.5146C19.2258 60.1146 19.0365 59.6159 19.0365 59.0186C19.0365 58.4212 19.2258 57.9252 19.6045 57.5306ZM20.1485 60.0506C20.4045 60.3066 20.7058 60.4346 21.0525 60.4346C21.3992 60.4346 21.6978 60.3066 21.9485 60.0506C22.2045 59.7892 22.3325 59.4452 22.3325 59.0186C22.3325 58.5919 22.2045 58.2506 21.9485 57.9946C21.6978 57.7332 21.3992 57.6026 21.0525 57.6026C20.7058 57.6026 20.4045 57.7332 20.1485 57.9946C19.8978 58.2506 19.7725 58.5919 19.7725 59.0186C19.7725 59.4452 19.8978 59.7892 20.1485 60.0506ZM24.3629 57.0586V57.6026H24.3949C24.5016 57.4159 24.6696 57.2586 24.8989 57.1306C25.1283 56.9972 25.3736 56.9306 25.6349 56.9306C26.1203 56.9306 26.4909 57.0799 26.7469 57.3786C27.0029 57.6772 27.1309 58.0772 27.1309 58.5786V60.9786H26.3949V58.6906C26.3949 57.9652 26.0723 57.6026 25.4269 57.6026C25.1229 57.6026 24.8749 57.7252 24.6829 57.9706C24.4909 58.2106 24.3949 58.4906 24.3949 58.8106V60.9786H23.6589V57.0586H24.3629ZM29.4878 61.0426C29.0771 61.0426 28.7624 60.9332 28.5438 60.7146C28.3304 60.4959 28.2238 60.1866 28.2238 59.7866V57.7306H27.5358V57.0586H28.2238V55.8586H28.9598V57.0586H29.9198V57.7306H28.9598V59.7306C28.9598 60.1572 29.1358 60.3706 29.4878 60.3706C29.6211 60.3706 29.7331 60.3492 29.8238 60.3066L30.0798 60.9386C29.9198 61.0079 29.7224 61.0426 29.4878 61.0426ZM31.3949 55.2506V57.0586L31.3629 57.6026H31.3949C31.5016 57.4159 31.6696 57.2586 31.8989 57.1306C32.1283 56.9972 32.3736 56.9306 32.6349 56.9306C33.1203 56.9306 33.4909 57.0799 33.7469 57.3786C34.0029 57.6772 34.1309 58.0772 34.1309 58.5786V60.9786H33.3949V58.6906C33.3949 57.9652 33.0723 57.6026 32.4269 57.6026C32.1229 57.6026 31.8749 57.7252 31.6829 57.9706C31.4909 58.2106 31.3949 58.4906 31.3949 58.8106V60.9786H30.6589V55.2506H31.3949Z" fill="#8C8B8B"/>
<path d="M107 65.6286L111.991 61.8856C112.167 61.7533 112.32 61.5927 112.444 61.4103L117.428 54.0821C117.696 53.688 118.095 53.4026 118.555 53.2772L128.686 50.5143L136.665 47.1386C137.032 46.9831 137.345 46.7213 137.562 46.3867L141.5 40.3286" stroke="#4EE91F" stroke-width="1.5" stroke-linecap="round"/>
<path d="M141.5 65.9571V40L137.557 47.2286L128.686 50.8429L117.843 54.1286L112.586 61.6857L107.328 65.9571H141.5Z" fill="url(#paint0_linear_316_167)" fill-opacity="0.2"/>
<defs>
<linearGradient id="paint0_linear_316_167" x1="124.743" y1="53.1429" x2="130.986" y2="68.9143" gradientUnits="userSpaceOnUse">
<stop stop-color="#4EE91F"/>
<stop offset="1" stop-color="#4EE91F" stop-opacity="0"/>
</linearGradient>
</defs>
</svg>
