<svg width="187" height="96" viewBox="0 0 187 96" fill="none" xmlns="http://www.w3.org/2000/svg">
<rect y="0.5" width="186.5" height="95.5" rx="10" fill="white"/>
<path d="M15.288 20.692C14.664 20.692 14.052 20.488 13.452 20.08C12.86 19.672 12.472 19.1 12.288 18.364L13.296 17.956C13.416 18.428 13.66 18.828 14.028 19.156C14.404 19.476 14.824 19.636 15.288 19.636C15.768 19.636 16.176 19.512 16.512 19.264C16.856 19.008 17.028 18.664 17.028 18.232C17.028 17.752 16.856 17.384 16.512 17.128C16.176 16.864 15.64 16.62 14.904 16.396C14.144 16.156 13.568 15.848 13.176 15.472C12.784 15.088 12.588 14.6 12.588 14.008C12.588 13.392 12.832 12.856 13.32 12.4C13.808 11.944 14.444 11.716 15.228 11.716C15.956 11.716 16.548 11.9 17.004 12.268C17.46 12.628 17.756 13.024 17.892 13.456L16.884 13.876C16.812 13.604 16.632 13.352 16.344 13.12C16.064 12.888 15.7 12.772 15.252 12.772C14.828 12.772 14.464 12.892 14.16 13.132C13.864 13.364 13.716 13.656 13.716 14.008C13.716 14.328 13.852 14.6 14.124 14.824C14.404 15.04 14.812 15.236 15.348 15.412C15.772 15.548 16.124 15.68 16.404 15.808C16.692 15.936 16.98 16.108 17.268 16.324C17.564 16.532 17.784 16.796 17.928 17.116C18.08 17.428 18.156 17.792 18.156 18.208C18.156 18.624 18.068 18.996 17.892 19.324C17.724 19.652 17.496 19.912 17.208 20.104C16.928 20.296 16.624 20.44 16.296 20.536C15.968 20.64 15.632 20.692 15.288 20.692ZM21.1648 20.692C20.5408 20.692 20.0168 20.512 19.5928 20.152C19.1768 19.792 18.9688 19.316 18.9688 18.724C18.9688 18.084 19.2168 17.584 19.7128 17.224C20.2088 16.856 20.8208 16.672 21.5488 16.672C22.1968 16.672 22.7288 16.792 23.1448 17.032V16.864C23.1448 16.432 22.9968 16.088 22.7008 15.832C22.4048 15.568 22.0408 15.436 21.6088 15.436C21.2888 15.436 20.9968 15.512 20.7328 15.664C20.4768 15.816 20.3008 16.024 20.2048 16.288L19.1968 15.856C19.3328 15.504 19.6008 15.18 20.0008 14.884C20.4008 14.58 20.9288 14.428 21.5848 14.428C22.3368 14.428 22.9608 14.648 23.4568 15.088C23.9528 15.528 24.2008 16.148 24.2008 16.948V20.5H23.1448V19.684H23.0968C22.6568 20.356 22.0128 20.692 21.1648 20.692ZM21.3448 19.684C21.8008 19.684 22.2128 19.516 22.5808 19.18C22.9568 18.836 23.1448 18.432 23.1448 17.968C22.8328 17.712 22.3648 17.584 21.7408 17.584C21.2048 17.584 20.8008 17.7 20.5288 17.932C20.2568 18.164 20.1208 18.436 20.1208 18.748C20.1208 19.036 20.2448 19.264 20.4928 19.432C20.7408 19.6 21.0248 19.684 21.3448 19.684ZM26.5494 20.5H25.4454V11.908H26.5494V20.5ZM30.5001 20.692C29.6121 20.692 28.8881 20.396 28.3281 19.804C27.7761 19.212 27.5001 18.464 27.5001 17.56C27.5001 16.704 27.7681 15.968 28.3041 15.352C28.8481 14.736 29.5401 14.428 30.3801 14.428C31.2521 14.428 31.9481 14.712 32.4681 15.28C32.9961 15.848 33.2601 16.608 33.2601 17.56L33.2481 17.764H28.6041C28.6361 18.356 28.8321 18.824 29.1921 19.168C29.5601 19.512 29.9881 19.684 30.4761 19.684C31.2681 19.684 31.8041 19.348 32.0841 18.676L33.0681 19.084C32.8761 19.54 32.5601 19.924 32.1201 20.236C31.6801 20.54 31.1401 20.692 30.5001 20.692ZM32.0841 16.852C32.0601 16.516 31.9041 16.196 31.6161 15.892C31.3361 15.588 30.9161 15.436 30.3561 15.436C29.9481 15.436 29.5921 15.564 29.2881 15.82C28.9921 16.076 28.7881 16.42 28.6761 16.852H32.0841ZM36.5123 20.692C35.8563 20.692 35.3123 20.532 34.8803 20.212C34.4563 19.892 34.1443 19.492 33.9443 19.012L34.9283 18.604C35.2403 19.34 35.7723 19.708 36.5243 19.708C36.8683 19.708 37.1483 19.632 37.3643 19.48C37.5883 19.328 37.7003 19.128 37.7003 18.88C37.7003 18.496 37.4323 18.236 36.8963 18.1L35.7083 17.812C35.3323 17.716 34.9763 17.536 34.6403 17.272C34.3043 17 34.1363 16.636 34.1363 16.18C34.1363 15.66 34.3643 15.24 34.8203 14.92C35.2843 14.592 35.8323 14.428 36.4643 14.428C36.9843 14.428 37.4483 14.548 37.8563 14.788C38.2643 15.02 38.5563 15.356 38.7323 15.796L37.7723 16.192C37.5563 15.672 37.1083 15.412 36.4283 15.412C36.1003 15.412 35.8243 15.48 35.6003 15.616C35.3763 15.752 35.2643 15.936 35.2643 16.168C35.2643 16.504 35.5243 16.732 36.0443 16.852L37.2083 17.128C37.7603 17.256 38.1683 17.476 38.4323 17.788C38.6963 18.1 38.8283 18.452 38.8283 18.844C38.8283 19.372 38.6123 19.812 38.1803 20.164C37.7483 20.516 37.1923 20.692 36.5123 20.692ZM42.6179 20.5V11.908H45.5459C46.2739 11.908 46.9019 12.152 47.4299 12.64C47.9659 13.12 48.2339 13.728 48.2339 14.464C48.2339 15.064 48.0379 15.596 47.6459 16.06C47.2539 16.516 46.7659 16.804 46.1819 16.924L46.1579 16.96L48.5699 20.452V20.5H47.2619L44.9459 17.02H43.7219V20.5H42.6179ZM43.7219 15.988H45.4979C45.9379 15.988 46.3139 15.844 46.6259 15.556C46.9459 15.268 47.1059 14.904 47.1059 14.464C47.1059 14.088 46.9659 13.744 46.6859 13.432C46.4059 13.12 46.0339 12.964 45.5699 12.964H43.7219V15.988ZM51.9102 20.692C51.0222 20.692 50.2982 20.396 49.7382 19.804C49.1862 19.212 48.9102 18.464 48.9102 17.56C48.9102 16.704 49.1782 15.968 49.7142 15.352C50.2582 14.736 50.9502 14.428 51.7902 14.428C52.6622 14.428 53.3582 14.712 53.8782 15.28C54.4062 15.848 54.6702 16.608 54.6702 17.56L54.6582 17.764H50.0142C50.0462 18.356 50.2422 18.824 50.6022 19.168C50.9702 19.512 51.3982 19.684 51.8862 19.684C52.6782 19.684 53.2142 19.348 53.4942 18.676L54.4782 19.084C54.2862 19.54 53.9702 19.924 53.5302 20.236C53.0902 20.54 52.5502 20.692 51.9102 20.692ZM53.4942 16.852C53.4702 16.516 53.3142 16.196 53.0262 15.892C52.7462 15.588 52.3262 15.436 51.7662 15.436C51.3582 15.436 51.0022 15.564 50.6982 15.82C50.4022 16.076 50.1982 16.42 50.0862 16.852H53.4942ZM57.3146 20.5L54.9386 14.62H56.1386L57.8666 19.18H57.8906L59.6426 14.62H60.8186L58.4186 20.5H57.3146ZM64.0274 20.692C63.1394 20.692 62.4154 20.396 61.8554 19.804C61.3034 19.212 61.0274 18.464 61.0274 17.56C61.0274 16.704 61.2954 15.968 61.8314 15.352C62.3754 14.736 63.0674 14.428 63.9074 14.428C64.7794 14.428 65.4754 14.712 65.9954 15.28C66.5234 15.848 66.7874 16.608 66.7874 17.56L66.7754 17.764H62.1314C62.1634 18.356 62.3594 18.824 62.7194 19.168C63.0874 19.512 63.5154 19.684 64.0034 19.684C64.7954 19.684 65.3314 19.348 65.6114 18.676L66.5954 19.084C66.4034 19.54 66.0874 19.924 65.6474 20.236C65.2074 20.54 64.6674 20.692 64.0274 20.692ZM65.6114 16.852C65.5874 16.516 65.4314 16.196 65.1434 15.892C64.8634 15.588 64.4434 15.436 63.8834 15.436C63.4754 15.436 63.1194 15.564 62.8154 15.82C62.5194 16.076 62.3154 16.42 62.2034 16.852H65.6114ZM68.853 14.62V15.436H68.901C69.061 15.156 69.313 14.92 69.657 14.728C70.001 14.528 70.369 14.428 70.761 14.428C71.489 14.428 72.045 14.652 72.429 15.1C72.813 15.548 73.005 16.148 73.005 16.9V20.5H71.901V17.068C71.901 15.98 71.417 15.436 70.449 15.436C69.993 15.436 69.621 15.62 69.333 15.988C69.045 16.348 68.901 16.768 68.901 17.248V20.5H67.797V14.62H68.853ZM79.4609 20.5H78.4049V19.684H78.3569C78.1889 19.964 77.9329 20.204 77.5889 20.404C77.2449 20.596 76.8809 20.692 76.4969 20.692C75.7609 20.692 75.2009 20.468 74.8169 20.02C74.4409 19.572 74.2529 18.972 74.2529 18.22V14.62H75.3569V18.04C75.3569 19.136 75.8409 19.684 76.8089 19.684C77.2649 19.684 77.6369 19.5 77.9249 19.132C78.2129 18.764 78.3569 18.34 78.3569 17.86V14.62H79.4609V20.5ZM83.4102 20.692C82.5222 20.692 81.7982 20.396 81.2382 19.804C80.6862 19.212 80.4102 18.464 80.4102 17.56C80.4102 16.704 80.6782 15.968 81.2142 15.352C81.7582 14.736 82.4502 14.428 83.2902 14.428C84.1622 14.428 84.8582 14.712 85.3782 15.28C85.9062 15.848 86.1702 16.608 86.1702 17.56L86.1582 17.764H81.5142C81.5462 18.356 81.7422 18.824 82.1022 19.168C82.4702 19.512 82.8982 19.684 83.3862 19.684C84.1782 19.684 84.7142 19.348 84.9942 18.676L85.9782 19.084C85.7862 19.54 85.4702 19.924 85.0302 20.236C84.5902 20.54 84.0502 20.692 83.4102 20.692ZM84.9942 16.852C84.9702 16.516 84.8142 16.196 84.5262 15.892C84.2462 15.588 83.8262 15.436 83.2662 15.436C82.8582 15.436 82.5022 15.564 82.1982 15.82C81.9022 16.076 81.6982 16.42 81.5862 16.852H84.9942Z" fill="black"/>
<path d="M166.712 19.3L169.429 16.5833C169.75 16.2625 169.75 15.7375 169.429 15.4167L166.712 12.7" stroke="#8C8B8B" stroke-miterlimit="10" stroke-linecap="round" stroke-linejoin="round"/>
<path d="M13.584 48.5V43.874H12.18V42.722H13.584V41.246H12.18V40.094H13.584V35.648H15.456L17.166 40.094H19.29V35.648H20.712V40.094H22.116V41.246H20.712V42.722H22.116V43.874H20.712V48.5H18.822L17.112 43.874H14.988V48.5H13.584ZM14.988 42.722H16.68L16.14 41.246H14.952L14.988 42.722ZM19.29 45.962H19.362L19.308 43.874H18.552L19.29 45.962ZM14.952 40.094H15.708L14.952 37.862H14.88L14.952 40.094ZM18.12 42.722H19.326L19.29 41.246H17.58L18.12 42.722ZM27.3408 48.788C26.7168 48.788 26.1408 48.692 25.6128 48.5C25.0848 48.308 24.6288 48.05 24.2448 47.726C23.8608 47.39 23.5608 47 23.3448 46.556C23.1288 46.1 23.0208 45.608 23.0208 45.08C23.0208 44.72 23.0688 44.39 23.1648 44.09C23.2728 43.778 23.4168 43.496 23.5968 43.244C23.7768 42.992 23.9808 42.77 24.2088 42.578C24.4488 42.374 24.7008 42.206 24.9648 42.074V41.966C24.5448 41.69 24.1848 41.33 23.8848 40.886C23.5848 40.442 23.4348 39.938 23.4348 39.374C23.4348 38.882 23.5308 38.426 23.7228 38.006C23.9148 37.574 24.1848 37.202 24.5328 36.89C24.8808 36.578 25.2948 36.338 25.7748 36.17C26.2548 35.99 26.7768 35.9 27.3408 35.9C27.9048 35.9 28.4268 35.99 28.9068 36.17C29.3868 36.338 29.8008 36.578 30.1488 36.89C30.4968 37.202 30.7668 37.574 30.9588 38.006C31.1508 38.426 31.2468 38.882 31.2468 39.374C31.2468 39.938 31.0968 40.442 30.7968 40.886C30.4968 41.33 30.1368 41.69 29.7168 41.966V42.074C29.9808 42.206 30.2268 42.374 30.4548 42.578C30.6948 42.77 30.9048 42.992 31.0848 43.244C31.2648 43.496 31.4028 43.778 31.4988 44.09C31.6068 44.39 31.6608 44.72 31.6608 45.08C31.6608 45.608 31.5528 46.1 31.3368 46.556C31.1208 47 30.8208 47.39 30.4368 47.726C30.0528 48.05 29.5968 48.308 29.0688 48.5C28.5408 48.692 27.9648 48.788 27.3408 48.788ZM27.3408 41.174C27.8808 41.174 28.3308 41.024 28.6908 40.724C29.0628 40.412 29.2488 39.992 29.2488 39.464C29.2488 38.924 29.0628 38.504 28.6908 38.204C28.3308 37.904 27.8808 37.754 27.3408 37.754C26.8008 37.754 26.3448 37.904 25.9728 38.204C25.6128 38.504 25.4328 38.924 25.4328 39.464C25.4328 39.992 25.6128 40.412 25.9728 40.724C26.3448 41.024 26.8008 41.174 27.3408 41.174ZM27.3408 46.898C27.6648 46.898 27.9648 46.85 28.2408 46.754C28.5168 46.658 28.7568 46.526 28.9608 46.358C29.1768 46.19 29.3388 45.986 29.4468 45.746C29.5668 45.494 29.6268 45.224 29.6268 44.936C29.6268 44.648 29.5668 44.384 29.4468 44.144C29.3268 43.892 29.1648 43.682 28.9608 43.514C28.7568 43.346 28.5168 43.214 28.2408 43.118C27.9648 43.022 27.6648 42.974 27.3408 42.974C27.0168 42.974 26.7168 43.022 26.4408 43.118C26.1648 43.214 25.9248 43.346 25.7208 43.514C25.5168 43.682 25.3548 43.892 25.2348 44.144C25.1148 44.384 25.0548 44.648 25.0548 44.936C25.0548 45.224 25.1088 45.494 25.2168 45.746C25.3368 45.986 25.4988 46.19 25.7028 46.358C25.9188 46.526 26.1648 46.658 26.4408 46.754C26.7168 46.85 27.0168 46.898 27.3408 46.898ZM38.223 48.788C37.443 48.788 36.741 48.626 36.117 48.302C35.505 47.966 34.977 47.51 34.533 46.934C34.089 46.346 33.747 45.662 33.507 44.882C33.279 44.09 33.165 43.244 33.165 42.344C33.165 41.444 33.279 40.604 33.507 39.824C33.747 39.032 34.089 38.348 34.533 37.772C34.977 37.184 35.505 36.728 36.117 36.404C36.741 36.068 37.443 35.9 38.223 35.9C38.991 35.9 39.687 36.068 40.311 36.404C40.935 36.728 41.463 37.184 41.895 37.772C42.339 38.348 42.681 39.032 42.921 39.824C43.161 40.604 43.281 41.444 43.281 42.344C43.281 43.244 43.161 44.09 42.921 44.882C42.681 45.662 42.339 46.346 41.895 46.934C41.463 47.51 40.935 47.966 40.311 48.302C39.687 48.626 38.991 48.788 38.223 48.788ZM38.223 46.898C38.691 46.898 39.111 46.784 39.483 46.556C39.867 46.316 40.185 45.992 40.437 45.584C40.701 45.176 40.899 44.696 41.031 44.144C41.175 43.58 41.247 42.98 41.247 42.344C41.247 41.696 41.175 41.096 41.031 40.544C40.899 39.992 40.701 39.512 40.437 39.104C40.185 38.696 39.867 38.378 39.483 38.15C39.111 37.91 38.691 37.79 38.223 37.79C37.755 37.79 37.329 37.91 36.945 38.15C36.573 38.378 36.255 38.696 35.991 39.104C35.739 39.512 35.541 39.992 35.397 40.544C35.265 41.096 35.199 41.696 35.199 42.344C35.199 42.98 35.265 43.58 35.397 44.144C35.541 44.696 35.739 45.176 35.991 45.584C36.255 45.992 36.573 46.316 36.945 46.556C37.329 46.784 37.755 46.898 38.223 46.898ZM44.8721 50.066L45.8981 48.482C45.6581 48.41 45.4421 48.266 45.2501 48.05C45.0581 47.834 44.9621 47.558 44.9621 47.222C44.9621 46.838 45.0941 46.508 45.3581 46.232C45.6341 45.956 45.9641 45.818 46.3481 45.818C46.7321 45.818 47.0621 45.956 47.3381 46.232C47.6141 46.508 47.7521 46.838 47.7521 47.222C47.7521 47.462 47.7041 47.678 47.6081 47.87C47.5121 48.062 47.3921 48.266 47.2481 48.482L45.7901 50.66L44.8721 50.066ZM54.4652 48.788C53.6852 48.788 52.9832 48.626 52.3592 48.302C51.7472 47.966 51.2192 47.51 50.7752 46.934C50.3312 46.346 49.9892 45.662 49.7492 44.882C49.5212 44.09 49.4072 43.244 49.4072 42.344C49.4072 41.444 49.5212 40.604 49.7492 39.824C49.9892 39.032 50.3312 38.348 50.7752 37.772C51.2192 37.184 51.7472 36.728 52.3592 36.404C52.9832 36.068 53.6852 35.9 54.4652 35.9C55.2332 35.9 55.9292 36.068 56.5532 36.404C57.1772 36.728 57.7052 37.184 58.1372 37.772C58.5812 38.348 58.9232 39.032 59.1632 39.824C59.4032 40.604 59.5232 41.444 59.5232 42.344C59.5232 43.244 59.4032 44.09 59.1632 44.882C58.9232 45.662 58.5812 46.346 58.1372 46.934C57.7052 47.51 57.1772 47.966 56.5532 48.302C55.9292 48.626 55.2332 48.788 54.4652 48.788ZM54.4652 46.898C54.9332 46.898 55.3532 46.784 55.7252 46.556C56.1092 46.316 56.4272 45.992 56.6792 45.584C56.9432 45.176 57.1412 44.696 57.2732 44.144C57.4172 43.58 57.4892 42.98 57.4892 42.344C57.4892 41.696 57.4172 41.096 57.2732 40.544C57.1412 39.992 56.9432 39.512 56.6792 39.104C56.4272 38.696 56.1092 38.378 55.7252 38.15C55.3532 37.91 54.9332 37.79 54.4652 37.79C53.9972 37.79 53.5712 37.91 53.1872 38.15C52.8152 38.378 52.4972 38.696 52.2332 39.104C51.9812 39.512 51.7832 39.992 51.6392 40.544C51.5072 41.096 51.4412 41.696 51.4412 42.344C51.4412 42.98 51.5072 43.58 51.6392 44.144C51.7832 44.696 51.9812 45.176 52.2332 45.584C52.4972 45.992 52.8152 46.316 53.1872 46.556C53.5712 46.784 53.9972 46.898 54.4652 46.898ZM66.1723 48.788C65.3923 48.788 64.6903 48.626 64.0663 48.302C63.4543 47.966 62.9263 47.51 62.4823 46.934C62.0383 46.346 61.6963 45.662 61.4563 44.882C61.2283 44.09 61.1143 43.244 61.1143 42.344C61.1143 41.444 61.2283 40.604 61.4563 39.824C61.6963 39.032 62.0383 38.348 62.4823 37.772C62.9263 37.184 63.4543 36.728 64.0663 36.404C64.6903 36.068 65.3923 35.9 66.1723 35.9C66.9403 35.9 67.6363 36.068 68.2603 36.404C68.8843 36.728 69.4123 37.184 69.8443 37.772C70.2883 38.348 70.6303 39.032 70.8703 39.824C71.1103 40.604 71.2303 41.444 71.2303 42.344C71.2303 43.244 71.1103 44.09 70.8703 44.882C70.6303 45.662 70.2883 46.346 69.8443 46.934C69.4123 47.51 68.8843 47.966 68.2603 48.302C67.6363 48.626 66.9403 48.788 66.1723 48.788ZM66.1723 46.898C66.6403 46.898 67.0603 46.784 67.4323 46.556C67.8163 46.316 68.1343 45.992 68.3863 45.584C68.6503 45.176 68.8483 44.696 68.9803 44.144C69.1243 43.58 69.1963 42.98 69.1963 42.344C69.1963 41.696 69.1243 41.096 68.9803 40.544C68.8483 39.992 68.6503 39.512 68.3863 39.104C68.1343 38.696 67.8163 38.378 67.4323 38.15C67.0603 37.91 66.6403 37.79 66.1723 37.79C65.7043 37.79 65.2783 37.91 64.8943 38.15C64.5223 38.378 64.2043 38.696 63.9403 39.104C63.6883 39.512 63.4903 39.992 63.3463 40.544C63.2143 41.096 63.1483 41.696 63.1483 42.344C63.1483 42.98 63.2143 43.58 63.3463 44.144C63.4903 44.696 63.6883 45.176 63.9403 45.584C64.2043 45.992 64.5223 46.316 64.8943 46.556C65.2783 46.784 65.7043 46.898 66.1723 46.898ZM77.8793 48.788C77.0993 48.788 76.3973 48.626 75.7733 48.302C75.1613 47.966 74.6333 47.51 74.1893 46.934C73.7453 46.346 73.4033 45.662 73.1633 44.882C72.9353 44.09 72.8213 43.244 72.8213 42.344C72.8213 41.444 72.9353 40.604 73.1633 39.824C73.4033 39.032 73.7453 38.348 74.1893 37.772C74.6333 37.184 75.1613 36.728 75.7733 36.404C76.3973 36.068 77.0993 35.9 77.8793 35.9C78.6473 35.9 79.3433 36.068 79.9673 36.404C80.5913 36.728 81.1193 37.184 81.5513 37.772C81.9953 38.348 82.3373 39.032 82.5773 39.824C82.8173 40.604 82.9373 41.444 82.9373 42.344C82.9373 43.244 82.8173 44.09 82.5773 44.882C82.3373 45.662 81.9953 46.346 81.5513 46.934C81.1193 47.51 80.5913 47.966 79.9673 48.302C79.3433 48.626 78.6473 48.788 77.8793 48.788ZM77.8793 46.898C78.3473 46.898 78.7673 46.784 79.1393 46.556C79.5233 46.316 79.8413 45.992 80.0933 45.584C80.3573 45.176 80.5553 44.696 80.6873 44.144C80.8313 43.58 80.9033 42.98 80.9033 42.344C80.9033 41.696 80.8313 41.096 80.6873 40.544C80.5553 39.992 80.3573 39.512 80.0933 39.104C79.8413 38.696 79.5233 38.378 79.1393 38.15C78.7673 37.91 78.3473 37.79 77.8793 37.79C77.4113 37.79 76.9853 37.91 76.6013 38.15C76.2293 38.378 75.9113 38.696 75.6473 39.104C75.3953 39.512 75.1973 39.992 75.0533 40.544C74.9213 41.096 74.8553 41.696 74.8553 42.344C74.8553 42.98 74.9213 43.58 75.0533 44.144C75.1973 44.696 75.3953 45.176 75.6473 45.584C75.9113 45.992 76.2293 46.316 76.6013 46.556C76.9853 46.784 77.4113 46.898 77.8793 46.898ZM84.5283 50.066L85.5543 48.482C85.3143 48.41 85.0983 48.266 84.9063 48.05C84.7143 47.834 84.6183 47.558 84.6183 47.222C84.6183 46.838 84.7503 46.508 85.0143 46.232C85.2903 45.956 85.6203 45.818 86.0043 45.818C86.3883 45.818 86.7183 45.956 86.9943 46.232C87.2703 46.508 87.4083 46.838 87.4083 47.222C87.4083 47.462 87.3603 47.678 87.2643 47.87C87.1683 48.062 87.0483 48.266 86.9043 48.482L85.4463 50.66L84.5283 50.066ZM94.1215 48.788C93.3415 48.788 92.6395 48.626 92.0155 48.302C91.4035 47.966 90.8755 47.51 90.4315 46.934C89.9875 46.346 89.6455 45.662 89.4055 44.882C89.1775 44.09 89.0635 43.244 89.0635 42.344C89.0635 41.444 89.1775 40.604 89.4055 39.824C89.6455 39.032 89.9875 38.348 90.4315 37.772C90.8755 37.184 91.4035 36.728 92.0155 36.404C92.6395 36.068 93.3415 35.9 94.1215 35.9C94.8895 35.9 95.5855 36.068 96.2095 36.404C96.8335 36.728 97.3615 37.184 97.7935 37.772C98.2375 38.348 98.5795 39.032 98.8195 39.824C99.0595 40.604 99.1795 41.444 99.1795 42.344C99.1795 43.244 99.0595 44.09 98.8195 44.882C98.5795 45.662 98.2375 46.346 97.7935 46.934C97.3615 47.51 96.8335 47.966 96.2095 48.302C95.5855 48.626 94.8895 48.788 94.1215 48.788ZM94.1215 46.898C94.5895 46.898 95.0095 46.784 95.3815 46.556C95.7655 46.316 96.0835 45.992 96.3355 45.584C96.5995 45.176 96.7975 44.696 96.9295 44.144C97.0735 43.58 97.1455 42.98 97.1455 42.344C97.1455 41.696 97.0735 41.096 96.9295 40.544C96.7975 39.992 96.5995 39.512 96.3355 39.104C96.0835 38.696 95.7655 38.378 95.3815 38.15C95.0095 37.91 94.5895 37.79 94.1215 37.79C93.6535 37.79 93.2275 37.91 92.8435 38.15C92.4715 38.378 92.1535 38.696 91.8895 39.104C91.6375 39.512 91.4395 39.992 91.2955 40.544C91.1635 41.096 91.0975 41.696 91.0975 42.344C91.0975 42.98 91.1635 43.58 91.2955 44.144C91.4395 44.696 91.6375 45.176 91.8895 45.584C92.1535 45.992 92.4715 46.316 92.8435 46.556C93.2275 46.784 93.6535 46.898 94.1215 46.898ZM105.829 48.788C105.049 48.788 104.347 48.626 103.723 48.302C103.111 47.966 102.583 47.51 102.139 46.934C101.695 46.346 101.353 45.662 101.113 44.882C100.885 44.09 100.771 43.244 100.771 42.344C100.771 41.444 100.885 40.604 101.113 39.824C101.353 39.032 101.695 38.348 102.139 37.772C102.583 37.184 103.111 36.728 103.723 36.404C104.347 36.068 105.049 35.9 105.829 35.9C106.597 35.9 107.293 36.068 107.917 36.404C108.541 36.728 109.069 37.184 109.501 37.772C109.945 38.348 110.287 39.032 110.527 39.824C110.767 40.604 110.887 41.444 110.887 42.344C110.887 43.244 110.767 44.09 110.527 44.882C110.287 45.662 109.945 46.346 109.501 46.934C109.069 47.51 108.541 47.966 107.917 48.302C107.293 48.626 106.597 48.788 105.829 48.788ZM105.829 46.898C106.297 46.898 106.717 46.784 107.089 46.556C107.473 46.316 107.791 45.992 108.043 45.584C108.307 45.176 108.505 44.696 108.637 44.144C108.781 43.58 108.853 42.98 108.853 42.344C108.853 41.696 108.781 41.096 108.637 40.544C108.505 39.992 108.307 39.512 108.043 39.104C107.791 38.696 107.473 38.378 107.089 38.15C106.717 37.91 106.297 37.79 105.829 37.79C105.361 37.79 104.935 37.91 104.551 38.15C104.179 38.378 103.861 38.696 103.597 39.104C103.345 39.512 103.147 39.992 103.003 40.544C102.871 41.096 102.805 41.696 102.805 42.344C102.805 42.98 102.871 43.58 103.003 44.144C103.147 44.696 103.345 45.176 103.597 45.584C103.861 45.992 104.179 46.316 104.551 46.556C104.935 46.784 105.361 46.898 105.829 46.898ZM117.536 48.788C116.756 48.788 116.054 48.626 115.43 48.302C114.818 47.966 114.29 47.51 113.846 46.934C113.402 46.346 113.06 45.662 112.82 44.882C112.592 44.09 112.478 43.244 112.478 42.344C112.478 41.444 112.592 40.604 112.82 39.824C113.06 39.032 113.402 38.348 113.846 37.772C114.29 37.184 114.818 36.728 115.43 36.404C116.054 36.068 116.756 35.9 117.536 35.9C118.304 35.9 119 36.068 119.624 36.404C120.248 36.728 120.776 37.184 121.208 37.772C121.652 38.348 121.994 39.032 122.234 39.824C122.474 40.604 122.594 41.444 122.594 42.344C122.594 43.244 122.474 44.09 122.234 44.882C121.994 45.662 121.652 46.346 121.208 46.934C120.776 47.51 120.248 47.966 119.624 48.302C119 48.626 118.304 48.788 117.536 48.788ZM117.536 46.898C118.004 46.898 118.424 46.784 118.796 46.556C119.18 46.316 119.498 45.992 119.75 45.584C120.014 45.176 120.212 44.696 120.344 44.144C120.488 43.58 120.56 42.98 120.56 42.344C120.56 41.696 120.488 41.096 120.344 40.544C120.212 39.992 120.014 39.512 119.75 39.104C119.498 38.696 119.18 38.378 118.796 38.15C118.424 37.91 118.004 37.79 117.536 37.79C117.068 37.79 116.642 37.91 116.258 38.15C115.886 38.378 115.568 38.696 115.304 39.104C115.052 39.512 114.854 39.992 114.71 40.544C114.578 41.096 114.512 41.696 114.512 42.344C114.512 42.98 114.578 43.58 114.71 44.144C114.854 44.696 115.052 45.176 115.304 45.584C115.568 45.992 115.886 46.316 116.258 46.556C116.642 46.784 117.068 46.898 117.536 46.898Z" fill="black"/>
<path d="M14.09 66.25V60.75L12.82 61.3L12.4 60.35L14.41 59.41H15.2V66.25H14.09ZM19.293 66.41C18.8596 66.41 18.4696 66.32 18.123 66.14C17.783 65.9533 17.4896 65.7 17.243 65.38C16.9963 65.0533 16.8063 64.6733 16.673 64.24C16.5463 63.8 16.483 63.33 16.483 62.83C16.483 62.33 16.5463 61.8633 16.673 61.43C16.8063 60.99 16.9963 60.61 17.243 60.29C17.4896 59.9633 17.783 59.71 18.123 59.53C18.4696 59.3433 18.8596 59.25 19.293 59.25C19.7196 59.25 20.1063 59.3433 20.453 59.53C20.7996 59.71 21.093 59.9633 21.333 60.29C21.5796 60.61 21.7696 60.99 21.903 61.43C22.0363 61.8633 22.103 62.33 22.103 62.83C22.103 63.33 22.0363 63.8 21.903 64.24C21.7696 64.6733 21.5796 65.0533 21.333 65.38C21.093 65.7 20.7996 65.9533 20.453 66.14C20.1063 66.32 19.7196 66.41 19.293 66.41ZM19.293 65.36C19.553 65.36 19.7863 65.2967 19.993 65.17C20.2063 65.0367 20.383 64.8567 20.523 64.63C20.6696 64.4033 20.7796 64.1367 20.853 63.83C20.933 63.5167 20.973 63.1833 20.973 62.83C20.973 62.47 20.933 62.1367 20.853 61.83C20.7796 61.5233 20.6696 61.2567 20.523 61.03C20.383 60.8033 20.2063 60.6267 19.993 60.5C19.7863 60.3667 19.553 60.3 19.293 60.3C19.033 60.3 18.7963 60.3667 18.583 60.5C18.3763 60.6267 18.1996 60.8033 18.053 61.03C17.913 61.2567 17.803 61.5233 17.723 61.83C17.6496 62.1367 17.613 62.47 17.613 62.83C17.613 63.1833 17.6496 63.5167 17.723 63.83C17.803 64.1367 17.913 64.4033 18.053 64.63C18.1996 64.8567 18.3763 65.0367 18.583 65.17C18.7963 65.2967 19.033 65.36 19.293 65.36ZM22.8669 60.96C22.8669 60.7267 22.9102 60.5067 22.9969 60.3C23.0902 60.0933 23.2135 59.9133 23.3669 59.76C23.5269 59.6 23.7102 59.4767 23.9169 59.39C24.1302 59.2967 24.3602 59.25 24.6069 59.25C24.8469 59.25 25.0735 59.2967 25.2869 59.39C25.5002 59.4767 25.6835 59.6 25.8369 59.76C25.9902 59.9133 26.1102 60.0933 26.1969 60.3C26.2902 60.5067 26.3369 60.7267 26.3369 60.96C26.3369 61.1933 26.2902 61.4133 26.1969 61.62C26.1102 61.8267 25.9902 62.01 25.8369 62.17C25.6835 62.3233 25.5002 62.4467 25.2869 62.54C25.0735 62.6267 24.8469 62.67 24.6069 62.67C24.3602 62.67 24.1302 62.6267 23.9169 62.54C23.7102 62.4467 23.5269 62.3233 23.3669 62.17C23.2135 62.01 23.0902 61.8267 22.9969 61.62C22.9102 61.4133 22.8669 61.1933 22.8669 60.96ZM23.7769 60.96C23.7769 61.2133 23.8569 61.4233 24.0169 61.59C24.1769 61.7567 24.3735 61.84 24.6069 61.84C24.8402 61.84 25.0369 61.7567 25.1969 61.59C25.3569 61.4233 25.4369 61.2133 25.4369 60.96C25.4369 60.7 25.3569 60.49 25.1969 60.33C25.0369 60.1633 24.8402 60.08 24.6069 60.08C24.3735 60.08 24.1769 60.1633 24.0169 60.33C23.8569 60.49 23.7769 60.7 23.7769 60.96ZM24.1169 65.92L28.5669 59.29L29.2369 59.75L24.7969 66.37L24.1169 65.92ZM27.0269 64.7C27.0269 64.4667 27.0702 64.2467 27.1569 64.04C27.2502 63.8333 27.3735 63.6533 27.5269 63.5C27.6869 63.34 27.8702 63.2167 28.0769 63.13C28.2902 63.0367 28.5202 62.99 28.7669 62.99C29.0069 62.99 29.2335 63.0367 29.4469 63.13C29.6602 63.2167 29.8435 63.34 29.9969 63.5C30.1502 63.6533 30.2702 63.8333 30.3569 64.04C30.4502 64.2467 30.4969 64.4667 30.4969 64.7C30.4969 64.9333 30.4502 65.1533 30.3569 65.36C30.2702 65.5667 30.1502 65.75 29.9969 65.91C29.8435 66.0633 29.6602 66.1833 29.4469 66.27C29.2335 66.3633 29.0069 66.41 28.7669 66.41C28.5202 66.41 28.2902 66.3633 28.0769 66.27C27.8702 66.1833 27.6869 66.0633 27.5269 65.91C27.3735 65.75 27.2502 65.5667 27.1569 65.36C27.0702 65.1533 27.0269 64.9333 27.0269 64.7ZM27.9369 64.7C27.9369 64.9533 28.0169 65.1633 28.1769 65.33C28.3369 65.4967 28.5335 65.58 28.7669 65.58C29.0002 65.58 29.1969 65.4967 29.3569 65.33C29.5169 65.1633 29.5969 64.9533 29.5969 64.7C29.5969 64.44 29.5169 64.23 29.3569 64.07C29.1969 63.9033 29.0002 63.82 28.7669 63.82C28.5335 63.82 28.3369 63.9033 28.1769 64.07C28.0169 64.23 27.9369 64.44 27.9369 64.7Z" fill="#1B963C"/>
<path d="M34.5756 60.12C34.449 60.2467 34.2956 60.31 34.1156 60.31C33.9356 60.31 33.7823 60.2467 33.6556 60.12C33.529 59.9933 33.4656 59.84 33.4656 59.66C33.4656 59.48 33.529 59.3267 33.6556 59.2C33.7823 59.0733 33.9356 59.01 34.1156 59.01C34.2956 59.01 34.449 59.0733 34.5756 59.2C34.7023 59.3267 34.7656 59.48 34.7656 59.66C34.7656 59.84 34.7023 59.9933 34.5756 60.12ZM34.5756 66.25H33.6556V61.35H34.5756V66.25ZM36.6529 61.35V62.03H36.6929C36.8262 61.7967 37.0362 61.6 37.3229 61.44C37.6096 61.2733 37.9162 61.19 38.2429 61.19C38.8496 61.19 39.3129 61.3767 39.6329 61.75C39.9529 62.1233 40.1129 62.6233 40.1129 63.25V66.25H39.1929V63.39C39.1929 62.4833 38.7896 62.03 37.9829 62.03C37.6029 62.03 37.2929 62.1833 37.0529 62.49C36.8129 62.79 36.6929 63.14 36.6929 63.54V66.25H35.7729V61.35H36.6529ZM43.4328 66.41C42.6995 66.41 42.0961 66.1633 41.6228 65.67C41.1495 65.17 40.9128 64.5467 40.9128 63.8C40.9128 63.0533 41.1495 62.4333 41.6228 61.94C42.0961 61.44 42.6995 61.19 43.4328 61.19C43.9795 61.19 44.4328 61.3233 44.7928 61.59C45.1528 61.8567 45.4161 62.1933 45.5828 62.6L44.7428 62.95C44.4895 62.3367 44.0328 62.03 43.3728 62.03C42.9661 62.03 42.6061 62.1967 42.2928 62.53C41.9861 62.8633 41.8328 63.2867 41.8328 63.8C41.8328 64.3133 41.9861 64.7367 42.2928 65.07C42.6061 65.4033 42.9661 65.57 43.3728 65.57C44.0595 65.57 44.5328 65.2633 44.7928 64.65L45.6128 65C45.4461 65.4 45.1761 65.7367 44.8028 66.01C44.4361 66.2767 43.9795 66.41 43.4328 66.41ZM47.2886 66.25H46.3686V61.35H47.2486V62.15H47.2886C47.3819 61.8833 47.5719 61.6633 47.8586 61.49C48.1519 61.3167 48.4353 61.23 48.7086 61.23C48.9819 61.23 49.2119 61.27 49.3986 61.35L49.0486 62.21C48.9286 62.1633 48.7653 62.14 48.5586 62.14C48.2253 62.14 47.9286 62.2733 47.6686 62.54C47.4153 62.8 47.2886 63.1433 47.2886 63.57V66.25ZM51.9187 66.41C51.1787 66.41 50.5753 66.1633 50.1087 65.67C49.6487 65.1767 49.4187 64.5533 49.4187 63.8C49.4187 63.0867 49.642 62.4733 50.0887 61.96C50.542 61.4467 51.1187 61.19 51.8187 61.19C52.5453 61.19 53.1253 61.4267 53.5587 61.9C53.9987 62.3733 54.2187 63.0067 54.2187 63.8L54.2087 63.97H50.3387C50.3653 64.4633 50.5287 64.8533 50.8287 65.14C51.1353 65.4267 51.492 65.57 51.8987 65.57C52.5587 65.57 53.0053 65.29 53.2387 64.73L54.0587 65.07C53.8987 65.45 53.6353 65.77 53.2687 66.03C52.902 66.2833 52.452 66.41 51.9187 66.41ZM53.2387 63.21C53.2187 62.93 53.0887 62.6633 52.8487 62.41C52.6153 62.1567 52.2653 62.03 51.7987 62.03C51.4587 62.03 51.162 62.1367 50.9087 62.35C50.662 62.5633 50.492 62.85 50.3987 63.21H53.2387ZM56.6588 66.41C56.1388 66.41 55.7022 66.26 55.3488 65.96C55.0022 65.66 54.8288 65.2633 54.8288 64.77C54.8288 64.2367 55.0355 63.82 55.4488 63.52C55.8622 63.2133 56.3722 63.06 56.9788 63.06C57.5188 63.06 57.9622 63.16 58.3088 63.36V63.22C58.3088 62.86 58.1855 62.5733 57.9388 62.36C57.6922 62.14 57.3888 62.03 57.0288 62.03C56.7622 62.03 56.5188 62.0933 56.2988 62.22C56.0855 62.3467 55.9388 62.52 55.8588 62.74L55.0188 62.38C55.1322 62.0867 55.3555 61.8167 55.6888 61.57C56.0222 61.3167 56.4622 61.19 57.0088 61.19C57.6355 61.19 58.1555 61.3733 58.5688 61.74C58.9822 62.1067 59.1888 62.6233 59.1888 63.29V66.25H58.3088V65.57H58.2688C57.9022 66.13 57.3655 66.41 56.6588 66.41ZM56.8088 65.57C57.1888 65.57 57.5322 65.43 57.8388 65.15C58.1522 64.8633 58.3088 64.5267 58.3088 64.14C58.0488 63.9267 57.6588 63.82 57.1388 63.82C56.6922 63.82 56.3555 63.9167 56.1288 64.11C55.9022 64.3033 55.7888 64.53 55.7888 64.79C55.7888 65.03 55.8922 65.22 56.0988 65.36C56.3055 65.5 56.5422 65.57 56.8088 65.57ZM61.9972 66.41C61.4505 66.41 60.9972 66.2767 60.6372 66.01C60.2839 65.7433 60.0239 65.41 59.8572 65.01L60.6772 64.67C60.9372 65.2833 61.3805 65.59 62.0072 65.59C62.2939 65.59 62.5272 65.5267 62.7072 65.4C62.8939 65.2733 62.9872 65.1067 62.9872 64.9C62.9872 64.58 62.7639 64.3633 62.3172 64.25L61.3272 64.01C61.0139 63.93 60.7172 63.78 60.4372 63.56C60.1572 63.3333 60.0172 63.03 60.0172 62.65C60.0172 62.2167 60.2072 61.8667 60.5872 61.6C60.9739 61.3267 61.4305 61.19 61.9572 61.19C62.3905 61.19 62.7772 61.29 63.1172 61.49C63.4572 61.6833 63.7005 61.9633 63.8472 62.33L63.0472 62.66C62.8672 62.2267 62.4939 62.01 61.9272 62.01C61.6539 62.01 61.4239 62.0667 61.2372 62.18C61.0505 62.2933 60.9572 62.4467 60.9572 62.64C60.9572 62.92 61.1739 63.11 61.6072 63.21L62.5772 63.44C63.0372 63.5467 63.3772 63.73 63.5972 63.99C63.8172 64.25 63.9272 64.5433 63.9272 64.87C63.9272 65.31 63.7472 65.6767 63.3872 65.97C63.0272 66.2633 62.5639 66.41 61.9972 66.41ZM66.9968 66.41C66.2568 66.41 65.6535 66.1633 65.1868 65.67C64.7268 65.1767 64.4968 64.5533 64.4968 63.8C64.4968 63.0867 64.7201 62.4733 65.1668 61.96C65.6201 61.4467 66.1968 61.19 66.8968 61.19C67.6235 61.19 68.2035 61.4267 68.6368 61.9C69.0768 62.3733 69.2968 63.0067 69.2968 63.8L69.2868 63.97H65.4168C65.4435 64.4633 65.6068 64.8533 65.9068 65.14C66.2135 65.4267 66.5701 65.57 66.9768 65.57C67.6368 65.57 68.0835 65.29 68.3168 64.73L69.1368 65.07C68.9768 65.45 68.7135 65.77 68.3468 66.03C67.9801 66.2833 67.5301 66.41 66.9968 66.41ZM68.3168 63.21C68.2968 62.93 68.1668 62.6633 67.9268 62.41C67.6935 62.1567 67.3435 62.03 66.8768 62.03C66.5368 62.03 66.2401 62.1367 65.9868 62.35C65.7401 62.5633 65.5701 62.85 65.4768 63.21H68.3168ZM74.4554 66.33C73.9421 66.33 73.5487 66.1933 73.2754 65.92C73.0087 65.6467 72.8754 65.26 72.8754 64.76V62.19H72.0154V61.35H72.8754V59.85H73.7954V61.35H74.9954V62.19H73.7954V64.69C73.7954 65.2233 74.0154 65.49 74.4554 65.49C74.6221 65.49 74.7621 65.4633 74.8754 65.41L75.1954 66.2C74.9954 66.2867 74.7487 66.33 74.4554 66.33ZM76.8394 59.09V61.35L76.7994 62.03H76.8394C76.9727 61.7967 77.1827 61.6 77.4694 61.44C77.756 61.2733 78.0627 61.19 78.3894 61.19C78.996 61.19 79.4594 61.3767 79.7794 61.75C80.0994 62.1233 80.2594 62.6233 80.2594 63.25V66.25H79.3394V63.39C79.3394 62.4833 78.936 62.03 78.1294 62.03C77.7494 62.03 77.4394 62.1833 77.1994 62.49C76.9594 62.79 76.8394 63.14 76.8394 63.54V66.25H75.9194V59.09H76.8394ZM82.3393 60.12C82.2126 60.2467 82.0593 60.31 81.8793 60.31C81.6993 60.31 81.546 60.2467 81.4193 60.12C81.2926 59.9933 81.2293 59.84 81.2293 59.66C81.2293 59.48 81.2926 59.3267 81.4193 59.2C81.546 59.0733 81.6993 59.01 81.8793 59.01C82.0593 59.01 82.2126 59.0733 82.3393 59.2C82.466 59.3267 82.5293 59.48 82.5293 59.66C82.5293 59.84 82.466 59.9933 82.3393 60.12ZM82.3393 66.25H81.4193V61.35H82.3393V66.25ZM85.3566 66.41C84.8099 66.41 84.3566 66.2767 83.9966 66.01C83.6432 65.7433 83.3832 65.41 83.2166 65.01L84.0366 64.67C84.2966 65.2833 84.7399 65.59 85.3666 65.59C85.6532 65.59 85.8866 65.5267 86.0666 65.4C86.2532 65.2733 86.3466 65.1067 86.3466 64.9C86.3466 64.58 86.1232 64.3633 85.6766 64.25L84.6866 64.01C84.3732 63.93 84.0766 63.78 83.7966 63.56C83.5166 63.3333 83.3766 63.03 83.3766 62.65C83.3766 62.2167 83.5666 61.8667 83.9466 61.6C84.3332 61.3267 84.7899 61.19 85.3166 61.19C85.7499 61.19 86.1366 61.29 86.4766 61.49C86.8166 61.6833 87.0599 61.9633 87.2066 62.33L86.4066 62.66C86.2266 62.2267 85.8532 62.01 85.2866 62.01C85.0132 62.01 84.7832 62.0667 84.5966 62.18C84.4099 62.2933 84.3166 62.4467 84.3166 62.64C84.3166 62.92 84.5332 63.11 84.9666 63.21L85.9366 63.44C86.3966 63.5467 86.7366 63.73 86.9566 63.99C87.1766 64.25 87.2866 64.5433 87.2866 64.87C87.2866 65.31 87.1066 65.6767 86.7466 65.97C86.3866 66.2633 85.9232 66.41 85.3566 66.41ZM12.56 78.25V73.35H13.44V74.03H13.48C13.62 73.7967 13.8333 73.6 14.12 73.44C14.4133 73.2733 14.7033 73.19 14.99 73.19C15.75 73.19 16.2667 73.5033 16.54 74.13C16.94 73.5033 17.51 73.19 18.25 73.19C18.83 73.19 19.2667 73.3767 19.56 73.75C19.8533 74.1167 20 74.6167 20 75.25V78.25H19.08V75.39C19.08 74.8967 18.99 74.5467 18.81 74.34C18.63 74.1333 18.3567 74.03 17.99 74.03C17.63 74.03 17.33 74.1833 17.09 74.49C16.8567 74.7967 16.74 75.1467 16.74 75.54V78.25H15.82V75.39C15.82 74.8967 15.73 74.5467 15.55 74.34C15.37 74.1333 15.0967 74.03 14.73 74.03C14.37 74.03 14.07 74.1833 13.83 74.49C13.5967 74.7967 13.48 75.1467 13.48 75.54V78.25H12.56ZM21.5056 73.94C21.979 73.44 22.5823 73.19 23.3156 73.19C24.049 73.19 24.6523 73.44 25.1256 73.94C25.599 74.4333 25.8356 75.0533 25.8356 75.8C25.8356 76.5467 25.599 77.17 25.1256 77.67C24.6523 78.1633 24.049 78.41 23.3156 78.41C22.5823 78.41 21.979 78.1633 21.5056 77.67C21.0323 77.17 20.7956 76.5467 20.7956 75.8C20.7956 75.0533 21.0323 74.4333 21.5056 73.94ZM22.1856 77.09C22.5056 77.41 22.8823 77.57 23.3156 77.57C23.749 77.57 24.1223 77.41 24.4356 77.09C24.7556 76.7633 24.9156 76.3333 24.9156 75.8C24.9156 75.2667 24.7556 74.84 24.4356 74.52C24.1223 74.1933 23.749 74.03 23.3156 74.03C22.8823 74.03 22.5056 74.1933 22.1856 74.52C21.8723 74.84 21.7156 75.2667 21.7156 75.8C21.7156 76.3333 21.8723 76.7633 22.1856 77.09ZM27.4537 73.35V74.03H27.4937C27.627 73.7967 27.837 73.6 28.1237 73.44C28.4103 73.2733 28.717 73.19 29.0437 73.19C29.6503 73.19 30.1137 73.3767 30.4337 73.75C30.7537 74.1233 30.9137 74.6233 30.9137 75.25V78.25H29.9937V75.39C29.9937 74.4833 29.5903 74.03 28.7837 74.03C28.4037 74.03 28.0937 74.1833 27.8537 74.49C27.6137 74.79 27.4937 75.14 27.4937 75.54V78.25H26.5737V73.35H27.4537ZM33.8597 78.33C33.3464 78.33 32.953 78.1933 32.6797 77.92C32.413 77.6467 32.2797 77.26 32.2797 76.76V74.19H31.4197V73.35H32.2797V71.85H33.1997V73.35H34.3997V74.19H33.1997V76.69C33.1997 77.2233 33.4197 77.49 33.8597 77.49C34.0264 77.49 34.1664 77.4633 34.2797 77.41L34.5997 78.2C34.3997 78.2867 34.153 78.33 33.8597 78.33ZM36.2437 71.09V73.35L36.2037 74.03H36.2437C36.377 73.7967 36.587 73.6 36.8737 73.44C37.1603 73.2733 37.467 73.19 37.7937 73.19C38.4003 73.19 38.8637 73.3767 39.1837 73.75C39.5037 74.1233 39.6637 74.6233 39.6637 75.25V78.25H38.7437V75.39C38.7437 74.4833 38.3403 74.03 37.5337 74.03C37.1537 74.03 36.8437 74.1833 36.6037 74.49C36.3637 74.79 36.2437 75.14 36.2437 75.54V78.25H35.3237V71.09H36.2437Z" fill="#8C8B8B"/>
<path d="M122 87.5L129.733 81.6999C129.91 81.5675 130.063 81.4069 130.187 81.2245L138.085 69.6106C138.353 69.2165 138.753 68.9311 139.212 68.8057L155 64.5L167.436 59.2386C167.804 59.0831 168.116 58.8212 168.334 58.4866L174.5 49" stroke="#4EE91F" stroke-width="1.5" stroke-linecap="round"/>
<path d="M174.5 88V48.5L168.5 59.5L155 65L138.5 70L130.5 81.5L122.5 88H174.5Z" fill="url(#paint0_linear_279_233)" fill-opacity="0.2"/>
<defs>
<linearGradient id="paint0_linear_279_233" x1="149" y1="68.5" x2="158.5" y2="92.5" gradientUnits="userSpaceOnUse">
<stop stop-color="#4EE91F"/>
<stop offset="1" stop-color="#4EE91F" stop-opacity="0"/>
</linearGradient>
</defs>
</svg>
